<svg xmlns="http://www.w3.org/2000/svg" xmlns:xlink="http://www.w3.org/1999/xlink" xmlns:lucid="lucid" width="1631.26" height="318.74"><g transform="translate(-6.802786830429142 -11.605560058970363)" lucid:page-tab-id="0_0"><path d="M6.8 47.97h281.12v238H6.8z" fill="url(#a)"/><path d="M74.76 58.3h145.2v36.06H74.77z" fill="none"/><use xlink:href="#b" transform="matrix(1,0,0,1,79.7558665704583,63.303492381682254) translate(0 21.09548611111111)"/><use xlink:href="#c" transform="matrix(1,0,0,1,79.7558665704583,63.303492381682254) translate(53.61328124999999 21.09548611111111)"/><path d="M105.2 88.44h84.32v31.1H105.2z" fill="none"/><use xlink:href="#d" transform="matrix(1,0,0,1,110.19993124059718,93.44399594980923) translate(0 17.15234375)"/><path d="M52.54 125.97h189.64v101.4H52.54z" fill="#fff" opacity=".15"/><path d="M66.14 140.03h162.44v73.3H66.14z" fill="none"/><use xlink:href="#e" transform="matrix(1,0,0,1,71.14133749059718,145.02553995557872) translate(0 17.05859375)"/><use xlink:href="#f" transform="matrix(1,0,0,1,71.14133749059718,145.02553995557872) translate(64.810546875 17.05859375)"/><use xlink:href="#g" transform="matrix(1,0,0,1,71.14133749059718,145.02553995557872) translate(73.9599609375 17.05859375)"/><use xlink:href="#h" transform="matrix(1,0,0,1,71.14133749059718,145.02553995557872) translate(30.603515625 38.15234375)"/><use xlink:href="#f" transform="matrix(1,0,0,1,71.14133749059718,145.02553995557872) translate(74.1533203125 38.15234375)"/><use xlink:href="#i" transform="matrix(1,0,0,1,71.14133749059718,145.02553995557872) translate(83.302734375 38.15234375)"/><use xlink:href="#j" transform="matrix(1,0,0,1,71.14133749059718,145.02553995557872) translate(40.36376953125 59.24609375)"/><use xlink:href="#f" transform="matrix(1,0,0,1,71.14133749059718,145.02553995557872) translate(88.18505859375 59.24609375)"/><use xlink:href="#k" transform="matrix(1,0,0,1,71.14133749059718,145.02553995557872) translate(97.33447265625 59.24609375)"/><path d="M42.9 238.02h208.9v31.1H42.9z" fill="none"/><use xlink:href="#l" transform="matrix(1,0,0,1,47.90745077184718,243.01681910271765) translate(0 17.15234375)"/><use xlink:href="#m" transform="matrix(1,0,0,1,47.90745077184718,243.01681910271765) translate(129.5947265625 17.15234375)"/><path d="M342.27 47.97h281.1v238h-281.1z" fill="url(#n)"/><path d="M395.43 58.3H559.9v36.06H395.42z" fill="none"/><use xlink:href="#o" transform="matrix(1,0,0,1,400.4329418688608,63.303492381682254) translate(0 21.09548611111111)"/><use xlink:href="#p" transform="matrix(1,0,0,1,400.4329418688608,63.303492381682254) translate(72.5802951388889 21.09548611111111)"/><path d="M449.5 89.36h56.33v31.1H449.5z" fill="none"/><use xlink:href="#q" transform="matrix(1,0,0,1,454.49376001122187,94.3551590483489) translate(0 17.15234375)"/><path d="M388 125.97h189.65v101.4H388z" fill="#fff" opacity=".15"/><path d="M401.6 140.03h162.45v73.3H401.6z" fill="none"/><use xlink:href="#e" transform="matrix(1,0,0,1,406.60692964040607,145.02553995557872) translate(0 17.05859375)"/><use xlink:href="#f" transform="matrix(1,0,0,1,406.60692964040607,145.02553995557872) translate(64.810546875 17.05859375)"/><use xlink:href="#g" transform="matrix(1,0,0,1,406.60692964040607,145.02553995557872) translate(73.9599609375 17.05859375)"/><use xlink:href="#h" transform="matrix(1,0,0,1,406.60692964040607,145.02553995557872) translate(30.603515625 38.15234375)"/><use xlink:href="#f" transform="matrix(1,0,0,1,406.60692964040607,145.02553995557872) translate(74.1533203125 38.15234375)"/><use xlink:href="#i" transform="matrix(1,0,0,1,406.60692964040607,145.02553995557872) translate(83.302734375 38.15234375)"/><use xlink:href="#j" transform="matrix(1,0,0,1,406.60692964040607,145.02553995557872) translate(40.36376953125 59.24609375)"/><use xlink:href="#f" transform="matrix(1,0,0,1,406.60692964040607,145.02553995557872) translate(88.18505859375 59.24609375)"/><use xlink:href="#k" transform="matrix(1,0,0,1,406.60692964040607,145.02553995557872) translate(97.33447265625 59.24609375)"/><path d="M412.14 238.02h131.04v31.1H412.14z" fill="none"/><use xlink:href="#r" transform="matrix(1,0,0,1,417.14024438622187,243.01681910271765) translate(0 17.15234375)"/><use xlink:href="#s" transform="matrix(1,0,0,1,417.14024438622187,243.01681910271765) translate(57.568359375 17.15234375)"/><path d="M684.52 47.97h281.12v238H684.52z" fill="url(#t)"/><path d="M750.77 57.4H899.4v36.04H750.76z" fill="none"/><use xlink:href="#u" transform="matrix(1,0,0,1,755.772980048976,62.39232928314255) translate(0 21.09548611111111)"/><use xlink:href="#v" transform="matrix(1,0,0,1,755.772980048976,62.39232928314255) translate(111.37152777777777 21.09548611111111)"/><path d="M746.6 88.44h156.98v31.1h-157z" fill="none"/><use xlink:href="#w" transform="matrix(1,0,0,1,751.5866193718927,93.44399594980923) translate(0 17.15234375)"/><path d="M730.26 125.05H919.9v48.7H730.26z" fill="#fff" opacity=".15"/><path d="M756.65 126.3h132.38v46.47H756.65z" fill="none"/><use xlink:href="#x" transform="matrix(1,0,0,1,761.649716160087,131.3013633790593) translate(0.31456163194444287 14.702256944444446)"/><use xlink:href="#y" transform="matrix(1,0,0,1,761.649716160087,131.3013633790593) translate(51.120768229166664 14.702256944444446)"/><use xlink:href="#z" transform="matrix(1,0,0,1,761.649716160087,131.3013633790593) translate(71.33235677083333 14.702256944444446)"/><use xlink:href="#A" transform="matrix(1,0,0,1,761.649716160087,131.3013633790593) translate(25.261935763888886 32.931423611111114)"/><use xlink:href="#B" transform="matrix(1,0,0,1,761.649716160087,131.3013633790593) translate(37.84765625 32.931423611111114)"/><path d="M717.16 237.1h210.4v31.1h-210.4z" fill="none"/><use xlink:href="#C" transform="matrix(1,0,0,1,722.1652326531427,242.105656004178) translate(0 17.15234375)"/><use xlink:href="#D" transform="matrix(1,0,0,1,722.1652326531427,242.105656004178) translate(89.8154296875 17.15234375)"/><use xlink:href="#E" transform="matrix(1,0,0,1,722.1652326531427,242.105656004178) translate(133.1806640625 17.15234375)"/><path d="M730.26 187.5H919.9v46.6H730.26z" fill="#fff" opacity=".15"/><path d="M754.2 187.5h141.75v46.45H754.2z" fill="none"/><use xlink:href="#F" transform="matrix(1,0,0,1,759.2121076531427,192.48565600417803) translate(11.749240451388893 14.702256944444446)"/><use xlink:href="#y" transform="matrix(1,0,0,1,759.2121076531427,192.48565600417803) translate(73.69802517361111 14.702256944444446)"/><use xlink:href="#G" transform="matrix(1,0,0,1,759.2121076531427,192.48565600417803) translate(93.90961371527777 14.702256944444446)"/><use xlink:href="#H" transform="matrix(1,0,0,1,759.2121076531427,192.48565600417803) translate(0.1357421875 32.931423611111114)"/><use xlink:href="#I" transform="matrix(1,0,0,1,759.2121076531427,192.48565600417803) translate(56.14485677083334 32.931423611111114)"/><use xlink:href="#J" transform="matrix(1,0,0,1,759.2121076531427,192.48565600417803) translate(64.0517578125 32.931423611111114)"/><path d="M1356.95 47.97h281.1v238h-281.1z" fill="url(#K)"/><path d="M1400.97 58.3h182.74v36.06h-182.73z" fill="none"/><use xlink:href="#L" transform="matrix(1,0,0,1,1405.9685164430289,63.3034923816822) translate(0 21.09548611111111)"/><use xlink:href="#M" transform="matrix(1,0,0,1,1405.9685164430289,63.3034923816822) translate(104.99131944444444 21.09548611111111)"/><path d="M1473.95 93.36h47.1v31.1h-47.1z" fill="none"/><use xlink:href="#N" transform="matrix(1,0,0,1,1478.949253346518,98.35515904834887) translate(0 17.15234375)"/><path d="M1402.68 125.97h189.64v101.4h-189.64z" fill="#fff" opacity=".65"/><path d="M1428.55 135.2h138.78v82.93h-138.78z" fill="none"/><use xlink:href="#O" transform="matrix(1,0,0,1,1433.5466925826304,140.20783162224527) translate(20.708224826388893 14.473090277777782)"/><use xlink:href="#P" transform="matrix(1,0,0,1,1433.5466925826304,140.20783162224527) translate(90.48036024305554 14.473090277777782)"/><use xlink:href="#Q" transform="matrix(1,0,0,1,1433.5466925826304,140.20783162224527) translate(3.4702690972222214 32.70225694444444)"/><use xlink:href="#R" transform="matrix(1,0,0,1,1433.5466925826304,140.20783162224527) translate(40.38433159722222 32.70225694444444)"/><use xlink:href="#S" transform="matrix(1,0,0,1,1433.5466925826304,140.20783162224527) translate(21.669053819444443 50.931423611111114)"/><use xlink:href="#T" transform="matrix(1,0,0,1,1433.5466925826304,140.20783162224527) translate(78.11870659722223 50.931423611111114)"/><use xlink:href="#U" transform="matrix(1,0,0,1,1433.5466925826304,140.20783162224527) translate(0.11306423611111427 69.16059027777777)"/><use xlink:href="#V" transform="matrix(1,0,0,1,1433.5466925826304,140.20783162224527) translate(77.966796875 69.16059027777777)"/><path d="M1417.56 238.02h159.9v31.1h-159.9z" fill="none"/><g><use xlink:href="#W" transform="matrix(1,0,0,1,1422.558628346519,243.01681910271765) translate(0 17.15234375)"/><use xlink:href="#X" transform="matrix(1,0,0,1,1422.558628346519,243.01681910271765) translate(40.2626953125 17.15234375)"/><use xlink:href="#Y" transform="matrix(1,0,0,1,1422.558628346519,243.01681910271765) translate(102.7705078125 17.15234375)"/></g><path d="M336.5 11.6h89.46v31.1H336.5z" fill="none"/><g><use xlink:href="#Z" transform="matrix(1,0,0,1,341.49090535120445,16.60556005897036) translate(0 17.15234375)"/></g><path d="M678.37 11.6h110.3v31.1h-110.3z" fill="none"/><g><use xlink:href="#aa" transform="matrix(1,0,0,1,683.3721100845245,16.60556005897036) translate(0 17.15234375)"/></g><path d="M1351.1 11.6h70.33v31.1h-70.32z" fill="none"/><g><use xlink:href="#ab" transform="matrix(1,0,0,1,1356.1081986590189,16.60556005897036) translate(0 17.15234375)"/></g><path d="M482.83 286.98v3.98m0 7.96v7.95m0 7.96v7.95m1.4 6.56h7.94m7.96 0h7.95m7.96 0H524m7.95 0h7.95m7.96 0h7.96m7.95 0h7.96m7.95 0h7.96m7.95 0h7.95m7.95 0h7.96m7.95 0h7.97m7.95 0h7.96m7.95 0h7.96m7.94 0h7.96m7.95 0H699m7.96 0h7.96m7.95 0h7.96m7.95 0h7.96m7.95 0h7.95m7.95 0h7.96m7.95 0h7.97m7.95 0h7.96m7.95 0h7.96m7.94 0h7.96m7.95 0h7.96m7.97 0h7.95m7.96 0h7.95m7.96 0h7.94m7.95 0h7.95m7.96 0h7.96m7.96 0h7.95m7.96 0h7.95m7.96 0h7.95m7.95 0h7.95m7.96 0h7.95m7.97 0h7.95m7.96 0h7.95m7.96 0h7.94m7.96 0h7.95m7.96 0h7.96m7.96 0h7.95m7.96 0h7.95m7.96 0h7.95m7.95 0h7.95m7.96 0h7.95m7.97 0h7.95m7.96 0h7.95m7.96 0h7.95m7.95 0h7.95m7.96 0h7.97m7.95 0h7.96m7.95 0h7.96m7.94 0h7.96m7.95 0h7.96m7.96 0h7.96m7.95 0h7.96m7.95 0h7.96m7.95 0h7.95m7.95 0h7.96m7.95 0h7.97m7.95 0h7.96m7.95 0h7.96m7.94 0h7.96m7.95 0h7.96m7.96 0h7.96m2.98-4.97v-7.95m0-7.96v-3.97" stroke="#667eea" stroke-width="2" fill="none"/><path d="M483.8 287h-1.95V286h1.95z" stroke="#667eea" stroke-width=".05" fill="#667eea"/><path d="M1497.5 289.22l4.64 14.27h-9.27z" stroke="#667eea" stroke-width="2" fill="#667eea"/><path d="M289.92 166.98h29.6" stroke="#667eea" stroke-width="4" fill="none"/><path d="M289.97 168.95h-2.05V165h2.05z" stroke="#667eea" stroke-width=".05" fill="#667eea"/><path d="M335.8 166.98l-14.27 4.63v-9.26z" stroke="#667eea" stroke-width="4" fill="#667eea"/><path d="M625.38 166.98h36.4" stroke="#667eea" stroke-width="4" fill="none"/><path d="M625.43 168.95h-2.05V165h2.05z" stroke="#667eea" stroke-width=".05" fill="#667eea"/><path d="M678.05 166.98l-14.26 4.63v-9.26z" stroke="#667eea" stroke-width="4" fill="#667eea"/><path d="M967.64 166.98h36.41" stroke="#667eea" stroke-width="4" fill="none"/><path d="M967.7 168.95h-2.06V165h2.05z" stroke="#667eea" stroke-width=".05" fill="#667eea"/><path d="M1020.3 166.98l-14.26 4.63v-9.26z" stroke="#667eea" stroke-width="4" fill="#667eea"/><path d="M1021 11.6h182.24v31.1H1021z" fill="none"/><g><use xlink:href="#ac" transform="matrix(1,0,0,1,1026.0010660641778,16.60556005897036) translate(0 17.15234375)"/></g><path d="M845.24 292.1H1182v31.1H845.24z" fill="none"/><g><use xlink:href="#ad" transform="matrix(1,0,0,1,850.2420513175721,297.1107414079715) translate(0 17.15234375)"/><use xlink:href="#ae" transform="matrix(1,0,0,1,850.2420513175721,297.1107414079715) translate(24.0029296875 17.15234375)"/><use xlink:href="#af" transform="matrix(1,0,0,1,850.2420513175721,297.1107414079715) translate(136.2041015625 17.15234375)"/><use xlink:href="#ag" transform="matrix(1,0,0,1,850.2420513175721,297.1107414079715) translate(182.14453125 17.15234375)"/><use xlink:href="#ah" transform="matrix(1,0,0,1,850.2420513175721,297.1107414079715) translate(274.7724609375 17.15234375)"/></g><path d="M1026.78 48.88h281.1v236.2h-281.1z" fill="url(#ai)"/><path d="M1095.47 58.3h143.73v36.06h-143.73z" fill="none"/><g><use xlink:href="#aj" transform="matrix(1,0,0,1,1100.4748920026848,63.3034923816822) translate(0 21.09548611111111)"/><use xlink:href="#ak" transform="matrix(1,0,0,1,1100.4748920026848,63.3034923816822) translate(50.748697916666664 21.09548611111111)"/></g><path d="M1042.47 95.2h246.9v31.1h-246.9z" fill="none"/><g><use xlink:href="#al" transform="matrix(1,0,0,1,1047.4750005096298,100.19761337905935) translate(0 17.15234375)"/></g><g opacity=".15"><path d="M1072.52 156.56h189.64v42.2h-189.64z" fill="#fff"/></g><path d="M1086.12 162.1h162.44v31.12h-162.44z" fill="none"/><g><use xlink:href="#e" transform="matrix(1,0,0,1,1091.1170903533798,167.1134740943187) translate(0 17.15234375)"/><use xlink:href="#f" transform="matrix(1,0,0,1,1091.1170903533798,167.1134740943187) translate(64.810546875 17.15234375)"/><use xlink:href="#am" transform="matrix(1,0,0,1,1091.1170903533798,167.1134740943187) translate(73.9599609375 17.15234375)"/></g><path d="M1042.47 236.95h249.73v31.1h-249.73z" fill="none"/><g><use xlink:href="#an" transform="matrix(1,0,0,1,1047.4750005096298,241.95398933751136) translate(0 17.15234375)"/><use xlink:href="#ao" transform="matrix(1,0,0,1,1047.4750005096298,241.95398933751136) translate(62.1826171875 17.15234375)"/><use xlink:href="#ap" transform="matrix(1,0,0,1,1047.4750005096298,241.95398933751136) translate(129.9287109375 17.15234375)"/><use xlink:href="#aq" transform="matrix(1,0,0,1,1047.4750005096298,241.95398933751136) translate(150.3544921875 17.15234375)"/><use xlink:href="#ar" transform="matrix(1,0,0,1,1047.4750005096298,241.95398933751136) translate(184.78125 17.15234375)"/></g><path d="M1309.9 166.98h24.32" stroke="#667eea" stroke-width="4" fill="none"/><path d="M1309.95 168.95h-2.06V165h2.05z" stroke="#667eea" stroke-width=".05" fill="#667eea"/><path d="M1350.47 166.98l-14.26 4.63v-9.26z" stroke="#667eea" stroke-width="4" fill="#667eea"/><defs><linearGradient gradientUnits="userSpaceOnUse" id="a" x1="287.92" y1="47.97" x2="287.92" y2="285.98"><stop offset="0%" stop-color="#1a936f"/><stop offset="100%" stop-color="#0d654b"/></linearGradient><path fill="#fff" d="M952-300H426L326 0H7l542-1456h278L1372 0h-319zM507-543h364l-183-545" id="as"/><path fill="#fff" d="M658-217c127 0 227-49 227-165 0-57-21-98-60-130-79-64-370-142-463-196-162-95-248-210-248-361 0-280 246-403 537-407 213-3 383 84 467 216 45 69 68 147 68 234H886c0-139-96-211-240-211-129 0-232 55-232 169 0 47 24 87 72 119s117 62 210 90c171 51 295 115 373 191s117 171 117 284c-2 272-237 411-528 404C331 13 78-135 69-458h301c0 161 96 241 288 241" id="at"/><path fill="#fff" d="M522-1456L896-400l372-1056h394V0h-301c-7-379 15-728 30-1085L998 0H792L400-1084c15 357 37 705 30 1084H130v-1456h392" id="au"/><g id="b"><use transform="matrix(0.010850694444444444,0,0,0.010850694444444444,0,0)" xlink:href="#as"/><use transform="matrix(0.010850694444444444,0,0,0.010850694444444444,14.952256944444445,0)" xlink:href="#at"/><use transform="matrix(0.010850694444444444,0,0,0.010850694444444444,28.61328125,0)" xlink:href="#au"/></g><path fill="#fff" d="M579 20C257 20 58-214 66-551c8-331 182-551 511-551 324 0 514 231 514 572 0 319-198 550-512 550zm-2-888c-169 0-222 141-222 338 0 181 61 317 224 317 170 0 223-137 223-338 0-178-64-317-225-317" id="av"/><path fill="#fff" d="M463 20c-241-1-359-147-359-393v-709h289v699c0 113 51 169 154 169 98 0 165-34 202-102v-766h290V0H767l-8-110C688-23 589 20 463 20" id="aw"/><path fill="#fff" d="M719-811c-143-24-279 1-319 103V0H111v-1082h273l8 129c74-124 180-175 331-136" id="ax"/><path fill="#fff" d="M355-556c-2 203 30 338 206 343 102 3 181-63 182-161h271C1001-128 821 17 566 20 242 24 66-212 66-554c0-320 184-548 498-548 262 0 451 167 450 423H743c-1-108-75-193-184-189-162 6-202 123-204 312" id="ay"/><path fill="#fff" d="M1031-175C952-60 797 20 609 20 287 20 60-206 72-543c12-330 180-559 505-559 309 0 482 214 477 537v118H365c15 134 115 234 263 234 111 0 198-40 261-121zM770-644c5-139-62-226-194-224-130 1-191 97-208 224h402" id="az"/><path fill="#fff" d="M529-185c94 0 168-33 168-114 0-35-18-63-53-83s-91-39-168-55C219-491 90-600 90-765c0-208 203-337 432-337 246 0 451 124 453 349H686c-2-91-62-143-165-143-86 0-151 41-153 117 0 32 16 57 46 77 63 43 257 69 335 100 151 60 229 153 229 291C978-13 554 93 282-28 162-81 60-190 56-344h274c5 106 86 159 199 159" id="aA"/><g id="c"><use transform="matrix(0.010850694444444444,0,0,0.010850694444444444,0,0)" xlink:href="#at"/><use transform="matrix(0.010850694444444444,0,0,0.010850694444444444,13.661024305555555,0)" xlink:href="#av"/><use transform="matrix(0.010850694444444444,0,0,0.010850694444444444,26.22612847222222,0)" xlink:href="#aw"/><use transform="matrix(0.010850694444444444,0,0,0.010850694444444444,38.66102430555556,0)" xlink:href="#ax"/><use transform="matrix(0.010850694444444444,0,0,0.010850694444444444,46.56032986111111,0)" xlink:href="#ay"/><use transform="matrix(0.010850694444444444,0,0,0.010850694444444444,58.14887152777778,0)" xlink:href="#az"/><use transform="matrix(0.010850694444444444,0,0,0.010850694444444444,70.16059027777777,0)" xlink:href="#aA"/></g><path fill="#c6dabf" d="M538-131c121 0 232-49 232-156 0-50-20-88-56-117-73-60-334-92-420-143-92-55-162-110-162-238 0-190 192-317 400-317 223 0 414 129 413 338H759c0-108-110-186-227-186-119 0-215 53-215 159 0 45 18 78 53 101 76 52 331 90 416 139 98 57 169 115 169 251C955-92 760 20 538 20c-176 0-314-68-386-174-38-55-57-115-57-179h185c6 129 116 202 258 202" id="aB"/><path fill="#c6dabf" d="M663-916c-163-27-288 18-338 148V0H140v-1082h180l3 125c61-97 147-145 258-145 36 0 63 5 82 14v172" id="aC"/><path fill="#c6dabf" d="M277-555c0 244 77 420 297 424 127 2 249-93 255-210h175C980-127 805 20 574 20 258 20 81-222 92-562c11-319 164-533 481-540 237-5 426 165 431 392H829c-7-133-115-242-256-240-209 4-296 166-296 395" id="aD"/><path fill="#c6dabf" d="M177 125H18l608-1581h158" id="aE"/><path fill="#c6dabf" d="M561-1102c238-4 403 126 403 351v498c0 99 13 178 38 237V0H808c-11-21-19-59-26-114C696-25 593 20 474 20c-199 0-368-130-365-320 4-251 214-359 490-356h180v-85c-1-135-86-212-229-212-115 0-232 67-233 171H131c20-205 206-316 430-320zM294-326c0 117 90 185 207 185 122 0 239-75 278-162v-222H634c-227 0-340 66-340 199" id="aF"/><path fill="#c6dabf" d="M1240-945c-141 0-250 95-250 227V0H804v-709c0-157-77-236-231-236-121 0-204 52-249 155V0H139v-1082h175l5 120c79-93 186-140 321-140 151 0 254 58 309 174 69-98 181-174 345-174 237 0 362 126 362 377V0h-185v-714c-2-159-67-231-231-231" id="aG"/><g id="d"><use transform="matrix(0.0087890625,0,0,0.0087890625,0,0)" xlink:href="#aB"/><use transform="matrix(0.0087890625,0,0,0.0087890625,9.28125,0)" xlink:href="#aC"/><use transform="matrix(0.0087890625,0,0,0.0087890625,15.205078125,0)" xlink:href="#aD"/><use transform="matrix(0.0087890625,0,0,0.0087890625,24.626953125,0)" xlink:href="#aE"/><use transform="matrix(0.0087890625,0,0,0.0087890625,32.044921875,0)" xlink:href="#aF"/><use transform="matrix(0.0087890625,0,0,0.0087890625,41.8359375,0)" xlink:href="#aB"/><use transform="matrix(0.0087890625,0,0,0.0087890625,51.1171875,0)" xlink:href="#aG"/><use transform="matrix(0.0087890625,0,0,0.0087890625,66.8935546875,0)" xlink:href="#aE"/></g><path fill="#fff" d="M538-131c121 0 232-49 232-156 0-50-20-88-56-117-73-60-334-92-420-143-92-55-162-110-162-238 0-190 192-317 400-317 223 0 414 129 413 338H759c0-108-110-186-227-186-119 0-215 53-215 159 0 45 18 78 53 101 76 52 331 90 416 139 98 57 169 115 169 251C955-92 760 20 538 20c-176 0-314-68-386-174-38-55-57-115-57-179h185c6 129 116 202 258 202" id="aH"/><path fill="#fff" d="M599-131c141 0 220-65 285-146l113 88C906-50 770 20 589 20 281 21 93-214 93-545c0-223 93-397 233-485 74-48 154-72 240-72 300 2 449 218 445 537v77H278c0 197 129 357 321 357zm227-509c-3-180-88-310-260-310-170 0-264 140-282 310h542" id="aI"/><path fill="#fff" d="M663-916c-163-27-288 18-338 148V0H140v-1082h180l3 125c61-97 147-145 258-145 36 0 63 5 82 14v172" id="aJ"/><path fill="#fff" d="M632-1102c291 0 422 251 422 573 0 297-141 548-419 549-131 0-235-42-310-125v521H140v-1498h169l9 120c75-93 180-140 314-140zm-53 971c207 0 290-180 290-419 0-218-92-395-292-395-112 0-196 50-252 149v517c55 99 140 148 254 148" id="aK"/><path fill="#fff" d="M589-945c-131 0-219 81-264 174V0H140v-1082h175l6 136c83-104 191-156 324-156 229 0 346 129 346 387V0H806v-716c-2-153-65-229-217-229" id="aL"/><path fill="#fff" d="M456 20C285 20 205-92 206-268v-671H9v-143h197v-262h185v262h202v143H391v671c-9 125 92 149 207 118V0c-49 13-96 20-142 20" id="aM"/><g id="e"><use transform="matrix(0.0087890625,0,0,0.0087890625,0,0)" xlink:href="#aH"/><use transform="matrix(0.0087890625,0,0,0.0087890625,9.28125,0)" xlink:href="#aI"/><use transform="matrix(0.0087890625,0,0,0.0087890625,18.8173828125,0)" xlink:href="#aJ"/><use transform="matrix(0.0087890625,0,0,0.0087890625,24.908203125,0)" xlink:href="#aK"/><use transform="matrix(0.0087890625,0,0,0.0087890625,35.0068359375,0)" xlink:href="#aI"/><use transform="matrix(0.0087890625,0,0,0.0087890625,44.54296875,0)" xlink:href="#aL"/><use transform="matrix(0.0087890625,0,0,0.0087890625,54.474609375,0)" xlink:href="#aM"/></g><path fill="#fff" d="M261-619c-71 0-114-44-114-110 0-67 42-112 114-112s116 45 116 112c0 66-45 110-116 110" id="aN"/><use transform="matrix(0.0087890625,0,0,0.0087890625,0,0)" xlink:href="#aN" id="f"/><path fill="#fff" d="M277-555c0 244 77 420 297 424 127 2 249-93 255-210h175C980-127 805 20 574 20 258 20 81-222 92-562c11-319 164-533 481-540 237-5 426 165 431 392H829c-7-133-115-242-256-240-209 4-296 166-296 395" id="aO"/><path fill="#fff" d="M589-945c-131 0-219 81-264 174V0H140v-1536h185v585c82-101 189-151 320-151 229 0 346 129 346 387V0H806v-716c-2-153-65-229-217-229" id="aP"/><path fill="#fff" d="M561-1102c238-4 403 126 403 351v498c0 99 13 178 38 237V0H808c-11-21-19-59-26-114C696-25 593 20 474 20c-199 0-368-130-365-320 4-251 214-359 490-356h180v-85c-1-135-86-212-229-212-115 0-232 67-233 171H131c20-205 206-316 430-320zM294-326c0 117 90 185 207 185 122 0 239-75 278-162v-222H634c-227 0-340 66-340 199" id="aQ"/><path fill="#fff" d="M569-1476c255 0 440 146 439 390 0 143-91 314-274 512L344-151h731V0H121v-133l504-560c75-85 125-155 155-207 105-184 6-424-211-424-183 0-293 113-291 297H93c-3-270 199-449 476-449" id="aR"/><path fill="#fff" d="M574-1476c351 0 454 237 460 615v240c0 217-37 378-111 483S733 20 576 20c-346 0-454-246-461-616v-247c0-214 37-373 111-477s190-156 348-156zm275 905c0-337 59-752-275-753-95 0-160 38-207 107-80 118-66 409-67 625 0 157 22 273 68 348s115 113 208 113c91 0 160-35 204-106s69-182 69-334" id="aS"/><g id="g"><use transform="matrix(0.0087890625,0,0,0.0087890625,0,0)" xlink:href="#aO"/><use transform="matrix(0.0087890625,0,0,0.0087890625,9.421875,0)" xlink:href="#aP"/><use transform="matrix(0.0087890625,0,0,0.0087890625,19.3359375,0)" xlink:href="#aQ"/><use transform="matrix(0.0087890625,0,0,0.0087890625,29.126953125,0)" xlink:href="#aO"/><use transform="matrix(0.0087890625,0,0,0.0087890625,38.548828125,0)" xlink:href="#aP"/><use transform="matrix(0.0087890625,0,0,0.0087890625,48.462890625,0)" xlink:href="#aQ"/><use transform="matrix(0.0087890625,0,0,0.0087890625,58.25390625,0)" xlink:href="#aR"/><use transform="matrix(0.0087890625,0,0,0.0087890625,68.361328125,0)" xlink:href="#aS"/></g><g id="h"><use transform="matrix(0.0087890625,0,0,0.0087890625,0,0)" xlink:href="#aH"/><use transform="matrix(0.0087890625,0,0,0.0087890625,9.28125,0)" xlink:href="#aP"/><use transform="matrix(0.0087890625,0,0,0.0087890625,19.1953125,0)" xlink:href="#aQ"/><use transform="matrix(0.0087890625,0,0,0.0087890625,28.986328125,0)" xlink:href="#aR"/></g><path fill="#fff" d="M832-402c-1-179-119-264-303-265H390v-151h139c164 0 281-91 281-250 0-171-85-256-255-256-154 0-265 99-263 250H107c-4-235 205-402 448-402 266 0 444 150 440 412-2 148-109 272-229 317 147 45 249 158 251 341 3 262-197 426-461 426C299 20 91-135 94-384h186c-2 156 116 253 276 253 176 0 277-96 276-271" id="aT"/><g id="i"><use transform="matrix(0.0087890625,0,0,0.0087890625,0,0)" xlink:href="#aH"/><use transform="matrix(0.0087890625,0,0,0.0087890625,9.28125,0)" xlink:href="#aP"/><use transform="matrix(0.0087890625,0,0,0.0087890625,19.1953125,0)" xlink:href="#aQ"/><use transform="matrix(0.0087890625,0,0,0.0087890625,28.986328125,0)" xlink:href="#aT"/></g><path fill="#fff" d="M442-501L326-380V0H141v-1536h185v929c135-169 291-317 436-475h225L566-630 1036 0H819" id="aU"/><path fill="#fff" d="M494-271l252-811h198L509 167C425 381 299 474 84 421V271c167 16 242-37 283-173l41-110L22-1082h202" id="aV"/><path fill="#fff" d="M634-1102c292 0 422 254 422 573 0 298-143 547-420 549-137 0-242-48-317-145L310 0H140v-1536h185v573c75-93 178-139 309-139zm-44 965c207 0 281-175 281-413 0-224-79-395-283-395-122 0-210 57-263 170v468c57 113 145 170 265 170" id="aW"/><g id="j"><use transform="matrix(0.0087890625,0,0,0.0087890625,0,0)" xlink:href="#aU"/><use transform="matrix(0.0087890625,0,0,0.0087890625,9.123046875,0)" xlink:href="#aV"/><use transform="matrix(0.0087890625,0,0,0.0087890625,17.6396484375,0)" xlink:href="#aW"/><use transform="matrix(0.0087890625,0,0,0.0087890625,27.73828125,0)" xlink:href="#aI"/><use transform="matrix(0.0087890625,0,0,0.0087890625,37.2744140625,0)" xlink:href="#aJ"/></g><g id="k"><use transform="matrix(0.0087890625,0,0,0.0087890625,0,0)" xlink:href="#aO"/><use transform="matrix(0.0087890625,0,0,0.0087890625,9.421875,0)" xlink:href="#aM"/></g><path fill="#fff" d="M973-380H363L226 0H28l556-1456h168L1309 0h-197zM421-538h495l-248-681" id="aX"/><path fill="#fff" d="M1240-945c-141 0-250 95-250 227V0H804v-709c0-157-77-236-231-236-121 0-204 52-249 155V0H139v-1082h175l5 120c79-93 186-140 321-140 151 0 254 58 309 174 69-98 181-174 345-174 237 0 362 126 362 377V0h-185v-714c-2-159-67-231-231-231" id="aY"/><path fill="#fff" d="M341 0H156v-1536h185V0" id="aZ"/><path fill="#fff" d="M631-137c179 0 314-70 314-231 0-71-25-127-75-166s-141-77-272-115c-165-47-285-106-360-175s-112-154-112-255c0-245 231-397 495-397 206 0 369 89 449 218 43 68 65 142 65 223H942c0-184-129-283-321-283-172 0-299 76-301 236 0 59 26 109 76 150s135 78 256 113c205 59 345 116 436 256 35 53 50 119 50 193-2 256-231 398-507 390C333 12 90-129 80-422h193c0 187 160 285 358 285" id="ba"/><path fill="#fff" d="M341 0H156v-1082h185V0zm-91-1264c-68 0-108-42-109-105 0-62 41-107 109-107s110 44 110 107-42 105-110 105" id="bb"/><g id="l"><use transform="matrix(0.0087890625,0,0,0.0087890625,0,0)" xlink:href="#aX"/><use transform="matrix(0.0087890625,0,0,0.0087890625,11.7421875,0)" xlink:href="#aH"/><use transform="matrix(0.0087890625,0,0,0.0087890625,21.0234375,0)" xlink:href="#aH"/><use transform="matrix(0.0087890625,0,0,0.0087890625,30.3046875,0)" xlink:href="#aI"/><use transform="matrix(0.0087890625,0,0,0.0087890625,39.8408203125,0)" xlink:href="#aY"/><use transform="matrix(0.0087890625,0,0,0.0087890625,55.6171875,0)" xlink:href="#aW"/><use transform="matrix(0.0087890625,0,0,0.0087890625,65.7158203125,0)" xlink:href="#aZ"/><use transform="matrix(0.0087890625,0,0,0.0087890625,70.083984375,0)" xlink:href="#aV"/><use transform="matrix(0.0087890625,0,0,0.0087890625,78.6005859375,0)" xlink:href="#ba"/><use transform="matrix(0.0087890625,0,0,0.0087890625,89.279296875,0)" xlink:href="#aO"/><use transform="matrix(0.0087890625,0,0,0.0087890625,98.701171875,0)" xlink:href="#aJ"/><use transform="matrix(0.0087890625,0,0,0.0087890625,104.7919921875,0)" xlink:href="#bb"/><use transform="matrix(0.0087890625,0,0,0.0087890625,109.16015625,0)" xlink:href="#aK"/><use transform="matrix(0.0087890625,0,0,0.0087890625,119.2587890625,0)" xlink:href="#aM"/></g><path fill="#fff" d="M584 20C278 26 81-227 91-551c10-320 175-545 491-551 308-5 503 247 494 573-9 322-175 543-492 549zm-2-970c-208 0-305 185-305 421 0 216 106 398 307 398 211 0 307-186 307-420 0-214-109-399-309-399" id="bc"/><path fill="#fff" d="M520 20C244 20 95-247 95-550c0-298 151-550 427-552 127 0 227 43 301 130v-564h185V0H838l-9-116C755-25 652 20 520 20zm48-965c-210 0-288 177-288 416 0 218 87 392 286 392 117 0 203-53 257-158v-497c-55-102-140-153-255-153" id="bd"/><path fill="#fff" d="M491 20c-241-1-355-148-355-398v-704h185v699c0 164 67 246 200 246 141 0 235-53 282-158v-787h185V0H812l-4-107C736-22 630 20 491 20" id="be"/><g id="m"><use transform="matrix(0.0087890625,0,0,0.0087890625,0,0)" xlink:href="#aY"/><use transform="matrix(0.0087890625,0,0,0.0087890625,15.7763671875,0)" xlink:href="#bc"/><use transform="matrix(0.0087890625,0,0,0.0087890625,26.0419921875,0)" xlink:href="#bd"/><use transform="matrix(0.0087890625,0,0,0.0087890625,36.193359375,0)" xlink:href="#be"/><use transform="matrix(0.0087890625,0,0,0.0087890625,46.1162109375,0)" xlink:href="#aZ"/><use transform="matrix(0.0087890625,0,0,0.0087890625,50.484375,0)" xlink:href="#aI"/><use transform="matrix(0.0087890625,0,0,0.0087890625,60.0205078125,0)" xlink:href="#aH"/></g><linearGradient gradientUnits="userSpaceOnUse" id="n" x1="623.38" y1="47.97" x2="623.38" y2="285.98"><stop offset=".72%" stop-color="#1c7293"/><stop offset="100%" stop-color="#114b5f"/></linearGradient><path fill="#fff" d="M1264-420l196-1036h299L1436 0h-302L897-974 660 0H358L35-1456h299L531-422l240-1034h254" id="bf"/><g id="o"><use transform="matrix(0.010850694444444444,0,0,0.010850694444444444,0,0)" xlink:href="#bf"/><use transform="matrix(0.010850694444444444,0,0,0.010850694444444444,18.96701388888889,0)" xlink:href="#as"/><use transform="matrix(0.010850694444444444,0,0,0.010850694444444444,33.919270833333336,0)" xlink:href="#at"/><use transform="matrix(0.010850694444444444,0,0,0.010850694444444444,47.5802951388889,0)" xlink:href="#au"/></g><path fill="#fff" d="M1212-428C1211-131 1004 0 696 0H130v-1456h510c318-1 539 108 539 399 0 155-89 264-208 308 141 33 242 151 241 321zM687-241c132 2 225-65 225-190 0-133-69-203-207-203H430v393h257zm192-786c0-145-86-186-239-186H430v367h222c151-3 227-63 227-181" id="bg"/><path fill="#fff" d="M416 0H126v-1082h290V0zM271-1212c-92 0-162-61-162-150s68-149 162-149c93 0 162 60 162 149s-70 150-162 150" id="bh"/><path fill="#fff" d="M750-692c-1-124-48-174-173-175-81 0-142 35-183 104V0H105v-1082h272l9 125c77-97 181-145 311-145 244 0 342 151 342 403V0H750v-692" id="bi"/><path fill="#fff" d="M552-1102c254-4 435 134 435 383v469c1 103 15 180 43 233V0H738c-13-26-23-58-29-97C639-19 548 20 436 20 238 20 64-113 68-304c5-258 212-357 496-357h133c11-137-29-227-160-227-90 0-156 45-156 131H92c15-231 213-342 460-345zM357-325c0 76 61 124 142 124 88 0 168-45 198-105v-186H589c-152 2-232 51-232 167" id="bj"/><g id="p"><use transform="matrix(0.010850694444444444,0,0,0.010850694444444444,0,0)" xlink:href="#bg"/><use transform="matrix(0.010850694444444444,0,0,0.010850694444444444,14.181857638888888,0)" xlink:href="#bh"/><use transform="matrix(0.010850694444444444,0,0,0.010850694444444444,20.07378472222222,0)" xlink:href="#bi"/><use transform="matrix(0.010850694444444444,0,0,0.010850694444444444,32.51953125,0)" xlink:href="#bj"/><use transform="matrix(0.010850694444444444,0,0,0.010850694444444444,44.43359375,0)" xlink:href="#ax"/><use transform="matrix(0.010850694444444444,0,0,0.010850694444444444,52.5390625,0)" xlink:href="#bh"/><use transform="matrix(0.010850694444444444,0,0,0.010850694444444444,58.43098958333333,0)" xlink:href="#az"/><use transform="matrix(0.010850694444444444,0,0,0.010850694444444444,70.44270833333334,0)" xlink:href="#aA"/></g><path fill="#c6dabf" d="M634-1102c292 0 422 254 422 573 0 298-143 547-420 549-137 0-242-48-317-145L310 0H140v-1536h185v573c75-93 178-139 309-139zm-44 965c207 0 281-175 281-413 0-224-79-395-283-395-122 0-210 57-263 170v468c57 113 145 170 265 170" id="bk"/><path fill="#c6dabf" d="M491 20c-241-1-355-148-355-398v-704h185v699c0 164 67 246 200 246 141 0 235-53 282-158v-787h185V0H812l-4-107C736-22 630 20 491 20" id="bl"/><path fill="#c6dabf" d="M341 0H156v-1082h185V0zm-91-1264c-68 0-108-42-109-105 0-62 41-107 109-107s110 44 110 107-42 105-110 105" id="bm"/><path fill="#c6dabf" d="M341 0H156v-1536h185V0" id="bn"/><path fill="#c6dabf" d="M520 20C244 20 95-247 95-550c0-298 151-550 427-552 127 0 227 43 301 130v-564h185V0H838l-9-116C755-25 652 20 520 20zm48-965c-210 0-288 177-288 416 0 218 87 392 286 392 117 0 203-53 257-158v-497c-55-102-140-153-255-153" id="bo"/><g id="q"><use transform="matrix(0.0087890625,0,0,0.0087890625,0,0)" xlink:href="#bk"/><use transform="matrix(0.0087890625,0,0,0.0087890625,10.0986328125,0)" xlink:href="#bl"/><use transform="matrix(0.0087890625,0,0,0.0087890625,20.021484375,0)" xlink:href="#bm"/><use transform="matrix(0.0087890625,0,0,0.0087890625,24.3896484375,0)" xlink:href="#bn"/><use transform="matrix(0.0087890625,0,0,0.0087890625,28.7578125,0)" xlink:href="#bo"/><use transform="matrix(0.0087890625,0,0,0.0087890625,38.9091796875,0)" xlink:href="#aE"/></g><path fill="#fff" d="M258 11c-71 0-114-43-114-108 0-67 42-112 114-112s116 45 116 112c-1 65-45 108-116 108" id="bp"/><path fill="#fff" d="M1098-255l208-827h185L1176 0h-150L763-820 507 0H357L43-1082h184l213 810 252-810h149" id="bq"/><g id="r"><use transform="matrix(0.0087890625,0,0,0.0087890625,0,0)" xlink:href="#bp"/><use transform="matrix(0.0087890625,0,0,0.0087890625,4.7373046875,0)" xlink:href="#bq"/><use transform="matrix(0.0087890625,0,0,0.0087890625,18.263671875,0)" xlink:href="#aQ"/><use transform="matrix(0.0087890625,0,0,0.0087890625,28.0546875,0)" xlink:href="#aH"/><use transform="matrix(0.0087890625,0,0,0.0087890625,37.3359375,0)" xlink:href="#aY"/></g><g id="s"><use transform="matrix(0.0087890625,0,0,0.0087890625,0,0)" xlink:href="#aW"/><use transform="matrix(0.0087890625,0,0,0.0087890625,10.0986328125,0)" xlink:href="#bb"/><use transform="matrix(0.0087890625,0,0,0.0087890625,14.466796875,0)" xlink:href="#aL"/><use transform="matrix(0.0087890625,0,0,0.0087890625,24.3984375,0)" xlink:href="#aQ"/><use transform="matrix(0.0087890625,0,0,0.0087890625,34.189453125,0)" xlink:href="#aJ"/><use transform="matrix(0.0087890625,0,0,0.0087890625,40.2802734375,0)" xlink:href="#bb"/><use transform="matrix(0.0087890625,0,0,0.0087890625,44.6484375,0)" xlink:href="#aI"/><use transform="matrix(0.0087890625,0,0,0.0087890625,54.1845703125,0)" xlink:href="#aH"/></g><linearGradient gradientUnits="userSpaceOnUse" id="t" x1="965.64" y1="47.97" x2="965.64" y2="285.98"><stop offset=".72%" stop-color="#016361"/><stop offset="100%" stop-color="#114b5f"/></linearGradient><path fill="#fff" d="M1006-631H430v390h676V0H130v-1456h974v243H430v347h576v235" id="br"/><path fill="#fff" d="M741-689c-2-124-40-177-163-178-82 0-141 34-178 102V0H111v-1082h271l9 121c77-94 180-141 311-141 139 0 235 55 287 165 76-110 184-165 325-165 249 0 348 151 348 411V0h-290v-690c-2-123-39-176-163-177-87 0-147 41-180 124l1 743H741v-689" id="bs"/><path fill="#fff" d="M663-1102c295 0 423 246 423 571 0 313-131 551-421 551-117 0-211-45-281-135L371 0H111v-1536h289v551c67-78 154-117 263-117zm-71 889c164 0 209-139 205-339-3-189-44-315-207-315-92 0-155 38-190 113v427c35 76 99 114 192 114" id="bt"/><path fill="#fff" d="M488 20C204 20 66-234 66-549c0-305 140-551 424-553 105 0 192 39 261 118v-552h290V0H780l-14-115C694-25 601 20 488 20zM355-528c0 176 51 314 207 314 89 0 152-38 189-113v-427c-36-75-98-113-187-113-139 0-209 113-209 339" id="bu"/><g id="u"><use transform="matrix(0.010850694444444444,0,0,0.010850694444444444,0,0)" xlink:href="#br"/><use transform="matrix(0.010850694444444444,0,0,0.010850694444444444,12.5,0)" xlink:href="#bs"/><use transform="matrix(0.010850694444444444,0,0,0.010850694444444444,31.73828125,0)" xlink:href="#bt"/><use transform="matrix(0.010850694444444444,0,0,0.010850694444444444,44.24913194444444,0)" xlink:href="#az"/><use transform="matrix(0.010850694444444444,0,0,0.010850694444444444,56.26085069444444,0)" xlink:href="#bu"/><use transform="matrix(0.010850694444444444,0,0,0.010850694444444444,68.78255208333333,0)" xlink:href="#bu"/><use transform="matrix(0.010850694444444444,0,0,0.010850694444444444,81.30425347222221,0)" xlink:href="#az"/><use transform="matrix(0.010850694444444444,0,0,0.010850694444444444,93.31597222222221,0)" xlink:href="#bu"/></g><path fill="#fff" d="M1226-1213H780V0H480v-1213H40v-243h1186v243" id="bv"/><g id="v"><use transform="matrix(0.010850694444444444,0,0,0.010850694444444444,0,0)" xlink:href="#bv"/><use transform="matrix(0.010850694444444444,0,0,0.010850694444444444,13.57421875,0)" xlink:href="#at"/></g><path fill="#c6dabf" d="M456 20C285 20 205-92 206-268v-671H9v-143h197v-262h185v262h202v143H391v671c-9 125 92 149 207 118V0c-49 13-96 20-142 20" id="bw"/><path fill="#c6dabf" d="M599-131c141 0 220-65 285-146l113 88C906-50 770 20 589 20 281 21 93-214 93-545c0-223 93-397 233-485 74-48 154-72 240-72 300 2 449 218 445 537v77H278c0 197 129 357 321 357zm227-509c-3-180-88-310-260-310-170 0-264 140-282 310h542" id="bx"/><g id="w"><use transform="matrix(0.0087890625,0,0,0.0087890625,0,0)" xlink:href="#aB"/><use transform="matrix(0.0087890625,0,0,0.0087890625,9.28125,0)" xlink:href="#aC"/><use transform="matrix(0.0087890625,0,0,0.0087890625,15.205078125,0)" xlink:href="#aD"/><use transform="matrix(0.0087890625,0,0,0.0087890625,24.626953125,0)" xlink:href="#aE"/><use transform="matrix(0.0087890625,0,0,0.0087890625,32.044921875,0)" xlink:href="#bw"/><use transform="matrix(0.0087890625,0,0,0.0087890625,37.9248046875,0)" xlink:href="#aB"/><use transform="matrix(0.0087890625,0,0,0.0087890625,47.2060546875,0)" xlink:href="#aE"/><use transform="matrix(0.0087890625,0,0,0.0087890625,54.6240234375,0)" xlink:href="#bx"/><use transform="matrix(0.0087890625,0,0,0.0087890625,64.16015625,0)" xlink:href="#aG"/><use transform="matrix(0.0087890625,0,0,0.0087890625,79.9365234375,0)" xlink:href="#bk"/><use transform="matrix(0.0087890625,0,0,0.0087890625,90.03515625,0)" xlink:href="#bx"/><use transform="matrix(0.0087890625,0,0,0.0087890625,99.5712890625,0)" xlink:href="#bo"/><use transform="matrix(0.0087890625,0,0,0.0087890625,109.72265625,0)" xlink:href="#bo"/><use transform="matrix(0.0087890625,0,0,0.0087890625,119.8740234375,0)" xlink:href="#bx"/><use transform="matrix(0.0087890625,0,0,0.0087890625,129.41015625,0)" xlink:href="#bo"/><use transform="matrix(0.0087890625,0,0,0.0087890625,139.5615234375,0)" xlink:href="#aE"/></g><g id="x"><use transform="matrix(0.007595486111111111,0,0,0.007595486111111111,0,0)" xlink:href="#bf"/><use transform="matrix(0.007595486111111111,0,0,0.007595486111111111,13.276909722222221,0)" xlink:href="#as"/><use transform="matrix(0.007595486111111111,0,0,0.007595486111111111,23.743489583333332,0)" xlink:href="#at"/><use transform="matrix(0.007595486111111111,0,0,0.007595486111111111,33.30620659722222,0)" xlink:href="#au"/></g><g id="y"><use transform="matrix(0.007595486111111111,0,0,0.007595486111111111,0,0)" xlink:href="#bj"/><use transform="matrix(0.007595486111111111,0,0,0.007595486111111111,8.33984375,0)" xlink:href="#aA"/></g><path fill="#fff" d="M613 20c-318 5-513-255-513-587 0-383 107-664 346-803 125-73 262-106 437-101v238c-277-7-455 136-487 377 77-79 175-118 293-118 264-2 420 219 414 494-7 301-189 495-490 500zm202-497c0-145-76-266-214-265-99 0-180 60-211 133v88c-2 170 63 306 217 308 132 2 208-123 208-264" id="by"/><path fill="#fff" d="M954-548h165v233H954V0H665v-315H68L55-497l607-959h292v908zm-611 0h322v-514C560-888 450-720 343-548" id="bz"/><g id="z"><use transform="matrix(0.007595486111111111,0,0,0.007595486111111111,0,0)" xlink:href="#bt"/><use transform="matrix(0.007595486111111111,0,0,0.007595486111111111,8.75759548611111,0)" xlink:href="#bj"/><use transform="matrix(0.007595486111111111,0,0,0.007595486111111111,17.09743923611111,0)" xlink:href="#aA"/><use transform="matrix(0.007595486111111111,0,0,0.007595486111111111,25.09548611111111,0)" xlink:href="#az"/><use transform="matrix(0.007595486111111111,0,0,0.007595486111111111,33.503689236111114,0)" xlink:href="#by"/><use transform="matrix(0.007595486111111111,0,0,0.007595486111111111,42.42838541666667,0)" xlink:href="#bz"/></g><path fill="#fff" d="M884-462c0-185-111-323-291-323-113 0-183 39-239 93l-148-38 74-726h746v171H437l-44 397c71-42 152-63 243-63 273-2 433 205 433 487 0 293-170 484-461 484-260 0-436-159-454-403h175c20 156 111 252 279 252 182 0 276-140 276-331" id="bA"/><use transform="matrix(0.007595486111111111,0,0,0.007595486111111111,0,0)" xlink:href="#bA" id="A"/><g id="B"><use transform="matrix(0.007595486111111111,0,0,0.007595486111111111,0,0)" xlink:href="#aY"/><use transform="matrix(0.007595486111111111,0,0,0.007595486111111111,13.633897569444445,0)" xlink:href="#bc"/><use transform="matrix(0.007595486111111111,0,0,0.007595486111111111,22.50542534722222,0)" xlink:href="#bd"/><use transform="matrix(0.007595486111111111,0,0,0.007595486111111111,31.278211805555554,0)" xlink:href="#be"/><use transform="matrix(0.007595486111111111,0,0,0.007595486111111111,39.853515625,0)" xlink:href="#aZ"/><use transform="matrix(0.007595486111111111,0,0,0.007595486111111111,43.62847222222222,0)" xlink:href="#aI"/><use transform="matrix(0.007595486111111111,0,0,0.007595486111111111,51.86957465277778,0)" xlink:href="#aH"/></g><path fill="#fff" d="M521 20C240 20 96-239 96-550c0-303 147-552 427-552 132 0 235 47 309 140l9-120h169V-26c4 277-183 454-459 452-165-1-334-81-400-187l96-111c79 98 176 147 291 147 180 1 288-109 286-290v-93C750-23 649 20 521 20zm48-965c-209 0-287 178-287 416 0 217 86 392 285 392 117 0 202-53 257-159v-494c-57-103-142-155-255-155" id="bB"/><g id="C"><use transform="matrix(0.0087890625,0,0,0.0087890625,0,0)" xlink:href="#bp"/><use transform="matrix(0.0087890625,0,0,0.0087890625,4.7373046875,0)" xlink:href="#bB"/><use transform="matrix(0.0087890625,0,0,0.0087890625,14.8359375,0)" xlink:href="#bb"/><use transform="matrix(0.0087890625,0,0,0.0087890625,19.2041015625,0)" xlink:href="#aM"/><use transform="matrix(0.0087890625,0,0,0.0087890625,25.083984375,0)" xlink:href="#bb"/><use transform="matrix(0.0087890625,0,0,0.0087890625,29.4521484375,0)" xlink:href="#bB"/><use transform="matrix(0.0087890625,0,0,0.0087890625,39.55078125,0)" xlink:href="#aL"/><use transform="matrix(0.0087890625,0,0,0.0087890625,49.482421875,0)" xlink:href="#bc"/><use transform="matrix(0.0087890625,0,0,0.0087890625,59.748046875,0)" xlink:href="#aJ"/><use transform="matrix(0.0087890625,0,0,0.0087890625,65.671875,0)" xlink:href="#aI"/><use transform="matrix(0.0087890625,0,0,0.0087890625,75.2080078125,0)" xlink:href="#bd"/></g><g id="D"><use transform="matrix(0.0087890625,0,0,0.0087890625,0,0)" xlink:href="#aW"/><use transform="matrix(0.0087890625,0,0,0.0087890625,10.0986328125,0)" xlink:href="#be"/><use transform="matrix(0.0087890625,0,0,0.0087890625,20.021484375,0)" xlink:href="#bb"/><use transform="matrix(0.0087890625,0,0,0.0087890625,24.3896484375,0)" xlink:href="#aZ"/><use transform="matrix(0.0087890625,0,0,0.0087890625,28.7578125,0)" xlink:href="#bd"/></g><path fill="#fff" d="M704-1390c-164-38-297 28-288 194v114h231v143H416V0H231v-939H60v-143h171v-111c-12-274 208-416 483-347" id="bC"/><g id="E"><use transform="matrix(0.0087890625,0,0,0.0087890625,0,0)" xlink:href="#aQ"/><use transform="matrix(0.0087890625,0,0,0.0087890625,9.791015625,0)" xlink:href="#aJ"/><use transform="matrix(0.0087890625,0,0,0.0087890625,16.3212890625,0)" xlink:href="#aM"/><use transform="matrix(0.0087890625,0,0,0.0087890625,22.201171875,0)" xlink:href="#bb"/><use transform="matrix(0.0087890625,0,0,0.0087890625,26.5693359375,0)" xlink:href="#bC"/><use transform="matrix(0.0087890625,0,0,0.0087890625,32.818359375,0)" xlink:href="#aQ"/><use transform="matrix(0.0087890625,0,0,0.0087890625,42.609375,0)" xlink:href="#aO"/><use transform="matrix(0.0087890625,0,0,0.0087890625,52.03125,0)" xlink:href="#aM"/><use transform="matrix(0.0087890625,0,0,0.0087890625,57.9111328125,0)" xlink:href="#aH"/></g><path fill="#fff" d="M504-434L400-330V0H111v-1536h289v851c106-137 222-264 333-397h347L689-631 1114 0H782" id="bD"/><g id="F"><use transform="matrix(0.007595486111111111,0,0,0.007595486111111111,0,0)" xlink:href="#bf"/><use transform="matrix(0.007595486111111111,0,0,0.007595486111111111,13.368055555555555,0)" xlink:href="#av"/><use transform="matrix(0.007595486111111111,0,0,0.007595486111111111,22.16362847222222,0)" xlink:href="#ax"/><use transform="matrix(0.007595486111111111,0,0,0.007595486111111111,27.83745659722222,0)" xlink:href="#bD"/><use transform="matrix(0.007595486111111111,0,0,0.007595486111111111,35.99500868055556,0)" xlink:href="#az"/><use transform="matrix(0.007595486111111111,0,0,0.007595486111111111,44.40321180555556,0)" xlink:href="#ax"/><use transform="matrix(0.007595486111111111,0,0,0.007595486111111111,50.07703993055556,0)" xlink:href="#aA"/></g><path fill="#fff" d="M449 0H149v-1456h300V0" id="bE"/><path fill="#fff" d="M1006-595H430V0H130v-1456h948v243H430v376h576v242" id="bF"/><g id="G"><use transform="matrix(0.007595486111111111,0,0,0.007595486111111111,0,0)" xlink:href="#bE"/><use transform="matrix(0.007595486111111111,0,0,0.007595486111111111,4.534505208333333,0)" xlink:href="#bE"/><use transform="matrix(0.007595486111111111,0,0,0.007595486111111111,9.069010416666666,0)" xlink:href="#bF"/><use transform="matrix(0.007595486111111111,0,0,0.007595486111111111,17.591145833333332,0)" xlink:href="#br"/></g><g id="H"><use transform="matrix(0.007595486111111111,0,0,0.007595486111111111,0,0)" xlink:href="#aH"/><use transform="matrix(0.007595486111111111,0,0,0.007595486111111111,8.020833333333334,0)" xlink:href="#aI"/><use transform="matrix(0.007595486111111111,0,0,0.007595486111111111,16.26193576388889,0)" xlink:href="#aJ"/><use transform="matrix(0.007595486111111111,0,0,0.007595486111111111,21.52560763888889,0)" xlink:href="#aK"/><use transform="matrix(0.007595486111111111,0,0,0.007595486111111111,30.252821180555557,0)" xlink:href="#aI"/><use transform="matrix(0.007595486111111111,0,0,0.007595486111111111,38.493923611111114,0)" xlink:href="#aL"/><use transform="matrix(0.007595486111111111,0,0,0.007595486111111111,47.07682291666667,0)" xlink:href="#aM"/></g><use transform="matrix(0.007595486111111111,0,0,0.007595486111111111,0,0)" xlink:href="#aN" id="I"/><g id="J"><use transform="matrix(0.007595486111111111,0,0,0.007595486111111111,0,0)" xlink:href="#aO"/><use transform="matrix(0.007595486111111111,0,0,0.007595486111111111,8.14236111111111,0)" xlink:href="#aP"/><use transform="matrix(0.007595486111111111,0,0,0.007595486111111111,16.710069444444443,0)" xlink:href="#aQ"/><use transform="matrix(0.007595486111111111,0,0,0.007595486111111111,25.17144097222222,0)" xlink:href="#aO"/><use transform="matrix(0.007595486111111111,0,0,0.007595486111111111,33.31380208333333,0)" xlink:href="#aP"/><use transform="matrix(0.007595486111111111,0,0,0.007595486111111111,41.881510416666664,0)" xlink:href="#aQ"/><use transform="matrix(0.007595486111111111,0,0,0.007595486111111111,50.34288194444444,0)" xlink:href="#aR"/><use transform="matrix(0.007595486111111111,0,0,0.007595486111111111,59.07769097222222,0)" xlink:href="#aS"/></g><linearGradient gradientUnits="userSpaceOnUse" id="K" x1="1638.06" y1="47.97" x2="1638.06" y2="285.98"><stop offset="1.81%" stop-color="#e5f4df"/><stop offset="100%" stop-color="#c6dabf"/></linearGradient><path d="M1245-974c0 302-233 466-552 461H430V0H130v-1456h568c323 5 547 167 547 482zm-303 2c1-143-93-241-237-241H430v457h268c151 1 244-71 244-216" id="bG"/><path d="M463 20c-241-1-359-147-359-393v-709h289v699c0 113 51 169 154 169 98 0 165-34 202-102v-766h290V0H767l-8-110C688-23 589 20 463 20" id="bH"/><path d="M663-1102c295 0 423 246 423 571 0 313-131 551-421 551-117 0-211-45-281-135L371 0H111v-1536h289v551c67-78 154-117 263-117zm-71 889c164 0 209-139 205-339-3-189-44-315-207-315-92 0-155 38-190 113v427c35 76 99 114 192 114" id="bI"/><path d="M416 0H126v-1536h290V0" id="bJ"/><path d="M416 0H126v-1082h290V0zM271-1212c-92 0-162-61-162-150s68-149 162-149c93 0 162 60 162 149s-70 150-162 150" id="bK"/><path d="M529-185c94 0 168-33 168-114 0-35-18-63-53-83s-91-39-168-55C219-491 90-600 90-765c0-208 203-337 432-337 246 0 451 124 453 349H686c-2-91-62-143-165-143-86 0-151 41-153 117 0 32 16 57 46 77 63 43 257 69 335 100 151 60 229 153 229 291C978-13 554 93 282-28 162-81 60-190 56-344h274c5 106 86 159 199 159" id="bL"/><path d="M750-685c-1-124-48-182-173-182-85 0-146 33-184 98V0H104v-1536h289v572c77-92 173-138 289-138 235 0 357 136 357 409V0H750v-685" id="bM"/><path d="M1031-175C952-60 797 20 609 20 287 20 60-206 72-543c12-330 180-559 505-559 309 0 482 214 477 537v118H365c15 134 115 234 263 234 111 0 198-40 261-121zM770-644c5-139-62-226-194-224-130 1-191 97-208 224h402" id="bN"/><path d="M488 20C204 20 66-234 66-549c0-305 140-551 424-553 105 0 192 39 261 118v-552h290V0H780l-14-115C694-25 601 20 488 20zM355-528c0 176 51 314 207 314 89 0 152-38 189-113v-427c-36-75-98-113-187-113-139 0-209 113-209 339" id="bO"/><g id="L"><use transform="matrix(0.010850694444444444,0,0,0.010850694444444444,0,0)" xlink:href="#bG"/><use transform="matrix(0.010850694444444444,0,0,0.010850694444444444,14.33376736111111,0)" xlink:href="#bH"/><use transform="matrix(0.010850694444444444,0,0,0.010850694444444444,26.768663194444443,0)" xlink:href="#bI"/><use transform="matrix(0.010850694444444444,0,0,0.010850694444444444,39.279513888888886,0)" xlink:href="#bJ"/><use transform="matrix(0.010850694444444444,0,0,0.010850694444444444,45.17144097222222,0)" xlink:href="#bK"/><use transform="matrix(0.010850694444444444,0,0,0.010850694444444444,51.06336805555556,0)" xlink:href="#bL"/><use transform="matrix(0.010850694444444444,0,0,0.010850694444444444,62.48914930555555,0)" xlink:href="#bM"/><use transform="matrix(0.010850694444444444,0,0,0.010850694444444444,74.92404513888889,0)" xlink:href="#bN"/><use transform="matrix(0.010850694444444444,0,0,0.010850694444444444,86.93576388888889,0)" xlink:href="#bO"/></g><path d="M1248-1138c106 220 104 603 2 820-91 195-274 338-542 338C281 20 86-300 86-759c0-291 115-515 296-629 182-114 467-115 648 0 94 60 166 141 218 250zM940-344c111-153 110-617 0-765-57-77-133-119-234-119s-177 41-233 118c-64 88-83 240-83 415 0 149 27 264 82 346s133 123 236 123c101 0 176-40 232-118" id="bP"/><path d="M457-330c2 83 25 111 111 112 32 0 60-2 85-7V-6c-57 17-115 26-175 26-203 0-310-102-310-307v-583H10v-212h158v-266h289v266h185v212H457v540" id="bQ"/><path d="M663-1102c295 0 422 250 422 571 0 300-141 549-420 551-109 0-198-38-265-114v510H111v-1498h268l10 106c70-84 161-126 274-126zm133 550c0-175-53-315-209-315-91 0-153 35-187 104v443c35 71 98 107 189 107 138 0 207-113 207-339" id="bR"/><g id="M"><use transform="matrix(0.010850694444444444,0,0,0.010850694444444444,0,0)" xlink:href="#bP"/><use transform="matrix(0.010850694444444444,0,0,0.010850694444444444,15.342881944444445,0)" xlink:href="#bH"/><use transform="matrix(0.010850694444444444,0,0,0.010850694444444444,27.77777777777778,0)" xlink:href="#bQ"/><use transform="matrix(0.010850694444444444,0,0,0.010850694444444444,35.286458333333336,0)" xlink:href="#bR"/><use transform="matrix(0.010850694444444444,0,0,0.010850694444444444,47.79730902777778,0)" xlink:href="#bH"/><use transform="matrix(0.010850694444444444,0,0,0.010850694444444444,60.23220486111112,0)" xlink:href="#bQ"/></g><path fill="#6f7681" d="M520 20C244 20 95-247 95-550c0-298 151-550 427-552 127 0 227 43 301 130v-564h185V0H838l-9-116C755-25 652 20 520 20zm48-965c-210 0-288 177-288 416 0 218 87 392 286 392 117 0 203-53 257-158v-497c-55-102-140-153-255-153" id="bS"/><path fill="#6f7681" d="M341 0H156v-1082h185V0zm-91-1264c-68 0-108-42-109-105 0-62 41-107 109-107s110 44 110 107-42 105-110 105" id="bT"/><path fill="#6f7681" d="M538-131c121 0 232-49 232-156 0-50-20-88-56-117-73-60-334-92-420-143-92-55-162-110-162-238 0-190 192-317 400-317 223 0 414 129 413 338H759c0-108-110-186-227-186-119 0-215 53-215 159 0 45 18 78 53 101 76 52 331 90 416 139 98 57 169 115 169 251C955-92 760 20 538 20c-176 0-314-68-386-174-38-55-57-115-57-179h185c6 129 116 202 258 202" id="bU"/><path fill="#6f7681" d="M456 20C285 20 205-92 206-268v-671H9v-143h197v-262h185v262h202v143H391v671c-9 125 92 149 207 118V0c-49 13-96 20-142 20" id="bV"/><path fill="#6f7681" d="M177 125H18l608-1581h158" id="bW"/><g id="N"><use transform="matrix(0.0087890625,0,0,0.0087890625,0,0)" xlink:href="#bS"/><use transform="matrix(0.0087890625,0,0,0.0087890625,10.1513671875,0)" xlink:href="#bT"/><use transform="matrix(0.0087890625,0,0,0.0087890625,14.51953125,0)" xlink:href="#bU"/><use transform="matrix(0.0087890625,0,0,0.0087890625,23.80078125,0)" xlink:href="#bV"/><use transform="matrix(0.0087890625,0,0,0.0087890625,29.6806640625,0)" xlink:href="#bW"/></g><path d="M688-137c238 0 323-102 359-325h193c-32 297-228 482-552 482-361 0-569-299-569-680 0-197 8-360 73-497 88-186 257-317 513-319 316-2 509 195 535 488h-193c-31-212-118-330-342-330-272 0-397 224-393 523v141c-3 282 115 517 376 517" id="bX"/><path d="M584 20C278 26 81-227 91-551c10-320 175-545 491-551 308-5 503 247 494 573-9 322-175 543-492 549zm-2-970c-208 0-305 185-305 421 0 216 106 398 307 398 211 0 307-186 307-420 0-214-109-399-309-399" id="bY"/><path d="M1240-945c-141 0-250 95-250 227V0H804v-709c0-157-77-236-231-236-121 0-204 52-249 155V0H139v-1082h175l5 120c79-93 186-140 321-140 151 0 254 58 309 174 69-98 181-174 345-174 237 0 362 126 362 377V0h-185v-714c-2-159-67-231-231-231" id="bZ"/><path d="M632-1102c291 0 422 251 422 573 0 297-141 548-419 549-131 0-235-42-310-125v521H140v-1498h169l9 120c75-93 180-140 314-140zm-53 971c207 0 290-180 290-419 0-218-92-395-292-395-112 0-196 50-252 149v517c55 99 140 148 254 148" id="ca"/><path d="M341 0H156v-1082h185V0zm-91-1264c-68 0-108-42-109-105 0-62 41-107 109-107s110 44 110 107-42 105-110 105" id="cb"/><path d="M341 0H156v-1536h185V0" id="cc"/><path d="M599-131c141 0 220-65 285-146l113 88C906-50 770 20 589 20 281 21 93-214 93-545c0-223 93-397 233-485 74-48 154-72 240-72 300 2 449 218 445 537v77H278c0 197 129 357 321 357zm227-509c-3-180-88-310-260-310-170 0-264 140-282 310h542" id="cd"/><path d="M520 20C244 20 95-247 95-550c0-298 151-550 427-552 127 0 227 43 301 130v-564h185V0H838l-9-116C755-25 652 20 520 20zm48-965c-210 0-288 177-288 416 0 218 87 392 286 392 117 0 203-53 257-158v-497c-55-102-140-153-255-153" id="ce"/><g id="O"><use transform="matrix(0.007595486111111111,0,0,0.007595486111111111,0,0)" xlink:href="#bX"/><use transform="matrix(0.007595486111111111,0,0,0.007595486111111111,10.12478298611111,0)" xlink:href="#bY"/><use transform="matrix(0.007595486111111111,0,0,0.007595486111111111,18.996310763888886,0)" xlink:href="#bZ"/><use transform="matrix(0.007595486111111111,0,0,0.007595486111111111,32.63020833333333,0)" xlink:href="#ca"/><use transform="matrix(0.007595486111111111,0,0,0.007595486111111111,41.35742187499999,0)" xlink:href="#cb"/><use transform="matrix(0.007595486111111111,0,0,0.007595486111111111,45.132378472222214,0)" xlink:href="#cc"/><use transform="matrix(0.007595486111111111,0,0,0.007595486111111111,48.907335069444436,0)" xlink:href="#cd"/><use transform="matrix(0.007595486111111111,0,0,0.007595486111111111,57.14843749999999,0)" xlink:href="#ce"/></g><path d="M512-137c164 0 267-115 267-285v-1034h193v1031c4 276-186 445-460 445C234 20 52-130 53-402h192c0 167 97 265 267 265" id="cf"/><path d="M631-137c179 0 314-70 314-231 0-71-25-127-75-166s-141-77-272-115c-165-47-285-106-360-175s-112-154-112-255c0-245 231-397 495-397 206 0 369 89 449 218 43 68 65 142 65 223H942c0-184-129-283-321-283-172 0-299 76-301 236 0 59 26 109 76 150s135 78 256 113c205 59 345 116 436 256 35 53 50 119 50 193-2 256-231 398-507 390C333 12 90-129 80-422h193c0 187 160 285 358 285" id="cg"/><g id="P"><use transform="matrix(0.007595486111111111,0,0,0.007595486111111111,0,0)" xlink:href="#cf"/><use transform="matrix(0.007595486111111111,0,0,0.007595486111111111,8.582899305555555,0)" xlink:href="#cg"/></g><path d="M1175-1298H707V0H516v-1298H49v-158h1126v158" id="ch"/><path d="M494-271l252-811h198L509 167C425 381 299 474 84 421V271c167 16 242-37 283-173l41-110L22-1082h202" id="ci"/><g id="Q"><use transform="matrix(0.007595486111111111,0,0,0.007595486111111111,0,0)" xlink:href="#ch"/><use transform="matrix(0.007595486111111111,0,0,0.007595486111111111,8.734809027777777,0)" xlink:href="#ci"/><use transform="matrix(0.007595486111111111,0,0,0.007595486111111111,16.094835069444443,0)" xlink:href="#ca"/><use transform="matrix(0.007595486111111111,0,0,0.007595486111111111,24.822048611111107,0)" xlink:href="#cd"/></g><path d="M277-555c0 244 77 420 297 424 127 2 249-93 255-210h175C980-127 805 20 574 20 258 20 81-222 92-562c11-319 164-533 481-540 237-5 426 165 431 392H829c-7-133-115-242-256-240-209 4-296 166-296 395" id="cj"/><path d="M561-1102c238-4 403 126 403 351v498c0 99 13 178 38 237V0H808c-11-21-19-59-26-114C696-25 593 20 474 20c-199 0-368-130-365-320 4-251 214-359 490-356h180v-85c-1-135-86-212-229-212-115 0-232 67-233 171H131c20-205 206-316 430-320zM294-326c0 117 90 185 207 185 122 0 239-75 278-162v-222H634c-227 0-340 66-340 199" id="ck"/><path d="M663-916c-163-27-288 18-338 148V0H140v-1082h180l3 125c61-97 147-145 258-145 36 0 63 5 82 14v172" id="cl"/><path d="M456 20C285 20 205-92 206-268v-671H9v-143h197v-262h185v262h202v143H391v671c-9 125 92 149 207 118V0c-49 13-96 20-142 20" id="cm"/><path d="M589-945c-131 0-219 81-264 174V0H140v-1082h175l6 136c83-104 191-156 324-156 229 0 346 129 346 387V0H806v-716c-2-153-65-229-217-229" id="cn"/><path d="M538-131c121 0 232-49 232-156 0-50-20-88-56-117-73-60-334-92-420-143-92-55-162-110-162-238 0-190 192-317 400-317 223 0 414 129 413 338H759c0-108-110-186-227-186-119 0-215 53-215 159 0 45 18 78 53 101 76 52 331 90 416 139 98 57 169 115 169 251C955-92 760 20 538 20c-176 0-314-68-386-174-38-55-57-115-57-179h185c6 129 116 202 258 202" id="co"/><g id="R"><use transform="matrix(0.007595486111111111,0,0,0.007595486111111111,0,0)" xlink:href="#ce"/><use transform="matrix(0.007595486111111111,0,0,0.007595486111111111,8.772786458333334,0)" xlink:href="#cd"/><use transform="matrix(0.007595486111111111,0,0,0.007595486111111111,17.01388888888889,0)" xlink:href="#cj"/><use transform="matrix(0.007595486111111111,0,0,0.007595486111111111,25.15625,0)" xlink:href="#cc"/><use transform="matrix(0.007595486111111111,0,0,0.007595486111111111,28.93120659722222,0)" xlink:href="#ck"/><use transform="matrix(0.007595486111111111,0,0,0.007595486111111111,37.392578125,0)" xlink:href="#cl"/><use transform="matrix(0.007595486111111111,0,0,0.007595486111111111,42.35243055555556,0)" xlink:href="#ck"/><use transform="matrix(0.007595486111111111,0,0,0.007595486111111111,50.813802083333336,0)" xlink:href="#cm"/><use transform="matrix(0.007595486111111111,0,0,0.007595486111111111,55.89518229166667,0)" xlink:href="#cb"/><use transform="matrix(0.007595486111111111,0,0,0.007595486111111111,59.67013888888889,0)" xlink:href="#bY"/><use transform="matrix(0.007595486111111111,0,0,0.007595486111111111,68.54166666666667,0)" xlink:href="#cn"/><use transform="matrix(0.007595486111111111,0,0,0.007595486111111111,77.12456597222223,0)" xlink:href="#co"/></g><path d="M330-983l-302-90 46-151 302 112-9-344h153l-10 349 297-110 46 152-307 91 198 271-124 94-186-288-180 281-125-91" id="cp"/><path d="M258 11c-71 0-114-43-114-108 0-67 42-112 114-112s116 45 116 112c-1 65-45 108-116 108" id="cq"/><path d="M1098-255l208-827h185L1176 0h-150L763-820 507 0H357L43-1082h184l213 810 252-810h149" id="cr"/><g id="S"><use transform="matrix(0.007595486111111111,0,0,0.007595486111111111,0,0)" xlink:href="#cp"/><use transform="matrix(0.007595486111111111,0,0,0.007595486111111111,6.69921875,0)" xlink:href="#cq"/><use transform="matrix(0.007595486111111111,0,0,0.007595486111111111,10.79318576388889,0)" xlink:href="#cr"/><use transform="matrix(0.007595486111111111,0,0,0.007595486111111111,22.48263888888889,0)" xlink:href="#ck"/><use transform="matrix(0.007595486111111111,0,0,0.007595486111111111,30.944010416666664,0)" xlink:href="#co"/><use transform="matrix(0.007595486111111111,0,0,0.007595486111111111,38.96484375,0)" xlink:href="#bZ"/></g><path d="M704-1390c-164-38-297 28-288 194v114h231v143H416V0H231v-939H60v-143h171v-111c-12-274 208-416 483-347" id="cs"/><g id="T"><use transform="matrix(0.007595486111111111,0,0,0.007595486111111111,0,0)" xlink:href="#cs"/><use transform="matrix(0.007595486111111111,0,0,0.007595486111111111,5.400390625,0)" xlink:href="#cb"/><use transform="matrix(0.007595486111111111,0,0,0.007595486111111111,9.175347222222221,0)" xlink:href="#cc"/><use transform="matrix(0.007595486111111111,0,0,0.007595486111111111,12.950303819444443,0)" xlink:href="#cd"/><use transform="matrix(0.007595486111111111,0,0,0.007595486111111111,21.19140625,0)" xlink:href="#co"/></g><path d="M992-673H361v516h733V0H169v-1456h915v158H361v468h631v157" id="ct"/><path d="M634-1102c292 0 422 254 422 573 0 298-143 547-420 549-137 0-242-48-317-145L310 0H140v-1536h185v573c75-93 178-139 309-139zm-44 965c207 0 281-175 281-413 0-224-79-395-283-395-122 0-210 57-263 170v468c57 113 145 170 265 170" id="cu"/><g id="U"><use transform="matrix(0.007595486111111111,0,0,0.007595486111111111,0,0)" xlink:href="#ct"/><use transform="matrix(0.007595486111111111,0,0,0.007595486111111111,8.841145833333334,0)" xlink:href="#bZ"/><use transform="matrix(0.007595486111111111,0,0,0.007595486111111111,22.47504340277778,0)" xlink:href="#cu"/><use transform="matrix(0.007595486111111111,0,0,0.007595486111111111,31.202256944444443,0)" xlink:href="#cd"/><use transform="matrix(0.007595486111111111,0,0,0.007595486111111111,39.443359375,0)" xlink:href="#ce"/><use transform="matrix(0.007595486111111111,0,0,0.007595486111111111,48.216145833333336,0)" xlink:href="#ce"/><use transform="matrix(0.007595486111111111,0,0,0.007595486111111111,56.98893229166667,0)" xlink:href="#cd"/><use transform="matrix(0.007595486111111111,0,0,0.007595486111111111,65.23003472222223,0)" xlink:href="#ce"/></g><path d="M132-554c0-555 187-908 715-903v157c-320-8-501 179-526 477 77-88 181-132 314-132 259 0 417 214 417 480 0 286-172 495-451 495-293 0-469-266-469-574zm737 88c0-181-95-335-265-335-133 0-252 96-286 200v68c-6 207 101 397 283 400 175 3 268-150 268-333" id="cv"/><path d="M902-489h202v151H902V0H716v-338H53v-109l652-1009h197v967zm-639 0h453v-714l-22 40" id="cw"/><g id="V"><use transform="matrix(0.007595486111111111,0,0,0.007595486111111111,0,0)" xlink:href="#cu"/><use transform="matrix(0.007595486111111111,0,0,0.007595486111111111,8.727213541666666,0)" xlink:href="#ck"/><use transform="matrix(0.007595486111111111,0,0,0.007595486111111111,17.188585069444443,0)" xlink:href="#co"/><use transform="matrix(0.007595486111111111,0,0,0.007595486111111111,25.20941840277778,0)" xlink:href="#cd"/><use transform="matrix(0.007595486111111111,0,0,0.007595486111111111,33.450520833333336,0)" xlink:href="#cv"/><use transform="matrix(0.007595486111111111,0,0,0.007595486111111111,42.185329861111114,0)" xlink:href="#cw"/></g><g id="W"><use transform="matrix(0.0087890625,0,0,0.0087890625,0,0)" xlink:href="#cn"/><use transform="matrix(0.0087890625,0,0,0.0087890625,9.931640625,0)" xlink:href="#ca"/><use transform="matrix(0.0087890625,0,0,0.0087890625,20.0302734375,0)" xlink:href="#bZ"/></g><path d="M491 20c-241-1-355-148-355-398v-704h185v699c0 164 67 246 200 246 141 0 235-53 282-158v-787h185V0H812l-4-107C736-22 630 20 491 20" id="cx"/><path d="M589-945c-131 0-219 81-264 174V0H140v-1536h185v585c82-101 189-151 320-151 229 0 346 129 346 387V0H806v-716c-2-153-65-229-217-229" id="cy"/><g id="X"><use transform="matrix(0.0087890625,0,0,0.0087890625,0,0)" xlink:href="#ca"/><use transform="matrix(0.0087890625,0,0,0.0087890625,10.0986328125,0)" xlink:href="#cx"/><use transform="matrix(0.0087890625,0,0,0.0087890625,20.021484375,0)" xlink:href="#cu"/><use transform="matrix(0.0087890625,0,0,0.0087890625,30.1201171875,0)" xlink:href="#cc"/><use transform="matrix(0.0087890625,0,0,0.0087890625,34.48828125,0)" xlink:href="#cb"/><use transform="matrix(0.0087890625,0,0,0.0087890625,38.8564453125,0)" xlink:href="#co"/><use transform="matrix(0.0087890625,0,0,0.0087890625,48.1376953125,0)" xlink:href="#cy"/></g><path d="M521 20C240 20 96-239 96-550c0-303 147-552 427-552 132 0 235 47 309 140l9-120h169V-26c4 277-183 454-459 452-165-1-334-81-400-187l96-111c79 98 176 147 291 147 180 1 288-109 286-290v-93C750-23 649 20 521 20zm48-965c-209 0-287 178-287 416 0 217 86 392 285 392 117 0 202-53 257-159v-494c-57-103-142-155-255-155" id="cz"/><g id="Y"><use transform="matrix(0.0087890625,0,0,0.0087890625,0,0)" xlink:href="#cm"/><use transform="matrix(0.0087890625,0,0,0.0087890625,5.8798828125,0)" xlink:href="#ck"/><use transform="matrix(0.0087890625,0,0,0.0087890625,15.6708984375,0)" xlink:href="#cl"/><use transform="matrix(0.0087890625,0,0,0.0087890625,21.5947265625,0)" xlink:href="#cz"/><use transform="matrix(0.0087890625,0,0,0.0087890625,31.693359375,0)" xlink:href="#cd"/><use transform="matrix(0.0087890625,0,0,0.0087890625,41.2294921875,0)" xlink:href="#cm"/></g><path fill="#667eea" d="M663-1102c295 0 423 246 423 571 0 313-131 551-421 551-117 0-211-45-281-135L371 0H111v-1536h289v551c67-78 154-117 263-117zm-71 889c164 0 209-139 205-339-3-189-44-315-207-315-92 0-155 38-190 113v427c35 76 99 114 192 114" id="cA"/><path fill="#667eea" d="M463 20c-241-1-359-147-359-393v-709h289v699c0 113 51 169 154 169 98 0 165-34 202-102v-766h290V0H767l-8-110C688-23 589 20 463 20" id="cB"/><path fill="#667eea" d="M416 0H126v-1082h290V0zM271-1212c-92 0-162-61-162-150s68-149 162-149c93 0 162 60 162 149s-70 150-162 150" id="cC"/><path fill="#667eea" d="M416 0H126v-1536h290V0" id="cD"/><path fill="#667eea" d="M488 20C204 20 66-234 66-549c0-305 140-551 424-553 105 0 192 39 261 118v-552h290V0H780l-14-115C694-25 601 20 488 20zM355-528c0 176 51 314 207 314 89 0 152-38 189-113v-427c-36-75-98-113-187-113-139 0-209 113-209 339" id="cE"/><path fill="#667eea" d="M288 11c-91 0-163-63-163-153 0-91 73-155 163-155 91 0 164 64 164 155S380 11 288 11zm0-819c-91 0-163-63-163-153 0-91 73-155 163-155 91 0 164 64 164 155s-72 153-164 153" id="cF"/><path fill="#667eea" d="M552-1102c254-4 435 134 435 383v469c1 103 15 180 43 233V0H738c-13-26-23-58-29-97C639-19 548 20 436 20 238 20 64-113 68-304c5-258 212-357 496-357h133c11-137-29-227-160-227-90 0-156 45-156 131H92c15-231 213-342 460-345zM357-325c0 76 61 124 142 124 88 0 168-45 198-105v-186H589c-152 2-232 51-232 167" id="cG"/><path fill="#667eea" d="M529-185c94 0 168-33 168-114 0-35-18-63-53-83s-91-39-168-55C219-491 90-600 90-765c0-208 203-337 432-337 246 0 451 124 453 349H686c-2-91-62-143-165-143-86 0-151 41-153 117 0 32 16 57 46 77 63 43 257 69 335 100 151 60 229 153 229 291C978-13 554 93 282-28 162-81 60-190 56-344h274c5 106 86 159 199 159" id="cH"/><path fill="#667eea" d="M741-689c-2-124-40-177-163-178-82 0-141 34-178 102V0H111v-1082h271l9 121c77-94 180-141 311-141 139 0 235 55 287 165 76-110 184-165 325-165 249 0 348 151 348 411V0h-290v-690c-2-123-39-176-163-177-87 0-147 41-180 124l1 743H741v-689" id="cI"/><g id="Z"><use transform="matrix(0.0087890625,0,0,0.0087890625,0,0)" xlink:href="#cA"/><use transform="matrix(0.0087890625,0,0,0.0087890625,10.1337890625,0)" xlink:href="#cB"/><use transform="matrix(0.0087890625,0,0,0.0087890625,20.2060546875,0)" xlink:href="#cC"/><use transform="matrix(0.0087890625,0,0,0.0087890625,24.978515625,0)" xlink:href="#cD"/><use transform="matrix(0.0087890625,0,0,0.0087890625,29.7509765625,0)" xlink:href="#cE"/><use transform="matrix(0.0087890625,0,0,0.0087890625,39.8935546875,0)" xlink:href="#cF"/><use transform="matrix(0.0087890625,0,0,0.0087890625,44.9736328125,0)" xlink:href="#cG"/><use transform="matrix(0.0087890625,0,0,0.0087890625,54.6240234375,0)" xlink:href="#cH"/><use transform="matrix(0.0087890625,0,0,0.0087890625,63.87890625,0)" xlink:href="#cI"/></g><path fill="#667eea" d="M1031-175C952-60 797 20 609 20 287 20 60-206 72-543c12-330 180-559 505-559 309 0 482 214 477 537v118H365c15 134 115 234 263 234 111 0 198-40 261-121zM770-644c5-139-62-226-194-224-130 1-191 97-208 224h402" id="cJ"/><g id="aa"><use transform="matrix(0.0087890625,0,0,0.0087890625,0,0)" xlink:href="#cA"/><use transform="matrix(0.0087890625,0,0,0.0087890625,10.1337890625,0)" xlink:href="#cB"/><use transform="matrix(0.0087890625,0,0,0.0087890625,20.2060546875,0)" xlink:href="#cC"/><use transform="matrix(0.0087890625,0,0,0.0087890625,24.978515625,0)" xlink:href="#cD"/><use transform="matrix(0.0087890625,0,0,0.0087890625,29.7509765625,0)" xlink:href="#cE"/><use transform="matrix(0.0087890625,0,0,0.0087890625,39.8935546875,0)" xlink:href="#cF"/><use transform="matrix(0.0087890625,0,0,0.0087890625,44.9736328125,0)" xlink:href="#cJ"/><use transform="matrix(0.0087890625,0,0,0.0087890625,54.703125,0)" xlink:href="#cI"/><use transform="matrix(0.0087890625,0,0,0.0087890625,70.2861328125,0)" xlink:href="#cA"/><use transform="matrix(0.0087890625,0,0,0.0087890625,80.419921875,0)" xlink:href="#cJ"/><use transform="matrix(0.0087890625,0,0,0.0087890625,90.1494140625,0)" xlink:href="#cE"/></g><path fill="#667eea" d="M457-330c2 83 25 111 111 112 32 0 60-2 85-7V-6c-57 17-115 26-175 26-203 0-310-102-310-307v-583H10v-212h158v-266h289v266h185v212H457v540" id="cK"/><g id="ab"><use transform="matrix(0.0087890625,0,0,0.0087890625,0,0)" xlink:href="#cA"/><use transform="matrix(0.0087890625,0,0,0.0087890625,10.1337890625,0)" xlink:href="#cB"/><use transform="matrix(0.0087890625,0,0,0.0087890625,20.2060546875,0)" xlink:href="#cC"/><use transform="matrix(0.0087890625,0,0,0.0087890625,24.978515625,0)" xlink:href="#cD"/><use transform="matrix(0.0087890625,0,0,0.0087890625,29.7509765625,0)" xlink:href="#cE"/><use transform="matrix(0.0087890625,0,0,0.0087890625,39.8935546875,0)" xlink:href="#cF"/><use transform="matrix(0.0087890625,0,0,0.0087890625,44.9736328125,0)" xlink:href="#cK"/><use transform="matrix(0.0087890625,0,0,0.0087890625,51.0556640625,0)" xlink:href="#cH"/></g><path fill="#667eea" d="M673-507H110v-233h563v233" id="cL"/><path fill="#667eea" d="M1052-393l142-689h279L1197 0H955L750-681 545 0H304L28-1082h279l141 688 198-688h209" id="cM"/><path fill="#667eea" d="M579 20C257 20 58-214 66-551c8-331 182-551 511-551 324 0 514 231 514 572 0 319-198 550-512 550zm-2-888c-169 0-222 141-222 338 0 181 61 317 224 317 170 0 223-137 223-338 0-178-64-317-225-317" id="cN"/><path fill="#667eea" d="M719-811c-143-24-279 1-319 103V0H111v-1082h273l8 129c74-124 180-175 331-136" id="cO"/><path fill="#667eea" d="M504-434L400-330V0H111v-1536h289v851c106-137 222-264 333-397h347L689-631 1114 0H782" id="cP"/><g id="ac"><use transform="matrix(0.0087890625,0,0,0.0087890625,0,0)" xlink:href="#cA"/><use transform="matrix(0.0087890625,0,0,0.0087890625,10.1337890625,0)" xlink:href="#cB"/><use transform="matrix(0.0087890625,0,0,0.0087890625,20.2060546875,0)" xlink:href="#cC"/><use transform="matrix(0.0087890625,0,0,0.0087890625,24.978515625,0)" xlink:href="#cD"/><use transform="matrix(0.0087890625,0,0,0.0087890625,29.7509765625,0)" xlink:href="#cE"/><use transform="matrix(0.0087890625,0,0,0.0087890625,39.8935546875,0)" xlink:href="#cF"/><use transform="matrix(0.0087890625,0,0,0.0087890625,44.9736328125,0)" xlink:href="#cJ"/><use transform="matrix(0.0087890625,0,0,0.0087890625,54.703125,0)" xlink:href="#cI"/><use transform="matrix(0.0087890625,0,0,0.0087890625,70.2861328125,0)" xlink:href="#cA"/><use transform="matrix(0.0087890625,0,0,0.0087890625,80.419921875,0)" xlink:href="#cJ"/><use transform="matrix(0.0087890625,0,0,0.0087890625,90.1494140625,0)" xlink:href="#cE"/><use transform="matrix(0.0087890625,0,0,0.0087890625,100.2919921875,0)" xlink:href="#cL"/><use transform="matrix(0.0087890625,0,0,0.0087890625,107.2705078125,0)" xlink:href="#cM"/><use transform="matrix(0.0087890625,0,0,0.0087890625,120.498046875,0)" xlink:href="#cN"/><use transform="matrix(0.0087890625,0,0,0.0087890625,130.67578125,0)" xlink:href="#cO"/><use transform="matrix(0.0087890625,0,0,0.0087890625,137.2412109375,0)" xlink:href="#cP"/><use transform="matrix(0.0087890625,0,0,0.0087890625,146.6806640625,0)" xlink:href="#cJ"/><use transform="matrix(0.0087890625,0,0,0.0087890625,156.41015625,0)" xlink:href="#cO"/><use transform="matrix(0.0087890625,0,0,0.0087890625,162.9755859375,0)" xlink:href="#cH"/></g><path fill="#667eea" d="M355-556c-2 203 30 338 206 343 102 3 181-63 182-161h271C1001-128 821 17 566 20 242 24 66-212 66-554c0-320 184-548 498-548 262 0 451 167 450 423H743c-1-108-75-193-184-189-162 6-202 123-204 312" id="cQ"/><path fill="#667eea" d="M663-1102c295 0 422 250 422 571 0 300-141 549-420 551-109 0-198-38-265-114v510H111v-1498h268l10 106c70-84 161-126 274-126zm133 550c0-175-53-315-209-315-91 0-153 35-187 104v443c35 71 98 107 189 107 138 0 207-113 207-339" id="cR"/><g id="ad"><use transform="matrix(0.0087890625,0,0,0.0087890625,0,0)" xlink:href="#cQ"/><use transform="matrix(0.0087890625,0,0,0.0087890625,9.38671875,0)" xlink:href="#cR"/></g><path fill="#667eea" d="M202 125H-13l536-1581h215" id="cS"/><path fill="#667eea" d="M341-962l-314-89 59-181 311 125-20-349h196l-20 356 303-123 59 183-320 89 210 266-159 113-182-292-180 282-159-108" id="cT"/><path fill="#667eea" d="M289 11c-91 0-163-63-163-153 0-91 73-155 163-155 91 0 164 64 164 155S381 11 289 11" id="cU"/><g id="ae"><use transform="matrix(0.0087890625,0,0,0.0087890625,0,0)" xlink:href="#cA"/><use transform="matrix(0.0087890625,0,0,0.0087890625,10.1337890625,0)" xlink:href="#cB"/><use transform="matrix(0.0087890625,0,0,0.0087890625,20.2060546875,0)" xlink:href="#cC"/><use transform="matrix(0.0087890625,0,0,0.0087890625,24.978515625,0)" xlink:href="#cD"/><use transform="matrix(0.0087890625,0,0,0.0087890625,29.7509765625,0)" xlink:href="#cE"/><use transform="matrix(0.0087890625,0,0,0.0087890625,39.8935546875,0)" xlink:href="#cS"/><use transform="matrix(0.0087890625,0,0,0.0087890625,46.6171875,0)" xlink:href="#cT"/><use transform="matrix(0.0087890625,0,0,0.0087890625,54.7734375,0)" xlink:href="#cU"/><use transform="matrix(0.0087890625,0,0,0.0087890625,60.0029296875,0)" xlink:href="#cM"/><use transform="matrix(0.0087890625,0,0,0.0087890625,73.23046875,0)" xlink:href="#cG"/><use transform="matrix(0.0087890625,0,0,0.0087890625,82.880859375,0)" xlink:href="#cH"/><use transform="matrix(0.0087890625,0,0,0.0087890625,92.1357421875,0)" xlink:href="#cI"/></g><g id="af"><use transform="matrix(0.0087890625,0,0,0.0087890625,0,0)" xlink:href="#cE"/><use transform="matrix(0.0087890625,0,0,0.0087890625,10.142578125,0)" xlink:href="#cC"/><use transform="matrix(0.0087890625,0,0,0.0087890625,14.9150390625,0)" xlink:href="#cH"/><use transform="matrix(0.0087890625,0,0,0.0087890625,24.169921875,0)" xlink:href="#cK"/><use transform="matrix(0.0087890625,0,0,0.0087890625,30.251953125,0)" xlink:href="#cS"/></g><path fill="#667eea" d="M369-598c0 393 97 738 310 900l-56 153c-200-92-361-334-433-572-84-277-87-628-5-911 71-244 234-495 438-588l56 156c-205 153-310 488-310 862" id="cV"/><path fill="#667eea" d="M750-692c-1-124-48-174-173-175-81 0-142 35-183 104V0H105v-1082h272l9 125c77-97 181-145 311-145 244 0 342 151 342 403V0H750v-692" id="cW"/><path fill="#667eea" d="M505 20C221 18 69-239 69-549c0-302 153-553 438-553 119 0 211 41 277 122l12-102h262V-36c-8 305-208 458-520 462-160 1-335-76-403-170L263 80c72 81 159 121 262 121 172 1 260-107 243-294C701-18 614 20 505 20zm76-887c-165 0-223 147-223 339 0 172 66 314 221 314 88 0 151-33 189-99v-455c-39-66-101-99-187-99" id="cX"/><g id="ag"><use transform="matrix(0.0087890625,0,0,0.0087890625,0,0)" xlink:href="#cV"/><use transform="matrix(0.0087890625,0,0,0.0087890625,6.3193359375,0)" xlink:href="#cH"/><use transform="matrix(0.0087890625,0,0,0.0087890625,15.57421875,0)" xlink:href="#cK"/><use transform="matrix(0.0087890625,0,0,0.0087890625,21.65625,0)" xlink:href="#cO"/><use transform="matrix(0.0087890625,0,0,0.0087890625,28.0546875,0)" xlink:href="#cJ"/><use transform="matrix(0.0087890625,0,0,0.0087890625,37.7841796875,0)" xlink:href="#cG"/><use transform="matrix(0.0087890625,0,0,0.0087890625,47.4345703125,0)" xlink:href="#cI"/><use transform="matrix(0.0087890625,0,0,0.0087890625,63.017578125,0)" xlink:href="#cC"/><use transform="matrix(0.0087890625,0,0,0.0087890625,67.7900390625,0)" xlink:href="#cW"/><use transform="matrix(0.0087890625,0,0,0.0087890625,77.87109375,0)" xlink:href="#cX"/></g><path fill="#667eea" d="M349-541c6-400-96-755-309-922l56-153c203 91 368 336 444 575 89 280 91 621 4 907-74 244-242 497-448 589L40 302c199-150 304-484 309-843" id="cY"/><g id="ah"><use transform="matrix(0.0087890625,0,0,0.0087890625,0,0)" xlink:href="#cI"/><use transform="matrix(0.0087890625,0,0,0.0087890625,15.5830078125,0)" xlink:href="#cN"/><use transform="matrix(0.0087890625,0,0,0.0087890625,25.7607421875,0)" xlink:href="#cE"/><use transform="matrix(0.0087890625,0,0,0.0087890625,35.9033203125,0)" xlink:href="#cJ"/><use transform="matrix(0.0087890625,0,0,0.0087890625,45.6328125,0)" xlink:href="#cY"/></g><linearGradient gradientUnits="userSpaceOnUse" id="ai" x1="1307.89" y1="48.88" x2="1307.89" y2="285.07"><stop offset=".72%" stop-color="#1c7293"/><stop offset="100%" stop-color="#114b5f"/></linearGradient><path fill="#fff" d="M1245-974c0 302-233 466-552 461H430V0H130v-1456h568c323 5 547 167 547 482zm-303 2c1-143-93-241-237-241H430v457h268c151 1 244-71 244-216" id="cZ"/><path fill="#fff" d="M416 0H126v-1536h290V0" id="da"/><g id="aj"><use transform="matrix(0.010850694444444444,0,0,0.010850694444444444,0,0)" xlink:href="#cZ"/><use transform="matrix(0.010850694444444444,0,0,0.010850694444444444,14.192708333333332,0)" xlink:href="#av"/><use transform="matrix(0.010850694444444444,0,0,0.010850694444444444,26.7578125,0)" xlink:href="#av"/><use transform="matrix(0.010850694444444444,0,0,0.010850694444444444,39.322916666666664,0)" xlink:href="#da"/></g><g id="ak"><use transform="matrix(0.010850694444444444,0,0,0.010850694444444444,0,0)" xlink:href="#bf"/><use transform="matrix(0.010850694444444444,0,0,0.010850694444444444,19.09722222222222,0)" xlink:href="#av"/><use transform="matrix(0.010850694444444444,0,0,0.010850694444444444,31.66232638888889,0)" xlink:href="#ax"/><use transform="matrix(0.010850694444444444,0,0,0.010850694444444444,39.767795138888886,0)" xlink:href="#bD"/><use transform="matrix(0.010850694444444444,0,0,0.010850694444444444,51.42144097222222,0)" xlink:href="#az"/><use transform="matrix(0.010850694444444444,0,0,0.010850694444444444,63.43315972222222,0)" xlink:href="#ax"/><use transform="matrix(0.010850694444444444,0,0,0.010850694444444444,71.53862847222223,0)" xlink:href="#aA"/></g><path fill="#c6dabf" d="M632 366c-220-63-354-197-356-467v-199c0-162-71-243-212-243v-145c141 0 212-81 212-242v-208c6-266 134-395 356-459l38 115c-139 45-209 161-209 349v202c0 151-56 257-167 316 111 60 167 166 167 319v206c2 183 72 297 209 341" id="db"/><path fill="#c6dabf" d="M632-1102c291 0 422 251 422 573 0 297-141 548-419 549-131 0-235-42-310-125v521H140v-1498h169l9 120c75-93 180-140 314-140zm-53 971c207 0 290-180 290-419 0-218-92-395-292-395-112 0-196 50-252 149v517c55 99 140 148 254 148" id="dc"/><path fill="#c6dabf" d="M589-945c-131 0-219 81-264 174V0H140v-1536h185v585c82-101 189-151 320-151 229 0 346 129 346 387V0H806v-716c-2-153-65-229-217-229" id="dd"/><path fill="#c6dabf" d="M58-1597c220 63 352 193 356 460v210c0 159 71 239 212 239v145c-141 0-212 81-212 243v202c-2 269-138 401-356 464L19 251C154 208 229 97 229-80v-220c0-154 60-259 181-315-121-55-181-160-181-315v-203c0-188-70-304-209-349" id="de"/><path fill="#c6dabf" d="M584 20C278 26 81-227 91-551c10-320 175-545 491-551 308-5 503 247 494 573-9 322-175 543-492 549zm-2-970c-208 0-305 185-305 421 0 216 106 398 307 398 211 0 307-186 307-420 0-214-109-399-309-399" id="df"/><path fill="#c6dabf" d="M525-543H37v-151h488v151" id="dg"/><path fill="#c6dabf" d="M1098-255l208-827h185L1176 0h-150L763-820 507 0H357L43-1082h184l213 810 252-810h149" id="dh"/><path fill="#c6dabf" d="M442-501L326-380V0H141v-1536h185v929c135-169 291-317 436-475h225L566-630 1036 0H819" id="di"/><path fill="#c6dabf" d="M258 11c-71 0-114-43-114-108 0-67 42-112 114-112s116 45 116 112c-1 65-45 108-116 108" id="dj"/><g id="al"><use transform="matrix(0.0087890625,0,0,0.0087890625,0,0)" xlink:href="#aB"/><use transform="matrix(0.0087890625,0,0,0.0087890625,9.28125,0)" xlink:href="#aC"/><use transform="matrix(0.0087890625,0,0,0.0087890625,15.205078125,0)" xlink:href="#aD"/><use transform="matrix(0.0087890625,0,0,0.0087890625,24.626953125,0)" xlink:href="#aE"/><use transform="matrix(0.0087890625,0,0,0.0087890625,32.044921875,0)" xlink:href="#bw"/><use transform="matrix(0.0087890625,0,0,0.0087890625,37.9248046875,0)" xlink:href="#aB"/><use transform="matrix(0.0087890625,0,0,0.0087890625,47.2060546875,0)" xlink:href="#aE"/><use transform="matrix(0.0087890625,0,0,0.0087890625,54.6240234375,0)" xlink:href="#db"/><use transform="matrix(0.0087890625,0,0,0.0087890625,60.71484375,0)" xlink:href="#aD"/><use transform="matrix(0.0087890625,0,0,0.0087890625,70.13671875,0)" xlink:href="#bm"/><use transform="matrix(0.0087890625,0,0,0.0087890625,74.5048828125,0)" xlink:href="#dc"/><use transform="matrix(0.0087890625,0,0,0.0087890625,84.603515625,0)" xlink:href="#dd"/><use transform="matrix(0.0087890625,0,0,0.0087890625,94.517578125,0)" xlink:href="#bx"/><use transform="matrix(0.0087890625,0,0,0.0087890625,104.0537109375,0)" xlink:href="#aC"/><use transform="matrix(0.0087890625,0,0,0.0087890625,110.14453125,0)" xlink:href="#de"/><use transform="matrix(0.0087890625,0,0,0.0087890625,116.2353515625,0)" xlink:href="#aE"/><use transform="matrix(0.0087890625,0,0,0.0087890625,123.6533203125,0)" xlink:href="#dc"/><use transform="matrix(0.0087890625,0,0,0.0087890625,133.751953125,0)" xlink:href="#df"/><use transform="matrix(0.0087890625,0,0,0.0087890625,144.017578125,0)" xlink:href="#df"/><use transform="matrix(0.0087890625,0,0,0.0087890625,154.283203125,0)" xlink:href="#bn"/><use transform="matrix(0.0087890625,0,0,0.0087890625,158.6513671875,0)" xlink:href="#dg"/><use transform="matrix(0.0087890625,0,0,0.0087890625,163.6171875,0)" xlink:href="#dh"/><use transform="matrix(0.0087890625,0,0,0.0087890625,177.1435546875,0)" xlink:href="#df"/><use transform="matrix(0.0087890625,0,0,0.0087890625,187.4091796875,0)" xlink:href="#aC"/><use transform="matrix(0.0087890625,0,0,0.0087890625,193.5,0)" xlink:href="#di"/><use transform="matrix(0.0087890625,0,0,0.0087890625,202.447265625,0)" xlink:href="#bx"/><use transform="matrix(0.0087890625,0,0,0.0087890625,211.9833984375,0)" xlink:href="#aC"/><use transform="matrix(0.0087890625,0,0,0.0087890625,216.9931640625,0)" xlink:href="#dj"/><use transform="matrix(0.0087890625,0,0,0.0087890625,221.73046875,0)" xlink:href="#bw"/><use transform="matrix(0.0087890625,0,0,0.0087890625,227.6103515625,0)" xlink:href="#aB"/></g><g id="am"><use transform="matrix(0.0087890625,0,0,0.0087890625,0,0)" xlink:href="#aO"/><use transform="matrix(0.0087890625,0,0,0.0087890625,9.421875,0)" xlink:href="#aP"/><use transform="matrix(0.0087890625,0,0,0.0087890625,19.3359375,0)" xlink:href="#aQ"/><use transform="matrix(0.0087890625,0,0,0.0087890625,29.126953125,0)" xlink:href="#aO"/><use transform="matrix(0.0087890625,0,0,0.0087890625,38.548828125,0)" xlink:href="#aP"/><use transform="matrix(0.0087890625,0,0,0.0087890625,48.462890625,0)" xlink:href="#aQ"/><use transform="matrix(0.0087890625,0,0,0.0087890625,58.25390625,0)" xlink:href="#aR"/><use transform="matrix(0.0087890625,0,0,0.0087890625,68.361328125,0)" xlink:href="#aS"/></g><g id="an"><use transform="matrix(0.0087890625,0,0,0.0087890625,0,0)" xlink:href="#aI"/><use transform="matrix(0.0087890625,0,0,0.0087890625,9.5361328125,0)" xlink:href="#aH"/><use transform="matrix(0.0087890625,0,0,0.0087890625,18.8173828125,0)" xlink:href="#aW"/><use transform="matrix(0.0087890625,0,0,0.0087890625,28.916015625,0)" xlink:href="#be"/><use transform="matrix(0.0087890625,0,0,0.0087890625,38.8388671875,0)" xlink:href="#bb"/><use transform="matrix(0.0087890625,0,0,0.0087890625,43.20703125,0)" xlink:href="#aZ"/><use transform="matrix(0.0087890625,0,0,0.0087890625,47.5751953125,0)" xlink:href="#bd"/></g><g id="ao"><use transform="matrix(0.0087890625,0,0,0.0087890625,0,0)" xlink:href="#aW"/><use transform="matrix(0.0087890625,0,0,0.0087890625,10.0986328125,0)" xlink:href="#be"/><use transform="matrix(0.0087890625,0,0,0.0087890625,20.021484375,0)" xlink:href="#aL"/><use transform="matrix(0.0087890625,0,0,0.0087890625,29.953125,0)" xlink:href="#bd"/><use transform="matrix(0.0087890625,0,0,0.0087890625,40.1044921875,0)" xlink:href="#aZ"/><use transform="matrix(0.0087890625,0,0,0.0087890625,44.47265625,0)" xlink:href="#aI"/><use transform="matrix(0.0087890625,0,0,0.0087890625,54.0087890625,0)" xlink:href="#aH"/></g><g id="ap"><use transform="matrix(0.0087890625,0,0,0.0087890625,0,0)" xlink:href="#aM"/><use transform="matrix(0.0087890625,0,0,0.0087890625,5.7041015625,0)" xlink:href="#bc"/></g><path fill="#fff" d="M375 0H183v-1456h192V0" id="dk"/><path fill="#fff" d="M972-643H361V0H169v-1456h902v158H361v498h611v157" id="dl"/><path fill="#fff" d="M992-673H361v516h733V0H169v-1456h915v158H361v468h631v157" id="dm"/><g id="aq"><use transform="matrix(0.0087890625,0,0,0.0087890625,0,0)" xlink:href="#dk"/><use transform="matrix(0.0087890625,0,0,0.0087890625,4.8955078125,0)" xlink:href="#dk"/><use transform="matrix(0.0087890625,0,0,0.0087890625,9.791015625,0)" xlink:href="#dl"/><use transform="matrix(0.0087890625,0,0,0.0087890625,19.740234375,0)" xlink:href="#dm"/></g><g id="ar"><use transform="matrix(0.0087890625,0,0,0.0087890625,0,0)" xlink:href="#aH"/><use transform="matrix(0.0087890625,0,0,0.0087890625,9.28125,0)" xlink:href="#aM"/><use transform="matrix(0.0087890625,0,0,0.0087890625,15.1611328125,0)" xlink:href="#aJ"/><use transform="matrix(0.0087890625,0,0,0.0087890625,21.251953125,0)" xlink:href="#bb"/><use transform="matrix(0.0087890625,0,0,0.0087890625,25.6201171875,0)" xlink:href="#aL"/><use transform="matrix(0.0087890625,0,0,0.0087890625,35.5517578125,0)" xlink:href="#bB"/><use transform="matrix(0.0087890625,0,0,0.0087890625,45.650390625,0)" xlink:href="#aH"/></g></defs></g></svg>