<svg xmlns="http://www.w3.org/2000/svg" xmlns:xlink="http://www.w3.org/1999/xlink" xmlns:lucid="lucid" width="1568.12" height="885.25"><g transform="translate(-97.14744433279657 -401.1066618099149)" lucid:page-tab-id="0_0"><path d="M546.78 1069.47h668.18v216.88H546.78z" fill="url(#a)"/><path d="M546.78 1094.14h668.18v36.05H546.78z" fill="none"/><use xlink:href="#b" transform="matrix(1,0,0,1,551.7830851938818,1099.1427930722737) translate(223.0546875 21.09548611111111)"/><use xlink:href="#c" transform="matrix(1,0,0,1,551.7830851938818,1099.1427930722737) translate(299.03125 21.09548611111111)"/><path d="M546.78 1225.63h668.18v31.1H546.78z" fill="none"/><use xlink:href="#d" transform="matrix(1,0,0,1,551.7830851938819,1230.6308678251528) translate(199.76904296875 17.15234375)"/><use xlink:href="#e" transform="matrix(1,0,0,1,551.7830851938819,1230.6308678251528) translate(276.83154296875 17.15234375)"/><use xlink:href="#f" transform="matrix(1,0,0,1,551.7830851938819,1230.6308678251528) translate(299.80615234375 17.15234375)"/><use xlink:href="#g" transform="matrix(1,0,0,1,551.7830851938819,1230.6308678251528) translate(346.59033203125 17.15234375)"/><use xlink:href="#h" transform="matrix(1,0,0,1,551.7830851938819,1230.6308678251528) translate(411.06689453125 17.15234375)"/><path d="M743.83 401.1h281.1v140.15h-281.1z" fill="url(#i)"/><path d="M743.83 410.44h281.1v36.05h-281.1z" fill="none"/><use xlink:href="#j" transform="matrix(1,0,0,1,748.8250738285677,415.4391268464543) translate(96.21592881944444 21.09548611111111)"/><path d="M742.96 446.5h281.98v31.1h-282z" fill="none"/><use xlink:href="#k" transform="matrix(1,0,0,1,747.9549566410658,451.490793513121) translate(108.68798828125 17.15234375)"/><path d="M744.7 477.6h281.1v52.2H744.7z" fill="none"/><use xlink:href="#l" transform="matrix(1,0,0,1,749.6951910160692,482.594543513121) translate(69.87548828125 17.10546875)"/><use xlink:href="#m" transform="matrix(1,0,0,1,749.6951910160692,482.594543513121) translate(123.86669921875 17.10546875)"/><use xlink:href="#n" transform="matrix(1,0,0,1,749.6951910160692,482.594543513121) translate(156.31591796875 17.10546875)"/><use xlink:href="#o" transform="matrix(1,0,0,1,749.6951910160692,482.594543513121) translate(21.03466796875 38.19921875)"/><use xlink:href="#p" transform="matrix(1,0,0,1,749.6951910160692,482.594543513121) translate(106.42919921875 38.19921875)"/><use xlink:href="#q" transform="matrix(1,0,0,1,749.6951910160692,482.594543513121) translate(129.41259765625 38.19921875)"/><use xlink:href="#r" transform="matrix(1,0,0,1,749.6951910160692,482.594543513121) translate(203.17041015625 38.19921875)"/><path d="M385.73 578.76h281.1V792h-281.1z" fill="url(#s)"/><path d="M385.73 589.1h281.1v36.05h-281.1z" fill="none"/><use xlink:href="#t" transform="matrix(1,0,0,1,390.72881925747447,594.0968083399435) translate(96.85069444444444 21.09548611111111)"/><path d="M385.73 619.24h281.1v31.1h-281.1z" fill="none"/><use xlink:href="#u" transform="matrix(1,0,0,1,390.72881925747447,624.2373119080704) translate(56.04150390625 17.15234375)"/><use xlink:href="#v" transform="matrix(1,0,0,1,390.72881925747447,624.2373119080704) translate(106.01611328125 17.15234375)"/><path d="M431.47 656.76H621.1v101.4H431.48z" fill="#fff" opacity=".15"/><path d="M438.68 670.82h175.2v73.3H438.7z" fill="none"/><use xlink:href="#w" transform="matrix(1,0,0,1,443.6817530161566,675.8188559138399) translate(13.0302734375 17.05859375)"/><use xlink:href="#x" transform="matrix(1,0,0,1,443.6817530161566,675.8188559138399) translate(51.8603515625 17.05859375)"/><use xlink:href="#y" transform="matrix(1,0,0,1,443.6817530161566,675.8188559138399) translate(61.009765625 17.05859375)"/><use xlink:href="#z" transform="matrix(1,0,0,1,443.6817530161566,675.8188559138399) translate(33.236328125 38.15234375)"/><use xlink:href="#A" transform="matrix(1,0,0,1,443.6817530161566,675.8188559138399) translate(18.94970703125 59.24609375)"/><path d="M690.48 578.76h387.8V792H690.5z" fill="url(#B)"/><path d="M690.48 589.1h387.8v36.05H690.5z" fill="none"/><use xlink:href="#C" transform="matrix(1,0,0,1,695.4779620330136,594.0968083399435) translate(149.47634548611111 21.09548611111111)"/><path d="M690.48 619.24h387.8v31.1H690.5z" fill="none"/><use xlink:href="#D" transform="matrix(1,0,0,1,695.4779620330136,624.2373119080704) translate(106.0927734375 17.15234375)"/><use xlink:href="#E" transform="matrix(1,0,0,1,695.4779620330136,624.2373119080704) translate(156.041015625 17.15234375)"/><use xlink:href="#F" transform="matrix(1,0,0,1,695.4779620330136,624.2373119080704) translate(193.53515625 17.15234375)"/><path d="M711 656.76h346.75v101.4H711z" fill="#fff" opacity=".15"/><path d="M724.37 660.27h320.03v94.4H724.37z" fill="none"/><use xlink:href="#G" transform="matrix(1,0,0,1,729.367945635711,665.27198091384) translate(68.69921875 27.55859375)"/><use xlink:href="#x" transform="matrix(1,0,0,1,729.367945635711,665.27198091384) translate(154.392578125 27.55859375)"/><use xlink:href="#H" transform="matrix(1,0,0,1,729.367945635711,665.27198091384) translate(163.5419921875 27.55859375)"/><use xlink:href="#I" transform="matrix(1,0,0,1,729.367945635711,665.27198091384) translate(0.64111328125 48.65234375)"/><use xlink:href="#J" transform="matrix(1,0,0,1,729.367945635711,665.27198091384) translate(5.09716796875 48.65234375)"/><use xlink:href="#x" transform="matrix(1,0,0,1,729.367945635711,665.27198091384) translate(154.79248046875 48.65234375)"/><use xlink:href="#K" transform="matrix(1,0,0,1,729.367945635711,665.27198091384) translate(163.94189453125 48.65234375)"/><use xlink:href="#L" transform="matrix(1,0,0,1,729.367945635711,665.27198091384) translate(20.693359375 69.74609375)"/><use xlink:href="#x" transform="matrix(1,0,0,1,729.367945635711,665.27198091384) translate(145.9990234375 69.74609375)"/><use xlink:href="#M" transform="matrix(1,0,0,1,729.367945635711,665.27198091384) translate(155.1484375 69.74609375)"/><path d="M1094.9 578.76H1376V792h-281.1z" fill="url(#N)"/><path d="M1094.9 589.1H1376v36.05h-281.1z" fill="none"/><use xlink:href="#O" transform="matrix(1,0,0,1,1099.89852949627,594.0968083399435) translate(86.56423611111111 21.09548611111111)"/><path d="M1094.9 619.24H1376v31.1h-281.1z" fill="none"/><use xlink:href="#P" transform="matrix(1,0,0,1,1099.89852949627,624.2373119080704) translate(48.84765625 17.15234375)"/><use xlink:href="#Q" transform="matrix(1,0,0,1,1099.89852949627,624.2373119080704) translate(123.2294921875 17.15234375)"/><path d="M1140.64 656.76h189.64v101.4h-189.64z" fill="#fff" opacity=".15"/><path d="M1147.85 670.82h175.2v73.3h-175.2z" fill="none"/><use xlink:href="#R" transform="matrix(1,0,0,1,1152.8514632549516,675.8188559138399) translate(1.525390625 27.60546875)"/><use xlink:href="#S" transform="matrix(1,0,0,1,1152.8514632549516,675.8188559138399) translate(85.619140625 27.60546875)"/><use xlink:href="#T" transform="matrix(1,0,0,1,1152.8514632549516,675.8188559138399) translate(24.5087890625 48.69921875)"/><use xlink:href="#U" transform="matrix(1,0,0,1,1152.8514632549516,675.8188559138399) translate(70.783203125 48.69921875)"/><path d="M97.15 857.25H339.6v169.97H97.16z" fill="url(#V)"/><path d="M97.15 872.16H339.6v36.05H97.16z" fill="none"/><use xlink:href="#W" transform="matrix(1,0,0,1,102.14744433279657,877.1582356143838) translate(74.33962673611111 21.09548611111111)"/><path d="M123.56 920.17H313.2v83.6H123.56z" fill="#fff" opacity=".15"/><path d="M150.98 935.87h134.8v52.2h-134.8z" fill="none"/><use xlink:href="#X" transform="matrix(1,0,0,1,155.98051694769103,940.8660050876881) translate(0 17.10546875)"/><use xlink:href="#x" transform="matrix(1,0,0,1,155.98051694769103,940.8660050876881) translate(66.2080078125 17.10546875)"/><use xlink:href="#Y" transform="matrix(1,0,0,1,155.98051694769103,940.8660050876881) translate(75.357421875 17.10546875)"/><use xlink:href="#Z" transform="matrix(1,0,0,1,155.98051694769103,940.8660050876881) translate(8.974609375 38.19921875)"/><use xlink:href="#x" transform="matrix(1,0,0,1,155.98051694769103,940.8660050876881) translate(52.4189453125 38.19921875)"/><use xlink:href="#aa" transform="matrix(1,0,0,1,155.98051694769103,940.8660050876881) translate(61.568359375 38.19921875)"/><path d="M361.65 857.25H604.1v169.97H361.66z" fill="url(#ab)"/><path d="M361.65 872.16H604.1v36.05H361.66z" fill="none"/><use xlink:href="#ac" transform="matrix(1,0,0,1,366.6489404614944,877.1582356143837) translate(63.66254340277777 21.09548611111111)"/><path d="M388.06 920.17H577.7v83.6H388.06z" fill="#fff" opacity=".15"/><path d="M404.83 935.87h156.1v52.2h-156.1z" fill="none"/><use xlink:href="#ad" transform="matrix(1,0,0,1,409.82966932638885,940.866005087688) translate(0 17.10546875)"/><use xlink:href="#x" transform="matrix(1,0,0,1,409.82966932638885,940.866005087688) translate(87.5126953125 17.10546875)"/><use xlink:href="#Y" transform="matrix(1,0,0,1,409.82966932638885,940.866005087688) translate(96.662109375 17.10546875)"/><use xlink:href="#Z" transform="matrix(1,0,0,1,409.82966932638885,940.866005087688) translate(19.974609375 38.19921875)"/><use xlink:href="#x" transform="matrix(1,0,0,1,409.82966932638885,940.866005087688) translate(63.4189453125 38.19921875)"/><use xlink:href="#aa" transform="matrix(1,0,0,1,409.82966932638885,940.866005087688) translate(72.568359375 38.19921875)"/><path d="M626.94 857.25H869.4v169.97H626.94z" fill="url(#ae)"/><path d="M626.94 872.16H869.4v36.05H626.94z" fill="none"/><use xlink:href="#af" transform="matrix(1,0,0,1,631.9377340842381,877.1582356143837) translate(88.08745659722223 21.09548611111111)"/><path d="M653.35 920.17H843v83.6H653.34z" fill="#fff" opacity=".15"/><path d="M685.04 935.87H811.3v52.2H685.04z" fill="none"/><g><use xlink:href="#ag" transform="matrix(1,0,0,1,690.0378965428825,940.8660050876881) translate(0 17.10546875)"/><use xlink:href="#x" transform="matrix(1,0,0,1,690.0378965428825,940.8660050876881) translate(54.9404296875 17.10546875)"/><use xlink:href="#ah" transform="matrix(1,0,0,1,690.0378965428825,940.8660050876881) translate(64.08984375 17.10546875)"/><use xlink:href="#ai" transform="matrix(1,0,0,1,690.0378965428825,940.8660050876881) translate(35.56494140625 38.19921875)"/></g><path d="M892.23 857.25h242.46v169.97H892.22z" fill="url(#aj)"/><path d="M892.23 872.16h242.46v36.05H892.22z" fill="none"/><g><use xlink:href="#ak" transform="matrix(1,0,0,1,897.2265277069816,877.1582356143837) translate(88.08745659722223 21.09548611111111)"/></g><g opacity=".15"><path d="M918.64 920.17h189.64v83.6H918.64z" fill="#fff"/></g><path d="M945.2 946.4h131.02v31.12H945.2z" fill="none"/><g><use xlink:href="#al" transform="matrix(1,0,0,1,950.189483134376,951.412880087688) translate(0 17.15234375)"/><use xlink:href="#x" transform="matrix(1,0,0,1,950.189483134376,951.412880087688) translate(54.9404296875 17.15234375)"/><use xlink:href="#am" transform="matrix(1,0,0,1,950.189483134376,951.412880087688) translate(64.08984375 17.15234375)"/></g><path d="M1157.52 857.25h242.46v169.97h-242.46z" fill="url(#an)"/><path d="M1157.52 872.16h242.46v36.05h-242.46z" fill="none"/><g><use xlink:href="#ao" transform="matrix(1,0,0,1,1162.5153213297253,877.1582356143837) translate(84.52300347222223 21.09548611111111)"/></g><g opacity=".15"><path d="M1183.93 920.17h189.64v83.6h-189.64z" fill="#fff"/></g><path d="M1203.78 935.87h149.93v52.2H1203.8z" fill="none"/><g><use xlink:href="#ap" transform="matrix(1,0,0,1,1208.7789594900478,940.8660050876881) translate(36.20166015625 17.10546875)"/><use xlink:href="#aq" transform="matrix(1,0,0,1,1208.7789594900478,940.8660050876881) translate(27.21923828125 38.19921875)"/></g><path d="M1422.8 857.25h242.47v169.97H1422.8z" fill="url(#ar)"/><path d="M1422.8 872.16h242.47v36.05H1422.8z" fill="none"/><g><use xlink:href="#as" transform="matrix(1,0,0,1,1427.804114952469,877.1582356143836) translate(60.494140625 21.09548611111111)"/></g><g opacity=".15"><path d="M1449.22 920.17h189.64v83.6h-189.64z" fill="#fff"/></g><path d="M1469.07 935.87H1619v52.2h-149.93z" fill="none"/><g><use xlink:href="#at" transform="matrix(1,0,0,1,1474.0677531127917,940.8660050876881) translate(17.65234375 17.10546875)"/><use xlink:href="#au" transform="matrix(1,0,0,1,1474.0677531127917,940.8660050876881) translate(107.0458984375 17.10546875)"/><use xlink:href="#av" transform="matrix(1,0,0,1,1474.0677531127917,940.8660050876881) translate(23.49267578125 38.19921875)"/><use xlink:href="#aw" transform="matrix(1,0,0,1,1474.0677531127917,940.8660050876881) translate(81.67626953125 38.19921875)"/></g><g opacity=".15"><path d="M588.77 1143.9h579.17v68.02H588.77z" fill="#fff"/></g><path d="M607.04 1162.36h547.66v31.1H607.04z" fill="none"/><g><use xlink:href="#ax" transform="matrix(1,0,0,1,612.0399203495401,1167.3607887820465) translate(0 17.15234375)"/><use xlink:href="#ay" transform="matrix(1,0,0,1,612.0399203495401,1167.3607887820465) translate(53.3583984375 17.15234375)"/><use xlink:href="#az" transform="matrix(1,0,0,1,612.0399203495401,1167.3607887820465) translate(66.9638671875 17.15234375)"/><use xlink:href="#ay" transform="matrix(1,0,0,1,612.0399203495401,1167.3607887820465) translate(144.896484375 17.15234375)"/><use xlink:href="#aA" transform="matrix(1,0,0,1,612.0399203495401,1167.3607887820465) translate(158.501953125 17.15234375)"/><use xlink:href="#ay" transform="matrix(1,0,0,1,612.0399203495401,1167.3607887820465) translate(221.1328125 17.15234375)"/><use xlink:href="#aB" transform="matrix(1,0,0,1,612.0399203495401,1167.3607887820465) translate(234.73828125 17.15234375)"/><use xlink:href="#ay" transform="matrix(1,0,0,1,612.0399203495401,1167.3607887820465) translate(310.728515625 17.15234375)"/><use xlink:href="#aC" transform="matrix(1,0,0,1,612.0399203495401,1167.3607887820465) translate(324.333984375 17.15234375)"/><use xlink:href="#ay" transform="matrix(1,0,0,1,612.0399203495401,1167.3607887820465) translate(396.45703125 17.15234375)"/><use xlink:href="#aD" transform="matrix(1,0,0,1,612.0399203495401,1167.3607887820465) translate(410.0625 17.15234375)"/></g><path d="M1218.96 1178.9h-3v-1.96h3zm10 0h-6v-1.96h6zm10 0h-6v-1.96h6zm10.02 0h-6v-1.96h6zm10 0h-6v-1.96h6zm10 0h-6v-1.96h6zm10.02 0h-6v-1.96h6zm10 0h-6v-1.96h6zm10 0h-6v-1.96h6zm10 0h-6v-1.96h6zm10.02 0h-6v-1.96h6zm10 0h-6v-1.96h6zm10 0h-6v-1.96h6zm10.02 0h-6v-1.96h6zm10 0h-6v-1.96h6zm4.96 0h-.96v-1.96h.96zm115.1 0h-6v-1.96h6zm10.02 0h-6v-1.96h6zm10 0h-6v-1.96h6zm10 0h-6v-1.96h6zm10 0h-6v-1.96h6zm10.02 0h-6v-1.96h6zm10 0h-6v-1.96h6zm5.87 0h-1.85v-1h-.1v-5.1h1.96zm-75.9 0h-2.1v-1.96h2.1zm75.9-10.1h-1.94v-6h1.95zm0-10h-1.94v-6h1.95zm0-10.02h-1.94v-6h1.95zm0-10h-1.94v-6h1.95zm0-10h-1.94v-6h1.95zm0-10h-1.94v-6.02h1.95zm0-10.02h-1.94v-6h1.95zm0-10h-1.94v-6h1.95zm0-10h-1.94v-6h1.95zm0-10.02h-1.94v-6h1.95zm0-10h-1.94v-6h1.95zm0-10h-1.94v-6h1.95zm0-10h-1.94v-3.02h1.95z" stroke="#667eea" stroke-width=".05" fill="#667eea"/><path d="M1216 1178.9h-1.04v-1.96h1.03z" fill="#667eea"/><path stroke="#667eea" stroke-width=".05" fill="#667eea"/><path d="M1548.67 1044.72h-9.27l4.64-14.26z" fill="#667eea"/><path d="M1550 1045.7h-11.94l5.98-18.4zm-9.26-1.95h6.6l-3.3-10.14z" stroke="#667eea" stroke-width=".05" fill="#667eea"/><g><use xlink:href="#aE" transform="matrix(1,0,0,1,1364.0020898889427,1167.1126637820466) translate(0.005000000000002558 14.4)"/><use xlink:href="#aF" transform="matrix(1,0,0,1,1364.0020898889427,1167.1126637820466) translate(43.005 14.4)"/></g><path d="M1014.43 856.25h-1.95v-3h1.95zm0-7h-1.95v-6h1.95zm0-10h-1.95v-6h1.95zm265.3-.5h-1.96v-3h1.95zm0-7h-1.96v-6h1.95zm-265.3-2.52h-1.95v-6h1.95zm265.3-7.5h-1.96V821h-3.32v-1.95h5.27zm-259.47-.73h-6v-1.95h6zm10 0h-6v-1.95h6zm10.02 0h-6v-1.95h6zm10 0h-6v-1.95h6zm10 0h-6v-1.95h6zm10.02 0h-6v-1.95h6zm10 0h-6v-1.95h6zm10.02 0h-6v-1.95h6zm10 0h-6v-1.95h6zm10 0h-6v-1.95h6zm4.78 0h-.77v-1.95h.77zm75.3 0h-6v-1.95h6zm10 0h-6v-1.95h6zm10 0h-6v-1.95h6zm10 0h-6v-1.95h6zm10.02 0h-6v-1.95h6zm10 0h-6v-1.95h6zm10.02 0h-6v-1.95h6zm10 0h-6v-1.95h6zm10 0h-6v-1.95h6zm-90.06 0h-3.28v-1.95h3.28z" stroke="#667eea" stroke-width=".05" fill="#667eea"/><path d="M1014.43 857.25h-1.95v-1.02h1.95z" fill="#667eea"/><path stroke="#667eea" stroke-width=".05" fill="#667eea"/><path d="M1278.75 854.02l-4.64-14.27h9.28z" fill="#667eea"/><path d="M1278.75 857.17l-5.98-18.4h11.95zm-3.3-16.44l3.3 10.13 3.3-10.13z" stroke="#667eea" stroke-width=".05" fill="#667eea"/><g><use xlink:href="#aG" transform="matrix(1,0,0,1,1115.102551820748,809.2280289819582) translate(0.004999999999999005 14.4)"/></g><path d="M749.14 838.75h-1.95v-3.03h1.94zm0-7.07h-1.95v-6.07h1.94zM752.7 821h-3.56v.57h-1.95v-2.52h5.5zm131.4 0h-6.06v-1.95h6.07zm-10.1 0h-6.07v-1.95H874zm-10.1 0h-6.07v-1.95h6.06zm-10.12 0h-6.06v-1.95h6.06zm-10.1 0h-6.07v-1.95h6.07zm-56.43 0h-.18v-1.95h.18zm-4.23 0h-6.06v-1.95h6.06zm-10.1 0h-6.07v-1.95h6.06zm-10.12 0h-6.06v-1.95h6.06zm122.56-4.74h-1.95v-6.07h1.96zm0-10.1h-1.95v-6.07h1.96zm0-10.12h-1.95V793h1.96z" stroke="#667eea" stroke-width=".05" fill="#667eea"/><path d="M885.36 793.03h-1.95V792h1.96z" fill="#667eea"/><path stroke="#667eea" stroke-width=".05" fill="#667eea"/><path d="M748.17 854.02l-4.64-14.27h9.27z" fill="#667eea"/><path d="M748.17 857.17l-5.98-18.4h11.95zm-3.3-16.44l3.3 10.13 3.3-10.13z" stroke="#667eea" stroke-width=".05" fill="#667eea"/><g><use xlink:href="#aH" transform="matrix(1,0,0,1,787.2475364379218,809.2280289819582) translate(0.004999999999999005 14.4)"/></g><defs><linearGradient gradientUnits="userSpaceOnUse" id="a" x1="1214.96" y1="1069.47" x2="1214.96" y2="1286.35"><stop offset=".72%" stop-color="#016361"/><stop offset="100%" stop-color="#114b5f"/></linearGradient><path fill="#fff" d="M658-217c127 0 227-49 227-165 0-57-21-98-60-130-79-64-370-142-463-196-162-95-248-210-248-361 0-280 246-403 537-407 213-3 383 84 467 216 45 69 68 147 68 234H886c0-139-96-211-240-211-129 0-232 55-232 169 0 47 24 87 72 119s117 62 210 90c171 51 295 115 373 191s117 171 117 284c-2 272-237 411-528 404C331 13 78-135 69-458h301c0 161 96 241 288 241" id="aI"/><path fill="#fff" d="M750-685c-1-124-48-182-173-182-85 0-146 33-184 98V0H104v-1536h289v572c77-92 173-138 289-138 235 0 357 136 357 409V0H750v-685" id="aJ"/><path fill="#fff" d="M552-1102c254-4 435 134 435 383v469c1 103 15 180 43 233V0H738c-13-26-23-58-29-97C639-19 548 20 436 20 238 20 64-113 68-304c5-258 212-357 496-357h133c11-137-29-227-160-227-90 0-156 45-156 131H92c15-231 213-342 460-345zM357-325c0 76 61 124 142 124 88 0 168-45 198-105v-186H589c-152 2-232 51-232 167" id="aK"/><path fill="#fff" d="M719-811c-143-24-279 1-319 103V0H111v-1082h273l8 129c74-124 180-175 331-136" id="aL"/><path fill="#fff" d="M1031-175C952-60 797 20 609 20 287 20 60-206 72-543c12-330 180-559 505-559 309 0 482 214 477 537v118H365c15 134 115 234 263 234 111 0 198-40 261-121zM770-644c5-139-62-226-194-224-130 1-191 97-208 224h402" id="aM"/><path fill="#fff" d="M488 20C204 20 66-234 66-549c0-305 140-551 424-553 105 0 192 39 261 118v-552h290V0H780l-14-115C694-25 601 20 488 20zM355-528c0 176 51 314 207 314 89 0 152-38 189-113v-427c-36-75-98-113-187-113-139 0-209 113-209 339" id="aN"/><g id="b"><use transform="matrix(0.010850694444444444,0,0,0.010850694444444444,0,0)" xlink:href="#aI"/><use transform="matrix(0.010850694444444444,0,0,0.010850694444444444,13.661024305555555,0)" xlink:href="#aJ"/><use transform="matrix(0.010850694444444444,0,0,0.010850694444444444,26.09592013888889,0)" xlink:href="#aK"/><use transform="matrix(0.010850694444444444,0,0,0.010850694444444444,38.009982638888886,0)" xlink:href="#aL"/><use transform="matrix(0.010850694444444444,0,0,0.010850694444444444,45.90928819444444,0)" xlink:href="#aM"/><use transform="matrix(0.010850694444444444,0,0,0.010850694444444444,57.92100694444444,0)" xlink:href="#aN"/></g><path fill="#fff" d="M416 0H126v-1082h290V0zM271-1212c-92 0-162-61-162-150s68-149 162-149c93 0 162 60 162 149s-70 150-162 150" id="aO"/><path fill="#fff" d="M750-692c-1-124-48-174-173-175-81 0-142 35-183 104V0H105v-1082h272l9 125c77-97 181-145 311-145 244 0 342 151 342 403V0H750v-692" id="aP"/><path fill="#fff" d="M190-1174c-11-296 244-440 544-363l-3 224c-24-6-53-9-88-9-109 0-163 51-163 153v87h215v212H480V0H190v-870H29v-212h161v-92" id="aQ"/><path fill="#fff" d="M529-185c94 0 168-33 168-114 0-35-18-63-53-83s-91-39-168-55C219-491 90-600 90-765c0-208 203-337 432-337 246 0 451 124 453 349H686c-2-91-62-143-165-143-86 0-151 41-153 117 0 32 16 57 46 77 63 43 257 69 335 100 151 60 229 153 229 291C978-13 554 93 282-28 162-81 60-190 56-344h274c5 106 86 159 199 159" id="aR"/><path fill="#fff" d="M457-330c2 83 25 111 111 112 32 0 60-2 85-7V-6c-57 17-115 26-175 26-203 0-310-102-310-307v-583H10v-212h158v-266h289v266h185v212H457v540" id="aS"/><path fill="#fff" d="M463 20c-241-1-359-147-359-393v-709h289v699c0 113 51 169 154 169 98 0 165-34 202-102v-766h290V0H767l-8-110C688-23 589 20 463 20" id="aT"/><path fill="#fff" d="M355-556c-2 203 30 338 206 343 102 3 181-63 182-161h271C1001-128 821 17 566 20 242 24 66-212 66-554c0-320 184-548 498-548 262 0 451 167 450 423H743c-1-108-75-193-184-189-162 6-202 123-204 312" id="aU"/><g id="c"><use transform="matrix(0.010850694444444444,0,0,0.010850694444444444,0,0)" xlink:href="#aO"/><use transform="matrix(0.010850694444444444,0,0,0.010850694444444444,5.891927083333333,0)" xlink:href="#aP"/><use transform="matrix(0.010850694444444444,0,0,0.010850694444444444,18.33767361111111,0)" xlink:href="#aQ"/><use transform="matrix(0.010850694444444444,0,0,0.010850694444444444,26.302083333333332,0)" xlink:href="#aL"/><use transform="matrix(0.010850694444444444,0,0,0.010850694444444444,34.08203125,0)" xlink:href="#aK"/><use transform="matrix(0.010850694444444444,0,0,0.010850694444444444,45.99609375,0)" xlink:href="#aR"/><use transform="matrix(0.010850694444444444,0,0,0.010850694444444444,57.421875,0)" xlink:href="#aS"/><use transform="matrix(0.010850694444444444,0,0,0.010850694444444444,64.93055555555556,0)" xlink:href="#aL"/><use transform="matrix(0.010850694444444444,0,0,0.010850694444444444,73.03602430555556,0)" xlink:href="#aT"/><use transform="matrix(0.010850694444444444,0,0,0.010850694444444444,85.47092013888889,0)" xlink:href="#aU"/><use transform="matrix(0.010850694444444444,0,0,0.010850694444444444,97.05946180555556,0)" xlink:href="#aS"/><use transform="matrix(0.010850694444444444,0,0,0.010850694444444444,104.56814236111111,0)" xlink:href="#aT"/><use transform="matrix(0.010850694444444444,0,0,0.010850694444444444,117.00303819444444,0)" xlink:href="#aL"/><use transform="matrix(0.010850694444444444,0,0,0.010850694444444444,124.90234375,0)" xlink:href="#aM"/></g><path fill="#c6dabf" d="M341 0H156v-1082h185V0zm-91-1264c-68 0-108-42-109-105 0-62 41-107 109-107s110 44 110 107-42 105-110 105" id="aV"/><path fill="#c6dabf" d="M1240-945c-141 0-250 95-250 227V0H804v-709c0-157-77-236-231-236-121 0-204 52-249 155V0H139v-1082h175l5 120c79-93 186-140 321-140 151 0 254 58 309 174 69-98 181-174 345-174 237 0 362 126 362 377V0h-185v-714c-2-159-67-231-231-231" id="aW"/><path fill="#c6dabf" d="M632-1102c291 0 422 251 422 573 0 297-141 548-419 549-131 0-235-42-310-125v521H140v-1498h169l9 120c75-93 180-140 314-140zm-53 971c207 0 290-180 290-419 0-218-92-395-292-395-112 0-196 50-252 149v517c55 99 140 148 254 148" id="aX"/><path fill="#c6dabf" d="M584 20C278 26 81-227 91-551c10-320 175-545 491-551 308-5 503 247 494 573-9 322-175 543-492 549zm-2-970c-208 0-305 185-305 421 0 216 106 398 307 398 211 0 307-186 307-420 0-214-109-399-309-399" id="aY"/><path fill="#c6dabf" d="M663-916c-163-27-288 18-338 148V0H140v-1082h180l3 125c61-97 147-145 258-145 36 0 63 5 82 14v172" id="aZ"/><path fill="#c6dabf" d="M456 20C285 20 205-92 206-268v-671H9v-143h197v-262h185v262h202v143H391v671c-9 125 92 149 207 118V0c-49 13-96 20-142 20" id="ba"/><path fill="#c6dabf" d="M599-131c141 0 220-65 285-146l113 88C906-50 770 20 589 20 281 21 93-214 93-545c0-223 93-397 233-485 74-48 154-72 240-72 300 2 449 218 445 537v77H278c0 197 129 357 321 357zm227-509c-3-180-88-310-260-310-170 0-264 140-282 310h542" id="bb"/><path fill="#c6dabf" d="M520 20C244 20 95-247 95-550c0-298 151-550 427-552 127 0 227 43 301 130v-564h185V0H838l-9-116C755-25 652 20 520 20zm48-965c-210 0-288 177-288 416 0 218 87 392 286 392 117 0 203-53 257-158v-497c-55-102-140-153-255-153" id="bc"/><g id="d"><use transform="matrix(0.0087890625,0,0,0.0087890625,0,0)" xlink:href="#aV"/><use transform="matrix(0.0087890625,0,0,0.0087890625,4.3681640625,0)" xlink:href="#aW"/><use transform="matrix(0.0087890625,0,0,0.0087890625,20.14453125,0)" xlink:href="#aX"/><use transform="matrix(0.0087890625,0,0,0.0087890625,30.2431640625,0)" xlink:href="#aY"/><use transform="matrix(0.0087890625,0,0,0.0087890625,40.5087890625,0)" xlink:href="#aZ"/><use transform="matrix(0.0087890625,0,0,0.0087890625,47.0390625,0)" xlink:href="#ba"/><use transform="matrix(0.0087890625,0,0,0.0087890625,52.9189453125,0)" xlink:href="#bb"/><use transform="matrix(0.0087890625,0,0,0.0087890625,62.455078125,0)" xlink:href="#bc"/></g><path fill="#c6dabf" d="M634-1102c292 0 422 254 422 573 0 298-143 547-420 549-137 0-242-48-317-145L310 0H140v-1536h185v573c75-93 178-139 309-139zm-44 965c207 0 281-175 281-413 0-224-79-395-283-395-122 0-210 57-263 170v468c57 113 145 170 265 170" id="bd"/><path fill="#c6dabf" d="M494-271l252-811h198L509 167C425 381 299 474 84 421V271c167 16 242-37 283-173l41-110L22-1082h202" id="be"/><g id="e"><use transform="matrix(0.0087890625,0,0,0.0087890625,0,0)" xlink:href="#bd"/><use transform="matrix(0.0087890625,0,0,0.0087890625,10.001953125,0)" xlink:href="#be"/></g><path fill="#c6dabf" d="M497-251l268-831h189L566 0H425L33-1082h189" id="bf"/><g id="f"><use transform="matrix(0.0087890625,0,0,0.0087890625,0,0)" xlink:href="#bb"/><use transform="matrix(0.0087890625,0,0,0.0087890625,9.421875,0)" xlink:href="#bf"/><use transform="matrix(0.0087890625,0,0,0.0087890625,18.0263671875,0)" xlink:href="#bb"/><use transform="matrix(0.0087890625,0,0,0.0087890625,27.5625,0)" xlink:href="#aZ"/><use transform="matrix(0.0087890625,0,0,0.0087890625,33.8115234375,0)" xlink:href="#be"/></g><path fill="#c6dabf" d="M491 20c-241-1-355-148-355-398v-704h185v699c0 164 67 246 200 246 141 0 235-53 282-158v-787h185V0H812l-4-107C736-22 630 20 491 20" id="bg"/><path fill="#c6dabf" d="M341 0H156v-1536h185V0" id="bh"/><g id="g"><use transform="matrix(0.0087890625,0,0,0.0087890625,0,0)" xlink:href="#aW"/><use transform="matrix(0.0087890625,0,0,0.0087890625,15.7763671875,0)" xlink:href="#aY"/><use transform="matrix(0.0087890625,0,0,0.0087890625,26.0419921875,0)" xlink:href="#bc"/><use transform="matrix(0.0087890625,0,0,0.0087890625,36.193359375,0)" xlink:href="#bg"/><use transform="matrix(0.0087890625,0,0,0.0087890625,46.1162109375,0)" xlink:href="#bh"/><use transform="matrix(0.0087890625,0,0,0.0087890625,50.484375,0)" xlink:href="#bb"/></g><path fill="#c6dabf" d="M561-1102c238-4 403 126 403 351v498c0 99 13 178 38 237V0H808c-11-21-19-59-26-114C696-25 593 20 474 20c-199 0-368-130-365-320 4-251 214-359 490-356h180v-85c-1-135-86-212-229-212-115 0-232 67-233 171H131c20-205 206-316 430-320zM294-326c0 117 90 185 207 185 122 0 239-75 278-162v-222H634c-227 0-340 66-340 199" id="bi"/><g id="h"><use transform="matrix(0.0087890625,0,0,0.0087890625,0,0)" xlink:href="#bi"/><use transform="matrix(0.0087890625,0,0,0.0087890625,9.791015625,0)" xlink:href="#bd"/><use transform="matrix(0.0087890625,0,0,0.0087890625,19.8896484375,0)" xlink:href="#aY"/><use transform="matrix(0.0087890625,0,0,0.0087890625,30.0234375,0)" xlink:href="#bf"/><use transform="matrix(0.0087890625,0,0,0.0087890625,38.6279296875,0)" xlink:href="#bb"/></g><linearGradient gradientUnits="userSpaceOnUse" id="i" x1="1024.94" y1="401.11" x2="1024.94" y2="541.25"><stop offset="1.81%" stop-color="#e5f4df"/><stop offset="100%" stop-color="#c6dabf"/></linearGradient><path d="M416 0H126v-1082h290V0zM271-1212c-92 0-162-61-162-150s68-149 162-149c93 0 162 60 162 149s-70 150-162 150" id="bj"/><path d="M750-692c-1-124-48-174-173-175-81 0-142 35-183 104V0H105v-1082h272l9 125c77-97 181-145 311-145 244 0 342 151 342 403V0H750v-692" id="bk"/><path d="M488 20C204 20 66-234 66-549c0-305 140-551 424-553 105 0 192 39 261 118v-552h290V0H780l-14-115C694-25 601 20 488 20zM355-528c0 176 51 314 207 314 89 0 152-38 189-113v-427c-36-75-98-113-187-113-139 0-209 113-209 339" id="bl"/><path d="M1031-175C952-60 797 20 609 20 287 20 60-206 72-543c12-330 180-559 505-559 309 0 482 214 477 537v118H365c15 134 115 234 263 234 111 0 198-40 261-121zM770-644c5-139-62-226-194-224-130 1-191 97-208 224h402" id="bm"/><path d="M523-759l182-323h309L706-552 1027 0H717L524-340 332 0H21l321-552-307-530h310" id="bn"/><path d="M289 11c-91 0-163-63-163-153 0-91 73-155 163-155 91 0 164 64 164 155S381 11 289 11" id="bo"/><path d="M457-330c2 83 25 111 111 112 32 0 60-2 85-7V-6c-57 17-115 26-175 26-203 0-310-102-310-307v-583H10v-212h158v-266h289v266h185v212H457v540" id="bp"/><path d="M529-185c94 0 168-33 168-114 0-35-18-63-53-83s-91-39-168-55C219-491 90-600 90-765c0-208 203-337 432-337 246 0 451 124 453 349H686c-2-91-62-143-165-143-86 0-151 41-153 117 0 32 16 57 46 77 63 43 257 69 335 100 151 60 229 153 229 291C978-13 554 93 282-28 162-81 60-190 56-344h274c5 106 86 159 199 159" id="bq"/><g id="j"><use transform="matrix(0.010850694444444444,0,0,0.010850694444444444,0,0)" xlink:href="#bj"/><use transform="matrix(0.010850694444444444,0,0,0.010850694444444444,5.891927083333333,0)" xlink:href="#bk"/><use transform="matrix(0.010850694444444444,0,0,0.010850694444444444,18.33767361111111,0)" xlink:href="#bl"/><use transform="matrix(0.010850694444444444,0,0,0.010850694444444444,30.859375,0)" xlink:href="#bm"/><use transform="matrix(0.010850694444444444,0,0,0.010850694444444444,42.87109375,0)" xlink:href="#bn"/><use transform="matrix(0.010850694444444444,0,0,0.010850694444444444,54.17751736111112,0)" xlink:href="#bo"/><use transform="matrix(0.010850694444444444,0,0,0.010850694444444444,60.63368055555555,0)" xlink:href="#bp"/><use transform="matrix(0.010850694444444444,0,0,0.010850694444444444,68.14236111111111,0)" xlink:href="#bq"/></g><path fill="#3a414a" d="M538-131c121 0 232-49 232-156 0-50-20-88-56-117-73-60-334-92-420-143-92-55-162-110-162-238 0-190 192-317 400-317 223 0 414 129 413 338H759c0-108-110-186-227-186-119 0-215 53-215 159 0 45 18 78 53 101 76 52 331 90 416 139 98 57 169 115 169 251C955-92 760 20 538 20c-176 0-314-68-386-174-38-55-57-115-57-179h185c6 129 116 202 258 202" id="br"/><path fill="#3a414a" d="M663-916c-163-27-288 18-338 148V0H140v-1082h180l3 125c61-97 147-145 258-145 36 0 63 5 82 14v172" id="bs"/><path fill="#3a414a" d="M277-555c0 244 77 420 297 424 127 2 249-93 255-210h175C980-127 805 20 574 20 258 20 81-222 92-562c11-319 164-533 481-540 237-5 426 165 431 392H829c-7-133-115-242-256-240-209 4-296 166-296 395" id="bt"/><path fill="#3a414a" d="M177 125H18l608-1581h158" id="bu"/><path fill="#3a414a" d="M456 20C285 20 205-92 206-268v-671H9v-143h197v-262h185v262h202v143H391v671c-9 125 92 149 207 118V0c-49 13-96 20-142 20" id="bv"/><g id="k"><use transform="matrix(0.0087890625,0,0,0.0087890625,0,0)" xlink:href="#br"/><use transform="matrix(0.0087890625,0,0,0.0087890625,9.28125,0)" xlink:href="#bs"/><use transform="matrix(0.0087890625,0,0,0.0087890625,15.205078125,0)" xlink:href="#bt"/><use transform="matrix(0.0087890625,0,0,0.0087890625,24.626953125,0)" xlink:href="#bu"/><use transform="matrix(0.0087890625,0,0,0.0087890625,32.044921875,0)" xlink:href="#bv"/><use transform="matrix(0.0087890625,0,0,0.0087890625,37.9248046875,0)" xlink:href="#br"/><use transform="matrix(0.0087890625,0,0,0.0087890625,47.2060546875,0)" xlink:href="#bu"/></g><path d="M1216-1011c-1 297-202 441-512 441H361V0H169v-1456h537c297-6 510 164 510 445zm-192 2c1-178-126-288-307-289H361v571h345c196 1 318-92 318-282" id="bw"/><path d="M491 20c-241-1-355-148-355-398v-704h185v699c0 164 67 246 200 246 141 0 235-53 282-158v-787h185V0H812l-4-107C736-22 630 20 491 20" id="bx"/><path d="M634-1102c292 0 422 254 422 573 0 298-143 547-420 549-137 0-242-48-317-145L310 0H140v-1536h185v573c75-93 178-139 309-139zm-44 965c207 0 281-175 281-413 0-224-79-395-283-395-122 0-210 57-263 170v468c57 113 145 170 265 170" id="by"/><path d="M341 0H156v-1536h185V0" id="bz"/><path d="M341 0H156v-1082h185V0zm-91-1264c-68 0-108-42-109-105 0-62 41-107 109-107s110 44 110 107-42 105-110 105" id="bA"/><path d="M277-555c0 244 77 420 297 424 127 2 249-93 255-210h175C980-127 805 20 574 20 258 20 81-222 92-562c11-319 164-533 481-540 237-5 426 165 431 392H829c-7-133-115-242-256-240-209 4-296 166-296 395" id="bB"/><g id="l"><use transform="matrix(0.0087890625,0,0,0.0087890625,0,0)" xlink:href="#bw"/><use transform="matrix(0.0087890625,0,0,0.0087890625,11.35546875,0)" xlink:href="#bx"/><use transform="matrix(0.0087890625,0,0,0.0087890625,21.2783203125,0)" xlink:href="#by"/><use transform="matrix(0.0087890625,0,0,0.0087890625,31.376953125,0)" xlink:href="#bz"/><use transform="matrix(0.0087890625,0,0,0.0087890625,35.7451171875,0)" xlink:href="#bA"/><use transform="matrix(0.0087890625,0,0,0.0087890625,40.11328125,0)" xlink:href="#bB"/></g><path d="M973-380H363L226 0H28l556-1456h168L1309 0h-197zM421-538h495l-248-681" id="bC"/><path d="M375 0H183v-1456h192V0" id="bD"/><g id="m"><use transform="matrix(0.0087890625,0,0,0.0087890625,0,0)" xlink:href="#bC"/><use transform="matrix(0.0087890625,0,0,0.0087890625,11.7421875,0)" xlink:href="#bw"/><use transform="matrix(0.0087890625,0,0,0.0087890625,23.09765625,0)" xlink:href="#bD"/></g><path d="M561-1102c238-4 403 126 403 351v498c0 99 13 178 38 237V0H808c-11-21-19-59-26-114C696-25 593 20 474 20c-199 0-368-130-365-320 4-251 214-359 490-356h180v-85c-1-135-86-212-229-212-115 0-232 67-233 171H131c20-205 206-316 430-320zM294-326c0 117 90 185 207 185 122 0 239-75 278-162v-222H634c-227 0-340 66-340 199" id="bE"/><path d="M663-916c-163-27-288 18-338 148V0H140v-1082h180l3 125c61-97 147-145 258-145 36 0 63 5 82 14v172" id="bF"/><path d="M599-131c141 0 220-65 285-146l113 88C906-50 770 20 589 20 281 21 93-214 93-545c0-223 93-397 233-485 74-48 154-72 240-72 300 2 449 218 445 537v77H278c0 197 129 357 321 357zm227-509c-3-180-88-310-260-310-170 0-264 140-282 310h542" id="bG"/><g id="n"><use transform="matrix(0.0087890625,0,0,0.0087890625,0,0)" xlink:href="#by"/><use transform="matrix(0.0087890625,0,0,0.0087890625,10.0986328125,0)" xlink:href="#bE"/><use transform="matrix(0.0087890625,0,0,0.0087890625,19.8896484375,0)" xlink:href="#bF"/><use transform="matrix(0.0087890625,0,0,0.0087890625,25.98046875,0)" xlink:href="#bF"/><use transform="matrix(0.0087890625,0,0,0.0087890625,31.904296875,0)" xlink:href="#bG"/><use transform="matrix(0.0087890625,0,0,0.0087890625,41.4404296875,0)" xlink:href="#bz"/></g><path d="M525-543H37v-151h488v151" id="bH"/><path d="M503-687l240-395h216L605-547 970 0H756L506-405 256 0H41l365-547-354-535h214" id="bI"/><path d="M632-1102c291 0 422 251 422 573 0 297-141 548-419 549-131 0-235-42-310-125v521H140v-1498h169l9 120c75-93 180-140 314-140zm-53 971c207 0 290-180 290-419 0-218-92-395-292-395-112 0-196 50-252 149v517c55 99 140 148 254 148" id="bJ"/><path d="M584 20C278 26 81-227 91-551c10-320 175-545 491-551 308-5 503 247 494 573-9 322-175 543-492 549zm-2-970c-208 0-305 185-305 421 0 216 106 398 307 398 211 0 307-186 307-420 0-214-109-399-309-399" id="bK"/><path d="M456 20C285 20 205-92 206-268v-671H9v-143h197v-262h185v262h202v143H391v671c-9 125 92 149 207 118V0c-49 13-96 20-142 20" id="bL"/><path d="M538-131c121 0 232-49 232-156 0-50-20-88-56-117-73-60-334-92-420-143-92-55-162-110-162-238 0-190 192-317 400-317 223 0 414 129 413 338H759c0-108-110-186-227-186-119 0-215 53-215 159 0 45 18 78 53 101 76 52 331 90 416 139 98 57 169 115 169 251C955-92 760 20 538 20c-176 0-314-68-386-174-38-55-57-115-57-179h185c6 129 116 202 258 202" id="bM"/><g id="o"><use transform="matrix(0.0087890625,0,0,0.0087890625,0,0)" xlink:href="#bF"/><use transform="matrix(0.0087890625,0,0,0.0087890625,5.923828125,0)" xlink:href="#bG"/><use transform="matrix(0.0087890625,0,0,0.0087890625,15.4599609375,0)" xlink:href="#bH"/><use transform="matrix(0.0087890625,0,0,0.0087890625,20.42578125,0)" xlink:href="#bG"/><use transform="matrix(0.0087890625,0,0,0.0087890625,29.9619140625,0)" xlink:href="#bI"/><use transform="matrix(0.0087890625,0,0,0.0087890625,38.8828125,0)" xlink:href="#bJ"/><use transform="matrix(0.0087890625,0,0,0.0087890625,48.9814453125,0)" xlink:href="#bK"/><use transform="matrix(0.0087890625,0,0,0.0087890625,59.2470703125,0)" xlink:href="#bF"/><use transform="matrix(0.0087890625,0,0,0.0087890625,65.77734375,0)" xlink:href="#bL"/><use transform="matrix(0.0087890625,0,0,0.0087890625,71.6572265625,0)" xlink:href="#bM"/></g><g id="p"><use transform="matrix(0.0087890625,0,0,0.0087890625,0,0)" xlink:href="#bE"/><use transform="matrix(0.0087890625,0,0,0.0087890625,9.791015625,0)" xlink:href="#bz"/><use transform="matrix(0.0087890625,0,0,0.0087890625,14.1591796875,0)" xlink:href="#bz"/></g><path d="M1240-945c-141 0-250 95-250 227V0H804v-709c0-157-77-236-231-236-121 0-204 52-249 155V0H139v-1082h175l5 120c79-93 186-140 321-140 151 0 254 58 309 174 69-98 181-174 345-174 237 0 362 126 362 377V0h-185v-714c-2-159-67-231-231-231" id="bN"/><path d="M520 20C244 20 95-247 95-550c0-298 151-550 427-552 127 0 227 43 301 130v-564h185V0H838l-9-116C755-25 652 20 520 20zm48-965c-210 0-288 177-288 416 0 218 87 392 286 392 117 0 203-53 257-158v-497c-55-102-140-153-255-153" id="bO"/><g id="q"><use transform="matrix(0.0087890625,0,0,0.0087890625,0,0)" xlink:href="#bN"/><use transform="matrix(0.0087890625,0,0,0.0087890625,15.7763671875,0)" xlink:href="#bK"/><use transform="matrix(0.0087890625,0,0,0.0087890625,26.0419921875,0)" xlink:href="#bO"/><use transform="matrix(0.0087890625,0,0,0.0087890625,36.193359375,0)" xlink:href="#bx"/><use transform="matrix(0.0087890625,0,0,0.0087890625,46.1162109375,0)" xlink:href="#bz"/><use transform="matrix(0.0087890625,0,0,0.0087890625,50.484375,0)" xlink:href="#bG"/><use transform="matrix(0.0087890625,0,0,0.0087890625,60.0205078125,0)" xlink:href="#bM"/></g><path d="M1098-255l208-827h185L1176 0h-150L763-820 507 0H357L43-1082h184l213 810 252-810h149" id="bP"/><g id="r"><use transform="matrix(0.0087890625,0,0,0.0087890625,0,0)" xlink:href="#by"/><use transform="matrix(0.0087890625,0,0,0.0087890625,10.0986328125,0)" xlink:href="#bG"/><use transform="matrix(0.0087890625,0,0,0.0087890625,19.634765625,0)" xlink:href="#bz"/><use transform="matrix(0.0087890625,0,0,0.0087890625,24.0029296875,0)" xlink:href="#bK"/><use transform="matrix(0.0087890625,0,0,0.0087890625,34.2685546875,0)" xlink:href="#bP"/></g><linearGradient gradientUnits="userSpaceOnUse" id="s" x1="666.84" y1="578.76" x2="666.84" y2="792.01"><stop offset="0%" stop-color="#1a936f"/><stop offset="100%" stop-color="#0d654b"/></linearGradient><path fill="#fff" d="M741-689c-2-124-40-177-163-178-82 0-141 34-178 102V0H111v-1082h271l9 121c77-94 180-141 311-141 139 0 235 55 287 165 76-110 184-165 325-165 249 0 348 151 348 411V0h-290v-690c-2-123-39-176-163-177-87 0-147 41-180 124l1 743H741v-689" id="bQ"/><path fill="#fff" d="M202 125H-13l536-1581h215" id="bR"/><g id="t"><use transform="matrix(0.010850694444444444,0,0,0.010850694444444444,0,0)" xlink:href="#aR"/><use transform="matrix(0.010850694444444444,0,0,0.010850694444444444,11.42578125,0)" xlink:href="#aS"/><use transform="matrix(0.010850694444444444,0,0,0.010850694444444444,18.934461805555557,0)" xlink:href="#aL"/><use transform="matrix(0.010850694444444444,0,0,0.010850694444444444,26.833767361111114,0)" xlink:href="#aM"/><use transform="matrix(0.010850694444444444,0,0,0.010850694444444444,38.845486111111114,0)" xlink:href="#aK"/><use transform="matrix(0.010850694444444444,0,0,0.010850694444444444,50.75954861111112,0)" xlink:href="#bQ"/><use transform="matrix(0.010850694444444444,0,0,0.010850694444444444,69.99782986111111,0)" xlink:href="#bR"/></g><path fill="#c6dabf" d="M973-380H363L226 0H28l556-1456h168L1309 0h-197zM421-538h495l-248-681" id="bS"/><path fill="#c6dabf" d="M992-673H361v516h733V0H169v-1456h915v158H361v468h631v157" id="bT"/><path fill="#c6dabf" d="M1222-777c17 480-206 763-650 777H169v-1456h411c408 9 627 269 642 679zm-190 4c3-312-149-522-447-525H361v1141h202c308 0 473-209 469-531v-85" id="bU"/><g id="u"><use transform="matrix(0.0087890625,0,0,0.0087890625,0,0)" xlink:href="#bS"/><use transform="matrix(0.0087890625,0,0,0.0087890625,11.7421875,0)" xlink:href="#bT"/><use transform="matrix(0.0087890625,0,0,0.0087890625,21.97265625,0)" xlink:href="#bS"/><use transform="matrix(0.0087890625,0,0,0.0087890625,33.71484375,0)" xlink:href="#bU"/></g><path fill="#c6dabf" d="M277-555c0 244 77 420 297 424 127 2 249-93 255-210h175C980-127 805 20 574 20 258 20 81-222 92-562c11-319 164-533 481-540 237-5 426 165 431 392H829c-7-133-115-242-256-240-209 4-296 166-296 395" id="bV"/><path fill="#c6dabf" d="M589-945c-131 0-219 81-264 174V0H140v-1082h175l6 136c83-104 191-156 324-156 229 0 346 129 346 387V0H806v-716c-2-153-65-229-217-229" id="bW"/><path fill="#c6dabf" d="M538-131c121 0 232-49 232-156 0-50-20-88-56-117-73-60-334-92-420-143-92-55-162-110-162-238 0-190 192-317 400-317 223 0 414 129 413 338H759c0-108-110-186-227-186-119 0-215 53-215 159 0 45 18 78 53 101 76 52 331 90 416 139 98 57 169 115 169 251C955-92 760 20 538 20c-176 0-314-68-386-174-38-55-57-115-57-179h185c6 129 116 202 258 202" id="bX"/><g id="v"><use transform="matrix(0.0087890625,0,0,0.0087890625,0,0)" xlink:href="#bV"/><use transform="matrix(0.0087890625,0,0,0.0087890625,9.421875,0)" xlink:href="#aY"/><use transform="matrix(0.0087890625,0,0,0.0087890625,19.6875,0)" xlink:href="#bW"/><use transform="matrix(0.0087890625,0,0,0.0087890625,29.619140625,0)" xlink:href="#bX"/><use transform="matrix(0.0087890625,0,0,0.0087890625,38.900390625,0)" xlink:href="#ba"/><use transform="matrix(0.0087890625,0,0,0.0087890625,44.7802734375,0)" xlink:href="#aZ"/><use transform="matrix(0.0087890625,0,0,0.0087890625,50.87109375,0)" xlink:href="#bg"/><use transform="matrix(0.0087890625,0,0,0.0087890625,60.7939453125,0)" xlink:href="#bV"/><use transform="matrix(0.0087890625,0,0,0.0087890625,70.2158203125,0)" xlink:href="#ba"/><use transform="matrix(0.0087890625,0,0,0.0087890625,76.095703125,0)" xlink:href="#aV"/><use transform="matrix(0.0087890625,0,0,0.0087890625,80.4638671875,0)" xlink:href="#aY"/><use transform="matrix(0.0087890625,0,0,0.0087890625,90.7294921875,0)" xlink:href="#bW"/><use transform="matrix(0.0087890625,0,0,0.0087890625,100.6611328125,0)" xlink:href="#bX"/></g><path fill="#fff" d="M631-137c179 0 314-70 314-231 0-71-25-127-75-166s-141-77-272-115c-165-47-285-106-360-175s-112-154-112-255c0-245 231-397 495-397 206 0 369 89 449 218 43 68 65 142 65 223H942c0-184-129-283-321-283-172 0-299 76-301 236 0 59 26 109 76 150s135 78 256 113c205 59 345 116 436 256 35 53 50 119 50 193-2 256-231 398-507 390C333 12 90-129 80-422h193c0 187 160 285 358 285" id="bY"/><path fill="#fff" d="M599-131c141 0 220-65 285-146l113 88C906-50 770 20 589 20 281 21 93-214 93-545c0-223 93-397 233-485 74-48 154-72 240-72 300 2 449 218 445 537v77H278c0 197 129 357 321 357zm227-509c-3-180-88-310-260-310-170 0-264 140-282 310h542" id="bZ"/><path fill="#fff" d="M561-1102c238-4 403 126 403 351v498c0 99 13 178 38 237V0H808c-11-21-19-59-26-114C696-25 593 20 474 20c-199 0-368-130-365-320 4-251 214-359 490-356h180v-85c-1-135-86-212-229-212-115 0-232 67-233 171H131c20-205 206-316 430-320zM294-326c0 117 90 185 207 185 122 0 239-75 278-162v-222H634c-227 0-340 66-340 199" id="ca"/><path fill="#fff" d="M341 0H156v-1536h185V0" id="cb"/><g id="w"><use transform="matrix(0.0087890625,0,0,0.0087890625,0,0)" xlink:href="#bY"/><use transform="matrix(0.0087890625,0,0,0.0087890625,10.6787109375,0)" xlink:href="#bZ"/><use transform="matrix(0.0087890625,0,0,0.0087890625,20.21484375,0)" xlink:href="#ca"/><use transform="matrix(0.0087890625,0,0,0.0087890625,30.005859375,0)" xlink:href="#cb"/></g><path fill="#fff" d="M261-619c-71 0-114-44-114-110 0-67 42-112 114-112s116 45 116 112c0 66-45 110-116 110" id="cc"/><use transform="matrix(0.0087890625,0,0,0.0087890625,0,0)" xlink:href="#cc" id="x"/><path fill="#fff" d="M456 20C285 20 205-92 206-268v-671H9v-143h197v-262h185v262h202v143H391v671c-9 125 92 149 207 118V0c-49 13-96 20-142 20" id="cd"/><path fill="#fff" d="M663-916c-163-27-288 18-338 148V0H140v-1082h180l3 125c61-97 147-145 258-145 36 0 63 5 82 14v172" id="ce"/><path fill="#fff" d="M1240-945c-141 0-250 95-250 227V0H804v-709c0-157-77-236-231-236-121 0-204 52-249 155V0H139v-1082h175l5 120c79-93 186-140 321-140 151 0 254 58 309 174 69-98 181-174 345-174 237 0 362 126 362 377V0h-185v-714c-2-159-67-231-231-231" id="cf"/><g id="y"><use transform="matrix(0.0087890625,0,0,0.0087890625,0,0)" xlink:href="#bY"/><use transform="matrix(0.0087890625,0,0,0.0087890625,10.6787109375,0)" xlink:href="#bZ"/><use transform="matrix(0.0087890625,0,0,0.0087890625,20.21484375,0)" xlink:href="#ca"/><use transform="matrix(0.0087890625,0,0,0.0087890625,30.005859375,0)" xlink:href="#cb"/><use transform="matrix(0.0087890625,0,0,0.0087890625,34.3740234375,0)" xlink:href="#bY"/><use transform="matrix(0.0087890625,0,0,0.0087890625,45.052734375,0)" xlink:href="#cd"/><use transform="matrix(0.0087890625,0,0,0.0087890625,50.9326171875,0)" xlink:href="#ce"/><use transform="matrix(0.0087890625,0,0,0.0087890625,56.8564453125,0)" xlink:href="#bZ"/><use transform="matrix(0.0087890625,0,0,0.0087890625,66.392578125,0)" xlink:href="#ca"/><use transform="matrix(0.0087890625,0,0,0.0087890625,76.18359375,0)" xlink:href="#cf"/></g><path fill="#fff" d="M703-1476c426 0 599 333 586 795-11 408-187 701-584 701-422 0-587-333-587-793 0-282 106-507 280-617 89-56 190-86 305-86zm2 1333c312 0 393-279 393-632 0-308-116-536-395-536-269 0-394 232-394 523v107c-4 298 123 538 396 538" id="cg"/><path fill="#fff" d="M632-1102c291 0 422 251 422 573 0 297-141 548-419 549-131 0-235-42-310-125v521H140v-1498h169l9 120c75-93 180-140 314-140zm-53 971c207 0 290-180 290-419 0-218-92-395-292-395-112 0-196 50-252 149v517c55 99 140 148 254 148" id="ch"/><path fill="#fff" d="M589-945c-131 0-219 81-264 174V0H140v-1082h175l6 136c83-104 191-156 324-156 229 0 346 129 346 387V0H806v-716c-2-153-65-229-217-229" id="ci"/><g id="z"><use transform="matrix(0.0087890625,0,0,0.0087890625,0,0)" xlink:href="#cg"/><use transform="matrix(0.0087890625,0,0,0.0087890625,12.375,0)" xlink:href="#ch"/><use transform="matrix(0.0087890625,0,0,0.0087890625,22.4736328125,0)" xlink:href="#bZ"/><use transform="matrix(0.0087890625,0,0,0.0087890625,32.009765625,0)" xlink:href="#ci"/><use transform="matrix(0.0087890625,0,0,0.0087890625,41.94140625,0)" xlink:href="#bY"/><use transform="matrix(0.0087890625,0,0,0.0087890625,52.6201171875,0)" xlink:href="#cd"/><use transform="matrix(0.0087890625,0,0,0.0087890625,58.5,0)" xlink:href="#ce"/><use transform="matrix(0.0087890625,0,0,0.0087890625,64.423828125,0)" xlink:href="#bZ"/><use transform="matrix(0.0087890625,0,0,0.0087890625,73.9599609375,0)" xlink:href="#ca"/><use transform="matrix(0.0087890625,0,0,0.0087890625,83.7509765625,0)" xlink:href="#cf"/></g><path fill="#fff" d="M1216-1011c-1 297-202 441-512 441H361V0H169v-1456h537c297-6 510 164 510 445zm-192 2c1-178-126-288-307-289H361v571h345c196 1 318-92 318-282" id="cj"/><path fill="#fff" d="M584 20C278 26 81-227 91-551c10-320 175-545 491-551 308-5 503 247 494 573-9 322-175 543-492 549zm-2-970c-208 0-305 185-305 421 0 216 106 398 307 398 211 0 307-186 307-420 0-214-109-399-309-399" id="ck"/><g id="A"><use transform="matrix(0.0087890625,0,0,0.0087890625,0,0)" xlink:href="#bY"/><use transform="matrix(0.0087890625,0,0,0.0087890625,10.6787109375,0)" xlink:href="#bZ"/><use transform="matrix(0.0087890625,0,0,0.0087890625,20.21484375,0)" xlink:href="#ca"/><use transform="matrix(0.0087890625,0,0,0.0087890625,30.005859375,0)" xlink:href="#cb"/><use transform="matrix(0.0087890625,0,0,0.0087890625,34.3740234375,0)" xlink:href="#bY"/><use transform="matrix(0.0087890625,0,0,0.0087890625,45.052734375,0)" xlink:href="#cd"/><use transform="matrix(0.0087890625,0,0,0.0087890625,50.9326171875,0)" xlink:href="#ce"/><use transform="matrix(0.0087890625,0,0,0.0087890625,56.8564453125,0)" xlink:href="#bZ"/><use transform="matrix(0.0087890625,0,0,0.0087890625,66.392578125,0)" xlink:href="#ca"/><use transform="matrix(0.0087890625,0,0,0.0087890625,76.18359375,0)" xlink:href="#cf"/><use transform="matrix(0.0087890625,0,0,0.0087890625,91.9599609375,0)" xlink:href="#cj"/><use transform="matrix(0.0087890625,0,0,0.0087890625,103.201171875,0)" xlink:href="#ck"/><use transform="matrix(0.0087890625,0,0,0.0087890625,113.466796875,0)" xlink:href="#ck"/><use transform="matrix(0.0087890625,0,0,0.0087890625,123.732421875,0)" xlink:href="#cb"/></g><linearGradient gradientUnits="userSpaceOnUse" id="B" x1="1078.29" y1="578.76" x2="1078.29" y2="792.01"><stop offset="0%" stop-color="#1a936f"/><stop offset="100%" stop-color="#0d654b"/></linearGradient><g id="C"><use transform="matrix(0.010850694444444444,0,0,0.010850694444444444,0,0)" xlink:href="#aL"/><use transform="matrix(0.010850694444444444,0,0,0.010850694444444444,7.779947916666666,0)" xlink:href="#aK"/><use transform="matrix(0.010850694444444444,0,0,0.010850694444444444,19.694010416666668,0)" xlink:href="#aS"/><use transform="matrix(0.010850694444444444,0,0,0.010850694444444444,27.20269097222222,0)" xlink:href="#aU"/><use transform="matrix(0.010850694444444444,0,0,0.010850694444444444,38.791232638888886,0)" xlink:href="#aJ"/><use transform="matrix(0.010850694444444444,0,0,0.010850694444444444,51.22612847222221,0)" xlink:href="#aM"/><use transform="matrix(0.010850694444444444,0,0,0.010850694444444444,63.23784722222221,0)" xlink:href="#aS"/><use transform="matrix(0.010850694444444444,0,0,0.010850694444444444,70.74652777777777,0)" xlink:href="#bR"/></g><path fill="#c6dabf" d="M631-137c179 0 314-70 314-231 0-71-25-127-75-166s-141-77-272-115c-165-47-285-106-360-175s-112-154-112-255c0-245 231-397 495-397 206 0 369 89 449 218 43 68 65 142 65 223H942c0-184-129-283-321-283-172 0-299 76-301 236 0 59 26 109 76 150s135 78 256 113c205 59 345 116 436 256 35 53 50 119 50 193-2 256-231 398-507 390C333 12 90-129 80-422h193c0 187 160 285 358 285" id="cl"/><path fill="#c6dabf" d="M1216-1011c-1 297-202 441-512 441H361V0H169v-1456h537c297-6 510 164 510 445zm-192 2c1-178-126-288-307-289H361v571h345c196 1 318-92 318-282" id="cm"/><path fill="#c6dabf" d="M1281-774c0 326-74 568-255 695l260 204-131 121L848 2C681 41 515 15 391-64 196-188 109-439 109-773c0-282 107-505 279-617 171-112 445-111 616-1 174 112 277 332 277 617zM696-143c312 0 393-279 393-632 0-307-114-536-395-536-268 0-393 232-393 523v107c-3 297 122 538 395 538" id="cn"/><path fill="#c6dabf" d="M1161-1018c0 201-122 330-278 388l342 618V0h-206L703-589H361V0H168v-1456h482c310-2 511 139 511 438zm-193 0c0-187-120-280-313-280H361v552h295c179 3 313-101 312-272" id="co"/><g id="D"><use transform="matrix(0.0087890625,0,0,0.0087890625,0,0)" xlink:href="#cl"/><use transform="matrix(0.0087890625,0,0,0.0087890625,10.6787109375,0)" xlink:href="#cm"/><use transform="matrix(0.0087890625,0,0,0.0087890625,22.0341796875,0)" xlink:href="#cn"/><use transform="matrix(0.0087890625,0,0,0.0087890625,34.4091796875,0)" xlink:href="#co"/></g><path fill="#c6dabf" d="M539-677L361-492V0H169v-1456h192v720l647-720h232L667-813 1285 0h-230" id="cp"/><path fill="#c6dabf" d="M972-643H361V0H169v-1456h902v158H361v498h611v157" id="cq"/><g id="E"><use transform="matrix(0.0087890625,0,0,0.0087890625,0,0)" xlink:href="#cp"/><use transform="matrix(0.0087890625,0,0,0.0087890625,11.28515625,0)" xlink:href="#bU"/><use transform="matrix(0.0087890625,0,0,0.0087890625,23.0888671875,0)" xlink:href="#cq"/></g><g id="F"><use transform="matrix(0.0087890625,0,0,0.0087890625,0,0)" xlink:href="#aX"/><use transform="matrix(0.0087890625,0,0,0.0087890625,10.0986328125,0)" xlink:href="#aZ"/><use transform="matrix(0.0087890625,0,0,0.0087890625,16.189453125,0)" xlink:href="#aV"/><use transform="matrix(0.0087890625,0,0,0.0087890625,20.5576171875,0)" xlink:href="#aW"/><use transform="matrix(0.0087890625,0,0,0.0087890625,36.333984375,0)" xlink:href="#aV"/><use transform="matrix(0.0087890625,0,0,0.0087890625,40.7021484375,0)" xlink:href="#ba"/><use transform="matrix(0.0087890625,0,0,0.0087890625,46.58203125,0)" xlink:href="#aV"/><use transform="matrix(0.0087890625,0,0,0.0087890625,50.9501953125,0)" xlink:href="#bf"/><use transform="matrix(0.0087890625,0,0,0.0087890625,59.5546875,0)" xlink:href="#bb"/><use transform="matrix(0.0087890625,0,0,0.0087890625,69.0908203125,0)" xlink:href="#bX"/></g><path fill="#fff" d="M277-555c0 244 77 420 297 424 127 2 249-93 255-210h175C980-127 805 20 574 20 258 20 81-222 92-562c11-319 164-533 481-540 237-5 426 165 431 392H829c-7-133-115-242-256-240-209 4-296 166-296 395" id="cr"/><path fill="#fff" d="M589-945c-131 0-219 81-264 174V0H140v-1536h185v585c82-101 189-151 320-151 229 0 346 129 346 387V0H806v-716c-2-153-65-229-217-229" id="cs"/><path fill="#fff" d="M375 0H183v-1456h192V0" id="ct"/><path fill="#fff" d="M341 0H156v-1082h185V0zm-91-1264c-68 0-108-42-109-105 0-62 41-107 109-107s110 44 110 107-42 105-110 105" id="cu"/><g id="G"><use transform="matrix(0.0087890625,0,0,0.0087890625,0,0)" xlink:href="#ce"/><use transform="matrix(0.0087890625,0,0,0.0087890625,5.7392578125,0)" xlink:href="#ca"/><use transform="matrix(0.0087890625,0,0,0.0087890625,15.5302734375,0)" xlink:href="#cd"/><use transform="matrix(0.0087890625,0,0,0.0087890625,21.41015625,0)" xlink:href="#cr"/><use transform="matrix(0.0087890625,0,0,0.0087890625,30.83203125,0)" xlink:href="#cs"/><use transform="matrix(0.0087890625,0,0,0.0087890625,40.74609375,0)" xlink:href="#bZ"/><use transform="matrix(0.0087890625,0,0,0.0087890625,50.2822265625,0)" xlink:href="#cd"/><use transform="matrix(0.0087890625,0,0,0.0087890625,56.162109375,0)" xlink:href="#ct"/><use transform="matrix(0.0087890625,0,0,0.0087890625,61.0576171875,0)" xlink:href="#ci"/><use transform="matrix(0.0087890625,0,0,0.0087890625,70.9892578125,0)" xlink:href="#cu"/><use transform="matrix(0.0087890625,0,0,0.0087890625,75.357421875,0)" xlink:href="#cd"/></g><path fill="#fff" d="M539-677L361-492V0H169v-1456h192v720l647-720h232L667-813 1285 0h-230" id="cv"/><path fill="#fff" d="M1222-777c17 480-206 763-650 777H169v-1456h411c408 9 627 269 642 679zm-190 4c3-312-149-522-447-525H361v1141h202c308 0 473-209 469-531v-85" id="cw"/><path fill="#fff" d="M972-643H361V0H169v-1456h902v158H361v498h611v157" id="cx"/><path fill="#fff" d="M688-137c238 0 323-102 359-325h193c-32 297-228 482-552 482-361 0-569-299-569-680 0-197 8-360 73-497 88-186 257-317 513-319 316-2 509 195 535 488h-193c-31-212-118-330-342-330-272 0-397 224-393 523v141c-3 282 115 517 376 517" id="cy"/><g id="H"><use transform="matrix(0.0087890625,0,0,0.0087890625,0,0)" xlink:href="#cv"/><use transform="matrix(0.0087890625,0,0,0.0087890625,11.28515625,0)" xlink:href="#cw"/><use transform="matrix(0.0087890625,0,0,0.0087890625,23.0888671875,0)" xlink:href="#cx"/><use transform="matrix(0.0087890625,0,0,0.0087890625,33.0380859375,0)" xlink:href="#cy"/><use transform="matrix(0.0087890625,0,0,0.0087890625,44.75390625,0)" xlink:href="#cs"/><use transform="matrix(0.0087890625,0,0,0.0087890625,54.66796875,0)" xlink:href="#ca"/><use transform="matrix(0.0087890625,0,0,0.0087890625,64.458984375,0)" xlink:href="#cu"/><use transform="matrix(0.0087890625,0,0,0.0087890625,68.8271484375,0)" xlink:href="#ci"/></g><path fill="#fff" d="M442-501L326-380V0H141v-1536h185v929c135-169 291-317 436-475h225L566-630 1036 0H819" id="cz"/><path fill="#fff" d="M1161-1018c0 201-122 330-278 388l342 618V0h-206L703-589H361V0H168v-1456h482c310-2 511 139 511 438zm-193 0c0-187-120-280-313-280H361v552h295c179 3 313-101 312-272" id="cA"/><path fill="#fff" d="M992-673H361v516h733V0H169v-1456h915v158H361v468h631v157" id="cB"/><g id="J"><use transform="matrix(0.0087890625,0,0,0.0087890625,0,0)" xlink:href="#cz"/><use transform="matrix(0.0087890625,0,0,0.0087890625,8.947265625,0)" xlink:href="#bZ"/><use transform="matrix(0.0087890625,0,0,0.0087890625,18.4833984375,0)" xlink:href="#cf"/><use transform="matrix(0.0087890625,0,0,0.0087890625,34.259765625,0)" xlink:href="#cA"/><use transform="matrix(0.0087890625,0,0,0.0087890625,45.3427734375,0)" xlink:href="#ca"/><use transform="matrix(0.0087890625,0,0,0.0087890625,55.1337890625,0)" xlink:href="#cd"/><use transform="matrix(0.0087890625,0,0,0.0087890625,61.013671875,0)" xlink:href="#cr"/><use transform="matrix(0.0087890625,0,0,0.0087890625,70.435546875,0)" xlink:href="#cs"/><use transform="matrix(0.0087890625,0,0,0.0087890625,80.349609375,0)" xlink:href="#bZ"/><use transform="matrix(0.0087890625,0,0,0.0087890625,89.8857421875,0)" xlink:href="#cd"/><use transform="matrix(0.0087890625,0,0,0.0087890625,95.765625,0)" xlink:href="#cB"/><use transform="matrix(0.0087890625,0,0,0.0087890625,105.99609375,0)" xlink:href="#ci"/><use transform="matrix(0.0087890625,0,0,0.0087890625,115.927734375,0)" xlink:href="#cr"/><use transform="matrix(0.0087890625,0,0,0.0087890625,125.349609375,0)" xlink:href="#ca"/><use transform="matrix(0.0087890625,0,0,0.0087890625,135.140625,0)" xlink:href="#ch"/></g><g id="K"><use transform="matrix(0.0087890625,0,0,0.0087890625,0,0)" xlink:href="#cz"/><use transform="matrix(0.0087890625,0,0,0.0087890625,8.947265625,0)" xlink:href="#bZ"/><use transform="matrix(0.0087890625,0,0,0.0087890625,18.4833984375,0)" xlink:href="#cf"/><use transform="matrix(0.0087890625,0,0,0.0087890625,34.259765625,0)" xlink:href="#cA"/><use transform="matrix(0.0087890625,0,0,0.0087890625,45.3427734375,0)" xlink:href="#ca"/><use transform="matrix(0.0087890625,0,0,0.0087890625,55.1337890625,0)" xlink:href="#cd"/><use transform="matrix(0.0087890625,0,0,0.0087890625,61.013671875,0)" xlink:href="#cr"/><use transform="matrix(0.0087890625,0,0,0.0087890625,70.435546875,0)" xlink:href="#cs"/><use transform="matrix(0.0087890625,0,0,0.0087890625,80.349609375,0)" xlink:href="#bZ"/><use transform="matrix(0.0087890625,0,0,0.0087890625,89.8857421875,0)" xlink:href="#cd"/><use transform="matrix(0.0087890625,0,0,0.0087890625,95.765625,0)" xlink:href="#cw"/><use transform="matrix(0.0087890625,0,0,0.0087890625,107.5693359375,0)" xlink:href="#bZ"/><use transform="matrix(0.0087890625,0,0,0.0087890625,117.10546875,0)" xlink:href="#cr"/><use transform="matrix(0.0087890625,0,0,0.0087890625,126.52734375,0)" xlink:href="#ca"/><use transform="matrix(0.0087890625,0,0,0.0087890625,136.318359375,0)" xlink:href="#ch"/></g><path fill="#fff" d="M494-271l252-811h198L509 167C425 381 299 474 84 421V271c167 16 242-37 283-173l41-110L22-1082h202" id="cC"/><g id="L"><use transform="matrix(0.0087890625,0,0,0.0087890625,0,0)" xlink:href="#cA"/><use transform="matrix(0.0087890625,0,0,0.0087890625,11.0830078125,0)" xlink:href="#ca"/><use transform="matrix(0.0087890625,0,0,0.0087890625,20.8740234375,0)" xlink:href="#cd"/><use transform="matrix(0.0087890625,0,0,0.0087890625,26.75390625,0)" xlink:href="#cr"/><use transform="matrix(0.0087890625,0,0,0.0087890625,36.17578125,0)" xlink:href="#cs"/><use transform="matrix(0.0087890625,0,0,0.0087890625,46.08984375,0)" xlink:href="#bZ"/><use transform="matrix(0.0087890625,0,0,0.0087890625,55.6259765625,0)" xlink:href="#cd"/><use transform="matrix(0.0087890625,0,0,0.0087890625,61.505859375,0)" xlink:href="#cv"/><use transform="matrix(0.0087890625,0,0,0.0087890625,72.5625,0)" xlink:href="#bZ"/><use transform="matrix(0.0087890625,0,0,0.0087890625,81.984375,0)" xlink:href="#cC"/><use transform="matrix(0.0087890625,0,0,0.0087890625,90.5009765625,0)" xlink:href="#ch"/><use transform="matrix(0.0087890625,0,0,0.0087890625,100.599609375,0)" xlink:href="#ca"/><use transform="matrix(0.0087890625,0,0,0.0087890625,110.390625,0)" xlink:href="#cu"/><use transform="matrix(0.0087890625,0,0,0.0087890625,114.7587890625,0)" xlink:href="#ce"/></g><path fill="#fff" d="M520 20C244 20 95-247 95-550c0-298 151-550 427-552 127 0 227 43 301 130v-564h185V0H838l-9-116C755-25 652 20 520 20zm48-965c-210 0-288 177-288 416 0 218 87 392 286 392 117 0 203-53 257-158v-497c-55-102-140-153-255-153" id="cD"/><g id="M"><use transform="matrix(0.0087890625,0,0,0.0087890625,0,0)" xlink:href="#bY"/><use transform="matrix(0.0087890625,0,0,0.0087890625,10.6787109375,0)" xlink:href="#cz"/><use transform="matrix(0.0087890625,0,0,0.0087890625,19.8017578125,0)" xlink:href="#cu"/><use transform="matrix(0.0087890625,0,0,0.0087890625,24.169921875,0)" xlink:href="#ch"/><use transform="matrix(0.0087890625,0,0,0.0087890625,34.2685546875,0)" xlink:href="#ch"/><use transform="matrix(0.0087890625,0,0,0.0087890625,44.3671875,0)" xlink:href="#bZ"/><use transform="matrix(0.0087890625,0,0,0.0087890625,53.9033203125,0)" xlink:href="#cD"/><use transform="matrix(0.0087890625,0,0,0.0087890625,64.0546875,0)" xlink:href="#cv"/><use transform="matrix(0.0087890625,0,0,0.0087890625,75.111328125,0)" xlink:href="#bZ"/><use transform="matrix(0.0087890625,0,0,0.0087890625,84.533203125,0)" xlink:href="#cC"/><use transform="matrix(0.0087890625,0,0,0.0087890625,93.0498046875,0)" xlink:href="#bY"/><use transform="matrix(0.0087890625,0,0,0.0087890625,103.728515625,0)" xlink:href="#cd"/><use transform="matrix(0.0087890625,0,0,0.0087890625,109.4326171875,0)" xlink:href="#ck"/><use transform="matrix(0.0087890625,0,0,0.0087890625,119.6982421875,0)" xlink:href="#ce"/><use transform="matrix(0.0087890625,0,0,0.0087890625,125.6220703125,0)" xlink:href="#bZ"/></g><linearGradient gradientUnits="userSpaceOnUse" id="N" x1="1376.01" y1="578.76" x2="1376.01" y2="792.01"><stop offset="0%" stop-color="#1a936f"/><stop offset="100%" stop-color="#0d654b"/></linearGradient><path fill="#fff" d="M579 20C257 20 58-214 66-551c8-331 182-551 511-551 324 0 514 231 514 572 0 319-198 550-512 550zm-2-888c-169 0-222 141-222 338 0 181 61 317 224 317 170 0 223-137 223-338 0-178-64-317-225-317" id="cE"/><path fill="#fff" d="M289 11c-91 0-163-63-163-153 0-91 73-155 163-155 91 0 164 64 164 155S381 11 289 11" id="cF"/><g id="O"><use transform="matrix(0.010850694444444444,0,0,0.010850694444444444,0,0)" xlink:href="#aQ"/><use transform="matrix(0.010850694444444444,0,0,0.010850694444444444,7.964409722222222,0)" xlink:href="#cE"/><use transform="matrix(0.010850694444444444,0,0,0.010850694444444444,20.52951388888889,0)" xlink:href="#aL"/><use transform="matrix(0.010850694444444444,0,0,0.010850694444444444,29.17751736111111,0)" xlink:href="#aS"/><use transform="matrix(0.010850694444444444,0,0,0.010850694444444444,36.686197916666664,0)" xlink:href="#aT"/><use transform="matrix(0.010850694444444444,0,0,0.010850694444444444,49.12109375,0)" xlink:href="#aP"/><use transform="matrix(0.010850694444444444,0,0,0.010850694444444444,61.56684027777778,0)" xlink:href="#aK"/><use transform="matrix(0.010850694444444444,0,0,0.010850694444444444,73.48090277777777,0)" xlink:href="#cF"/><use transform="matrix(0.010850694444444444,0,0,0.010850694444444444,79.93706597222221,0)" xlink:href="#aS"/><use transform="matrix(0.010850694444444444,0,0,0.010850694444444444,87.44574652777777,0)" xlink:href="#aR"/></g><path fill="#c6dabf" d="M688-137c238 0 323-102 359-325h193c-32 297-228 482-552 482-361 0-569-299-569-680 0-197 8-360 73-497 88-186 257-317 513-319 316-2 509 195 535 488h-193c-31-212-118-330-342-330-272 0-397 224-393 523v141c-3 282 115 517 376 517" id="cG"/><path fill="#c6dabf" d="M1288 0h-193L362-1122V0H169v-1456h193l735 1127v-1127h191V0" id="cH"/><path fill="#c6dabf" d="M730-137c145 0 253-29 323-105v-327H716v-156h528v534C1148-51 964 20 729 20c-394 0-598-279-607-678v-127c-5-410 194-690 585-691 310-1 499 171 537 447h-192c-36-193-151-289-344-289-285 0-393 220-393 528v119c-5 296 140 534 415 534" id="cI"/><g id="P"><use transform="matrix(0.0087890625,0,0,0.0087890625,0,0)" xlink:href="#cG"/><use transform="matrix(0.0087890625,0,0,0.0087890625,11.7158203125,0)" xlink:href="#cl"/><use transform="matrix(0.0087890625,0,0,0.0087890625,22.39453125,0)" xlink:href="#cm"/><use transform="matrix(0.0087890625,0,0,0.0087890625,33.75,0)" xlink:href="#co"/><use transform="matrix(0.0087890625,0,0,0.0087890625,44.8330078125,0)" xlink:href="#cH"/><use transform="matrix(0.0087890625,0,0,0.0087890625,57.6650390625,0)" xlink:href="#cI"/></g><g id="Q"><use transform="matrix(0.0087890625,0,0,0.0087890625,0,0)" xlink:href="#bV"/><use transform="matrix(0.0087890625,0,0,0.0087890625,9.421875,0)" xlink:href="#aY"/><use transform="matrix(0.0087890625,0,0,0.0087890625,19.6875,0)" xlink:href="#aW"/><use transform="matrix(0.0087890625,0,0,0.0087890625,35.4638671875,0)" xlink:href="#aX"/><use transform="matrix(0.0087890625,0,0,0.0087890625,45.5625,0)" xlink:href="#aY"/><use transform="matrix(0.0087890625,0,0,0.0087890625,55.828125,0)" xlink:href="#bX"/><use transform="matrix(0.0087890625,0,0,0.0087890625,65.109375,0)" xlink:href="#aV"/><use transform="matrix(0.0087890625,0,0,0.0087890625,69.4775390625,0)" xlink:href="#ba"/><use transform="matrix(0.0087890625,0,0,0.0087890625,75.357421875,0)" xlink:href="#aV"/><use transform="matrix(0.0087890625,0,0,0.0087890625,79.7255859375,0)" xlink:href="#aY"/><use transform="matrix(0.0087890625,0,0,0.0087890625,89.9912109375,0)" xlink:href="#bW"/></g><path fill="#fff" d="M491 20c-241-1-355-148-355-398v-704h185v699c0 164 67 246 200 246 141 0 235-53 282-158v-787h185V0H812l-4-107C736-22 630 20 491 20" id="cJ"/><path fill="#fff" d="M521 20C240 20 96-239 96-550c0-303 147-552 427-552 132 0 235 47 309 140l9-120h169V-26c4 277-183 454-459 452-165-1-334-81-400-187l96-111c79 98 176 147 291 147 180 1 288-109 286-290v-93C750-23 649 20 521 20zm48-965c-209 0-287 178-287 416 0 217 86 392 285 392 117 0 202-53 257-159v-494c-57-103-142-155-255-155" id="cK"/><path fill="#fff" d="M634-1102c292 0 422 254 422 573 0 298-143 547-420 549-137 0-242-48-317-145L310 0H140v-1536h185v573c75-93 178-139 309-139zm-44 965c207 0 281-175 281-413 0-224-79-395-283-395-122 0-210 57-263 170v468c57 113 145 170 265 170" id="cL"/><g id="R"><use transform="matrix(0.0087890625,0,0,0.0087890625,0,0)" xlink:href="#cj"/><use transform="matrix(0.0087890625,0,0,0.0087890625,11.35546875,0)" xlink:href="#cb"/><use transform="matrix(0.0087890625,0,0,0.0087890625,15.7236328125,0)" xlink:href="#cJ"/><use transform="matrix(0.0087890625,0,0,0.0087890625,25.646484375,0)" xlink:href="#cK"/><use transform="matrix(0.0087890625,0,0,0.0087890625,35.7451171875,0)" xlink:href="#cK"/><use transform="matrix(0.0087890625,0,0,0.0087890625,45.84375,0)" xlink:href="#ca"/><use transform="matrix(0.0087890625,0,0,0.0087890625,55.634765625,0)" xlink:href="#cL"/><use transform="matrix(0.0087890625,0,0,0.0087890625,65.7333984375,0)" xlink:href="#cb"/><use transform="matrix(0.0087890625,0,0,0.0087890625,70.1015625,0)" xlink:href="#bZ"/></g><path fill="#fff" d="M730-137c145 0 253-29 323-105v-327H716v-156h528v534C1148-51 964 20 729 20c-394 0-598-279-607-678v-127c-5-410 194-690 585-691 310-1 499 171 537 447h-192c-36-193-151-289-344-289-285 0-393 220-393 528v119c-5 296 140 534 415 534" id="cM"/><g id="S"><use transform="matrix(0.0087890625,0,0,0.0087890625,0,0)" xlink:href="#cM"/><use transform="matrix(0.0087890625,0,0,0.0087890625,12.2607421875,0)" xlink:href="#bZ"/><use transform="matrix(0.0087890625,0,0,0.0087890625,21.796875,0)" xlink:href="#ci"/><use transform="matrix(0.0087890625,0,0,0.0087890625,31.728515625,0)" xlink:href="#bZ"/><use transform="matrix(0.0087890625,0,0,0.0087890625,41.2646484375,0)" xlink:href="#ce"/><use transform="matrix(0.0087890625,0,0,0.0087890625,47.00390625,0)" xlink:href="#ca"/><use transform="matrix(0.0087890625,0,0,0.0087890625,56.794921875,0)" xlink:href="#cd"/><use transform="matrix(0.0087890625,0,0,0.0087890625,62.4990234375,0)" xlink:href="#ck"/><use transform="matrix(0.0087890625,0,0,0.0087890625,72.7646484375,0)" xlink:href="#ce"/></g><path fill="#fff" d="M1288 0h-193v-673H361V0H169v-1456h192v626h734v-626h193V0" id="cN"/><path fill="#fff" d="M538-131c121 0 232-49 232-156 0-50-20-88-56-117-73-60-334-92-420-143-92-55-162-110-162-238 0-190 192-317 400-317 223 0 414 129 413 338H759c0-108-110-186-227-186-119 0-215 53-215 159 0 45 18 78 53 101 76 52 331 90 416 139 98 57 169 115 169 251C955-92 760 20 538 20c-176 0-314-68-386-174-38-55-57-115-57-179h185c6 129 116 202 258 202" id="cO"/><g id="T"><use transform="matrix(0.0087890625,0,0,0.0087890625,0,0)" xlink:href="#cN"/><use transform="matrix(0.0087890625,0,0,0.0087890625,12.83203125,0)" xlink:href="#ca"/><use transform="matrix(0.0087890625,0,0,0.0087890625,22.623046875,0)" xlink:href="#cO"/><use transform="matrix(0.0087890625,0,0,0.0087890625,31.904296875,0)" xlink:href="#cs"/></g><path fill="#fff" d="M704-1390c-164-38-297 28-288 194v114h231v143H416V0H231v-939H60v-143h171v-111c-12-274 208-416 483-347" id="cP"/><g id="U"><use transform="matrix(0.0087890625,0,0,0.0087890625,0,0)" xlink:href="#cP"/><use transform="matrix(0.0087890625,0,0,0.0087890625,6.2490234375,0)" xlink:href="#ca"/><use transform="matrix(0.0087890625,0,0,0.0087890625,16.0400390625,0)" xlink:href="#cr"/><use transform="matrix(0.0087890625,0,0,0.0087890625,25.4619140625,0)" xlink:href="#cd"/><use transform="matrix(0.0087890625,0,0,0.0087890625,31.166015625,0)" xlink:href="#ck"/><use transform="matrix(0.0087890625,0,0,0.0087890625,41.431640625,0)" xlink:href="#ce"/><use transform="matrix(0.0087890625,0,0,0.0087890625,47.5224609375,0)" xlink:href="#cu"/><use transform="matrix(0.0087890625,0,0,0.0087890625,51.890625,0)" xlink:href="#bZ"/><use transform="matrix(0.0087890625,0,0,0.0087890625,61.4267578125,0)" xlink:href="#cO"/></g><linearGradient gradientUnits="userSpaceOnUse" id="V" x1="339.61" y1="857.25" x2="339.61" y2="1027.22"><stop offset=".72%" stop-color="#1c7293"/><stop offset="100%" stop-color="#114b5f"/></linearGradient><path fill="#fff" d="M663-1102c295 0 422 250 422 571 0 300-141 549-420 551-109 0-198-38-265-114v510H111v-1498h268l10 106c70-84 161-126 274-126zm133 550c0-175-53-315-209-315-91 0-153 35-187 104v443c35 71 98 107 189 107 138 0 207-113 207-339" id="cQ"/><g id="W"><use transform="matrix(0.010850694444444444,0,0,0.010850694444444444,0,0)" xlink:href="#aR"/><use transform="matrix(0.010850694444444444,0,0,0.010850694444444444,11.42578125,0)" xlink:href="#aM"/><use transform="matrix(0.010850694444444444,0,0,0.010850694444444444,23.4375,0)" xlink:href="#aL"/><use transform="matrix(0.010850694444444444,0,0,0.010850694444444444,31.54296875,0)" xlink:href="#cQ"/><use transform="matrix(0.010850694444444444,0,0,0.010850694444444444,44.05381944444444,0)" xlink:href="#aM"/><use transform="matrix(0.010850694444444444,0,0,0.010850694444444444,56.06553819444444,0)" xlink:href="#aP"/><use transform="matrix(0.010850694444444444,0,0,0.010850694444444444,68.51128472222221,0)" xlink:href="#aS"/><use transform="matrix(0.010850694444444444,0,0,0.010850694444444444,76.01996527777777,0)" xlink:href="#bR"/></g><g id="X"><use transform="matrix(0.0087890625,0,0,0.0087890625,0,0)" xlink:href="#bY"/><use transform="matrix(0.0087890625,0,0,0.0087890625,10.6787109375,0)" xlink:href="#bZ"/><use transform="matrix(0.0087890625,0,0,0.0087890625,20.21484375,0)" xlink:href="#ce"/><use transform="matrix(0.0087890625,0,0,0.0087890625,26.3056640625,0)" xlink:href="#ch"/><use transform="matrix(0.0087890625,0,0,0.0087890625,36.404296875,0)" xlink:href="#bZ"/><use transform="matrix(0.0087890625,0,0,0.0087890625,45.9404296875,0)" xlink:href="#ci"/><use transform="matrix(0.0087890625,0,0,0.0087890625,55.8720703125,0)" xlink:href="#cd"/></g><g id="Y"><use transform="matrix(0.0087890625,0,0,0.0087890625,0,0)" xlink:href="#cr"/><use transform="matrix(0.0087890625,0,0,0.0087890625,9.421875,0)" xlink:href="#cu"/><use transform="matrix(0.0087890625,0,0,0.0087890625,13.7900390625,0)" xlink:href="#ch"/><use transform="matrix(0.0087890625,0,0,0.0087890625,23.888671875,0)" xlink:href="#cs"/><use transform="matrix(0.0087890625,0,0,0.0087890625,33.802734375,0)" xlink:href="#bZ"/><use transform="matrix(0.0087890625,0,0,0.0087890625,43.3388671875,0)" xlink:href="#ce"/></g><g id="Z"><use transform="matrix(0.0087890625,0,0,0.0087890625,0,0)" xlink:href="#cO"/><use transform="matrix(0.0087890625,0,0,0.0087890625,9.28125,0)" xlink:href="#cJ"/><use transform="matrix(0.0087890625,0,0,0.0087890625,19.2041015625,0)" xlink:href="#cu"/><use transform="matrix(0.0087890625,0,0,0.0087890625,23.572265625,0)" xlink:href="#cd"/><use transform="matrix(0.0087890625,0,0,0.0087890625,29.4521484375,0)" xlink:href="#bZ"/></g><path fill="#fff" d="M1098-255l208-827h185L1176 0h-150L763-820 507 0H357L43-1082h184l213 810 252-810h149" id="cR"/><g id="aa"><use transform="matrix(0.0087890625,0,0,0.0087890625,0,0)" xlink:href="#cR"/><use transform="matrix(0.0087890625,0,0,0.0087890625,13.5263671875,0)" xlink:href="#ck"/><use transform="matrix(0.0087890625,0,0,0.0087890625,23.7919921875,0)" xlink:href="#ce"/><use transform="matrix(0.0087890625,0,0,0.0087890625,29.8828125,0)" xlink:href="#cz"/><use transform="matrix(0.0087890625,0,0,0.0087890625,38.830078125,0)" xlink:href="#bZ"/><use transform="matrix(0.0087890625,0,0,0.0087890625,48.3662109375,0)" xlink:href="#ce"/></g><linearGradient gradientUnits="userSpaceOnUse" id="ab" x1="604.11" y1="857.25" x2="604.11" y2="1027.22"><stop offset=".72%" stop-color="#1c7293"/><stop offset="100%" stop-color="#114b5f"/></linearGradient><path fill="#fff" d="M576-1476c284-5 474 140 474 413 0 72-17 146-56 220-110 211-361 428-523 610h626V0H99v-198l471-502c65-71 110-134 144-185 92-140 43-358-143-358-134 0-213 107-211 245H70c11-295 206-473 506-478" id="cS"/><path fill="#fff" d="M586-1476c342 0 491 246 493 606v268c2 370-143 622-491 622C246 20 97-227 95-587v-268c-2-372 145-621 491-621zm204 926c0-199 18-488-50-610-58-105-243-107-304-4-71 121-52 402-52 600 0 119 19 205 48 264 54 112 254 115 309 4 28-57 49-140 49-254" id="cT"/><g id="ac"><use transform="matrix(0.010850694444444444,0,0,0.010850694444444444,0,0)" xlink:href="#aU"/><use transform="matrix(0.010850694444444444,0,0,0.010850694444444444,11.588541666666666,0)" xlink:href="#aJ"/><use transform="matrix(0.010850694444444444,0,0,0.010850694444444444,24.0234375,0)" xlink:href="#aK"/><use transform="matrix(0.010850694444444444,0,0,0.010850694444444444,35.9375,0)" xlink:href="#aU"/><use transform="matrix(0.010850694444444444,0,0,0.010850694444444444,47.526041666666664,0)" xlink:href="#aJ"/><use transform="matrix(0.010850694444444444,0,0,0.010850694444444444,59.9609375,0)" xlink:href="#aK"/><use transform="matrix(0.010850694444444444,0,0,0.010850694444444444,71.875,0)" xlink:href="#cS"/><use transform="matrix(0.010850694444444444,0,0,0.010850694444444444,84.62456597222223,0)" xlink:href="#cT"/><use transform="matrix(0.010850694444444444,0,0,0.010850694444444444,97.37413194444446,0)" xlink:href="#bR"/></g><path fill="#fff" d="M569-1476c255 0 440 146 439 390 0 143-91 314-274 512L344-151h731V0H121v-133l504-560c75-85 125-155 155-207 105-184 6-424-211-424-183 0-293 113-291 297H93c-3-270 199-449 476-449" id="cU"/><path fill="#fff" d="M574-1476c351 0 454 237 460 615v240c0 217-37 378-111 483S733 20 576 20c-346 0-454-246-461-616v-247c0-214 37-373 111-477s190-156 348-156zm275 905c0-337 59-752-275-753-95 0-160 38-207 107-80 118-66 409-67 625 0 157 22 273 68 348s115 113 208 113c91 0 160-35 204-106s69-182 69-334" id="cV"/><g id="ad"><use transform="matrix(0.0087890625,0,0,0.0087890625,0,0)" xlink:href="#cy"/><use transform="matrix(0.0087890625,0,0,0.0087890625,11.7158203125,0)" xlink:href="#cs"/><use transform="matrix(0.0087890625,0,0,0.0087890625,21.6298828125,0)" xlink:href="#ca"/><use transform="matrix(0.0087890625,0,0,0.0087890625,31.4208984375,0)" xlink:href="#cy"/><use transform="matrix(0.0087890625,0,0,0.0087890625,43.13671875,0)" xlink:href="#cs"/><use transform="matrix(0.0087890625,0,0,0.0087890625,53.05078125,0)" xlink:href="#ca"/><use transform="matrix(0.0087890625,0,0,0.0087890625,62.841796875,0)" xlink:href="#cU"/><use transform="matrix(0.0087890625,0,0,0.0087890625,72.94921875,0)" xlink:href="#cV"/></g><linearGradient gradientUnits="userSpaceOnUse" id="ae" x1="869.4" y1="857.25" x2="869.4" y2="1027.22"><stop offset=".72%" stop-color="#1c7293"/><stop offset="100%" stop-color="#114b5f"/></linearGradient><g id="af"><use transform="matrix(0.010850694444444444,0,0,0.010850694444444444,0,0)" xlink:href="#aR"/><use transform="matrix(0.010850694444444444,0,0,0.010850694444444444,11.42578125,0)" xlink:href="#aJ"/><use transform="matrix(0.010850694444444444,0,0,0.010850694444444444,23.860677083333332,0)" xlink:href="#aK"/><use transform="matrix(0.010850694444444444,0,0,0.010850694444444444,35.77473958333333,0)" xlink:href="#cS"/><use transform="matrix(0.010850694444444444,0,0,0.010850694444444444,48.52430555555556,0)" xlink:href="#bR"/></g><path fill="#fff" d="M973-380H363L226 0H28l556-1456h168L1309 0h-197zM421-538h495l-248-681" id="cW"/><path fill="#fff" d="M525-543H37v-151h488v151" id="cX"/><g id="ag"><use transform="matrix(0.0087890625,0,0,0.0087890625,0,0)" xlink:href="#bY"/><use transform="matrix(0.0087890625,0,0,0.0087890625,10.6787109375,0)" xlink:href="#cN"/><use transform="matrix(0.0087890625,0,0,0.0087890625,23.6689453125,0)" xlink:href="#cW"/><use transform="matrix(0.0087890625,0,0,0.0087890625,35.4111328125,0)" xlink:href="#cX"/><use transform="matrix(0.0087890625,0,0,0.0087890625,40.376953125,0)" xlink:href="#cU"/></g><path fill="#fff" d="M417-1456L893-268l476-1188h249V0h-192c-4-403 4-794 18-1179L966 0H819L342-1176c15 384 23 773 19 1176H169v-1456h248" id="cY"/><g id="ah"><use transform="matrix(0.0087890625,0,0,0.0087890625,0,0)" xlink:href="#cN"/><use transform="matrix(0.0087890625,0,0,0.0087890625,12.83203125,0)" xlink:href="#cY"/><use transform="matrix(0.0087890625,0,0,0.0087890625,28.705078125,0)" xlink:href="#cW"/><use transform="matrix(0.0087890625,0,0,0.0087890625,40.447265625,0)" xlink:href="#cy"/></g><g id="ai"><use transform="matrix(0.0087890625,0,0,0.0087890625,0,0)" xlink:href="#cN"/><use transform="matrix(0.0087890625,0,0,0.0087890625,12.83203125,0)" xlink:href="#cv"/><use transform="matrix(0.0087890625,0,0,0.0087890625,24.1171875,0)" xlink:href="#cw"/><use transform="matrix(0.0087890625,0,0,0.0087890625,35.9208984375,0)" xlink:href="#cx"/></g><linearGradient gradientUnits="userSpaceOnUse" id="aj" x1="1134.69" y1="857.25" x2="1134.69" y2="1027.22"><stop offset=".72%" stop-color="#1c7293"/><stop offset="100%" stop-color="#114b5f"/></linearGradient><path fill="#fff" d="M566-213c130 0 220-75 220-199 0-145-80-218-240-218H393v-226h154c138 3 214-73 216-201 1-118-78-186-197-186-103 0-197 64-195 164H82c11-259 212-391 477-397 286-6 493 142 493 415 0 151-107 263-221 313 147 51 242 159 244 340 3 272-230 428-516 428C289 20 61-138 64-399h289c-3 111 100 186 213 186" id="cZ"/><g id="ak"><use transform="matrix(0.010850694444444444,0,0,0.010850694444444444,0,0)" xlink:href="#aR"/><use transform="matrix(0.010850694444444444,0,0,0.010850694444444444,11.42578125,0)" xlink:href="#aJ"/><use transform="matrix(0.010850694444444444,0,0,0.010850694444444444,23.860677083333332,0)" xlink:href="#aK"/><use transform="matrix(0.010850694444444444,0,0,0.010850694444444444,35.77473958333333,0)" xlink:href="#cZ"/><use transform="matrix(0.010850694444444444,0,0,0.010850694444444444,48.52430555555556,0)" xlink:href="#bR"/></g><path fill="#fff" d="M832-402c-1-179-119-264-303-265H390v-151h139c164 0 281-91 281-250 0-171-85-256-255-256-154 0-265 99-263 250H107c-4-235 205-402 448-402 266 0 444 150 440 412-2 148-109 272-229 317 147 45 249 158 251 341 3 262-197 426-461 426C299 20 91-135 94-384h186c-2 156 116 253 276 253 176 0 277-96 276-271" id="da"/><g id="al"><use transform="matrix(0.0087890625,0,0,0.0087890625,0,0)" xlink:href="#bY"/><use transform="matrix(0.0087890625,0,0,0.0087890625,10.6787109375,0)" xlink:href="#cN"/><use transform="matrix(0.0087890625,0,0,0.0087890625,23.6689453125,0)" xlink:href="#cW"/><use transform="matrix(0.0087890625,0,0,0.0087890625,35.4111328125,0)" xlink:href="#cX"/><use transform="matrix(0.0087890625,0,0,0.0087890625,40.376953125,0)" xlink:href="#da"/></g><g id="am"><use transform="matrix(0.0087890625,0,0,0.0087890625,0,0)" xlink:href="#bY"/><use transform="matrix(0.0087890625,0,0,0.0087890625,10.6787109375,0)" xlink:href="#cN"/><use transform="matrix(0.0087890625,0,0,0.0087890625,23.6689453125,0)" xlink:href="#cW"/><use transform="matrix(0.0087890625,0,0,0.0087890625,35.4111328125,0)" xlink:href="#cv"/><use transform="matrix(0.0087890625,0,0,0.0087890625,46.6962890625,0)" xlink:href="#cB"/></g><linearGradient gradientUnits="userSpaceOnUse" id="an" x1="1399.98" y1="857.25" x2="1399.98" y2="1027.22"><stop offset=".72%" stop-color="#1c7293"/><stop offset="100%" stop-color="#114b5f"/></linearGradient><path fill="#fff" d="M504-434L400-330V0H111v-1536h289v851c106-137 222-264 333-397h347L689-631 1114 0H782" id="db"/><path fill="#fff" d="M515-409l200-673h310L590 168c-66 202-236 321-472 250V199c127 7 198-15 230-107l34-89L3-1082h311" id="dc"/><path fill="#fff" d="M663-1102c295 0 423 246 423 571 0 313-131 551-421 551-117 0-211-45-281-135L371 0H111v-1536h289v551c67-78 154-117 263-117zm-71 889c164 0 209-139 205-339-3-189-44-315-207-315-92 0-155 38-190 113v427c35 76 99 114 192 114" id="dd"/><g id="ao"><use transform="matrix(0.010850694444444444,0,0,0.010850694444444444,0,0)" xlink:href="#db"/><use transform="matrix(0.010850694444444444,0,0,0.010850694444444444,11.870659722222221,0)" xlink:href="#dc"/><use transform="matrix(0.010850694444444444,0,0,0.010850694444444444,23.02517361111111,0)" xlink:href="#dd"/><use transform="matrix(0.010850694444444444,0,0,0.010850694444444444,35.53602430555556,0)" xlink:href="#aM"/><use transform="matrix(0.010850694444444444,0,0,0.010850694444444444,47.54774305555556,0)" xlink:href="#aL"/><use transform="matrix(0.010850694444444444,0,0,0.010850694444444444,55.65321180555555,0)" xlink:href="#bR"/></g><path fill="#fff" d="M362-157h690V0H169v-1456h193v1299" id="de"/><g id="ap"><use transform="matrix(0.0087890625,0,0,0.0087890625,0,0)" xlink:href="#cY"/><use transform="matrix(0.0087890625,0,0,0.0087890625,15.71484375,0)" xlink:href="#de"/><use transform="matrix(0.0087890625,0,0,0.0087890625,25.400390625,0)" xlink:href="#cX"/><use transform="matrix(0.0087890625,0,0,0.0087890625,30.3662109375,0)" xlink:href="#cv"/><use transform="matrix(0.0087890625,0,0,0.0087890625,41.6513671875,0)" xlink:href="#cB"/><use transform="matrix(0.0087890625,0,0,0.0087890625,51.8818359375,0)" xlink:href="#cY"/></g><g id="aq"><use transform="matrix(0.0087890625,0,0,0.0087890625,0,0)" xlink:href="#cv"/><use transform="matrix(0.0087890625,0,0,0.0087890625,10.93359375,0)" xlink:href="#cC"/><use transform="matrix(0.0087890625,0,0,0.0087890625,19.4501953125,0)" xlink:href="#cL"/><use transform="matrix(0.0087890625,0,0,0.0087890625,29.548828125,0)" xlink:href="#bZ"/><use transform="matrix(0.0087890625,0,0,0.0087890625,39.0849609375,0)" xlink:href="#ce"/><use transform="matrix(0.0087890625,0,0,0.0087890625,45.17578125,0)" xlink:href="#bY"/><use transform="matrix(0.0087890625,0,0,0.0087890625,55.8544921875,0)" xlink:href="#cJ"/><use transform="matrix(0.0087890625,0,0,0.0087890625,65.77734375,0)" xlink:href="#cu"/><use transform="matrix(0.0087890625,0,0,0.0087890625,70.1455078125,0)" xlink:href="#cd"/><use transform="matrix(0.0087890625,0,0,0.0087890625,76.025390625,0)" xlink:href="#bZ"/></g><linearGradient gradientUnits="userSpaceOnUse" id="ar" x1="1665.27" y1="857.25" x2="1665.27" y2="1027.22"><stop offset=".72%" stop-color="#1c7293"/><stop offset="100%" stop-color="#114b5f"/></linearGradient><path fill="#fff" d="M673-507H110v-233h563v233" id="df"/><path fill="#fff" d="M1052-393l142-689h279L1197 0H955L750-681 545 0H304L28-1082h279l141 688 198-688h209" id="dg"/><g id="as"><use transform="matrix(0.010850694444444444,0,0,0.010850694444444444,0,0)" xlink:href="#aU"/><use transform="matrix(0.010850694444444444,0,0,0.010850694444444444,11.588541666666666,0)" xlink:href="#aS"/><use transform="matrix(0.010850694444444444,0,0,0.010850694444444444,19.09722222222222,0)" xlink:href="#df"/><use transform="matrix(0.010850694444444444,0,0,0.010850694444444444,27.71267361111111,0)" xlink:href="#dg"/><use transform="matrix(0.010850694444444444,0,0,0.010850694444444444,44.04296875,0)" xlink:href="#aK"/><use transform="matrix(0.010850694444444444,0,0,0.010850694444444444,55.95703125,0)" xlink:href="#aR"/><use transform="matrix(0.010850694444444444,0,0,0.010850694444444444,67.3828125,0)" xlink:href="#bQ"/><use transform="matrix(0.010850694444444444,0,0,0.010850694444444444,86.62109375,0)" xlink:href="#cF"/><use transform="matrix(0.010850694444444444,0,0,0.010850694444444444,93.07725694444444,0)" xlink:href="#aS"/><use transform="matrix(0.010850694444444444,0,0,0.010850694444444444,100.5859375,0)" xlink:href="#aR"/></g><g id="at"><use transform="matrix(0.0087890625,0,0,0.0087890625,0,0)" xlink:href="#bZ"/><use transform="matrix(0.0087890625,0,0,0.0087890625,9.5361328125,0)" xlink:href="#cf"/><use transform="matrix(0.0087890625,0,0,0.0087890625,25.3125,0)" xlink:href="#cL"/><use transform="matrix(0.0087890625,0,0,0.0087890625,35.4111328125,0)" xlink:href="#bZ"/><use transform="matrix(0.0087890625,0,0,0.0087890625,44.947265625,0)" xlink:href="#cD"/><use transform="matrix(0.0087890625,0,0,0.0087890625,55.0986328125,0)" xlink:href="#cD"/><use transform="matrix(0.0087890625,0,0,0.0087890625,65.25,0)" xlink:href="#bZ"/><use transform="matrix(0.0087890625,0,0,0.0087890625,74.7861328125,0)" xlink:href="#cD"/></g><g id="au"><use transform="matrix(0.0087890625,0,0,0.0087890625,0,0)" xlink:href="#cr"/><use transform="matrix(0.0087890625,0,0,0.0087890625,9.421875,0)" xlink:href="#cd"/></g><path fill="#fff" d="M483-459l28 192 41-173 288-1016h162l281 1016 40 176 31-196 226-996h193L1420 0h-175L945-1061l-23-111-23 111L588 0H413L61-1456h192" id="dh"/><g id="av"><use transform="matrix(0.0087890625,0,0,0.0087890625,0,0)" xlink:href="#dh"/><use transform="matrix(0.0087890625,0,0,0.0087890625,15.591796875,0)" xlink:href="#cW"/><use transform="matrix(0.0087890625,0,0,0.0087890625,27.333984375,0)" xlink:href="#bY"/><use transform="matrix(0.0087890625,0,0,0.0087890625,38.0126953125,0)" xlink:href="#cY"/></g><g id="aw"><use transform="matrix(0.0087890625,0,0,0.0087890625,0,0)" xlink:href="#cL"/><use transform="matrix(0.0087890625,0,0,0.0087890625,10.0986328125,0)" xlink:href="#cb"/><use transform="matrix(0.0087890625,0,0,0.0087890625,14.466796875,0)" xlink:href="#ck"/><use transform="matrix(0.0087890625,0,0,0.0087890625,24.732421875,0)" xlink:href="#cL"/></g><path fill="#fff" d="M258 11c-71 0-114-43-114-108 0-67 42-112 114-112s116 45 116 112c-1 65-45 108-116 108" id="di"/><g id="ax"><use transform="matrix(0.0087890625,0,0,0.0087890625,0,0)" xlink:href="#cu"/><use transform="matrix(0.0087890625,0,0,0.0087890625,4.3681640625,0)" xlink:href="#ci"/><use transform="matrix(0.0087890625,0,0,0.0087890625,14.2998046875,0)" xlink:href="#cu"/><use transform="matrix(0.0087890625,0,0,0.0087890625,18.66796875,0)" xlink:href="#cd"/><use transform="matrix(0.0087890625,0,0,0.0087890625,24.5478515625,0)" xlink:href="#di"/><use transform="matrix(0.0087890625,0,0,0.0087890625,29.28515625,0)" xlink:href="#cd"/><use transform="matrix(0.0087890625,0,0,0.0087890625,35.1650390625,0)" xlink:href="#cO"/></g><use transform="matrix(0.0087890625,0,0,0.0087890625,0,0)" xlink:href="#cc" id="ay"/><g id="az"><use transform="matrix(0.0087890625,0,0,0.0087890625,0,0)" xlink:href="#cb"/><use transform="matrix(0.0087890625,0,0,0.0087890625,4.3681640625,0)" xlink:href="#ck"/><use transform="matrix(0.0087890625,0,0,0.0087890625,14.6337890625,0)" xlink:href="#ca"/><use transform="matrix(0.0087890625,0,0,0.0087890625,24.4248046875,0)" xlink:href="#cD"/><use transform="matrix(0.0087890625,0,0,0.0087890625,34.576171875,0)" xlink:href="#bZ"/><use transform="matrix(0.0087890625,0,0,0.0087890625,44.1123046875,0)" xlink:href="#ce"/><use transform="matrix(0.0087890625,0,0,0.0087890625,49.1220703125,0)" xlink:href="#di"/><use transform="matrix(0.0087890625,0,0,0.0087890625,53.859375,0)" xlink:href="#cd"/><use transform="matrix(0.0087890625,0,0,0.0087890625,59.7392578125,0)" xlink:href="#cO"/></g><g id="aA"><use transform="matrix(0.0087890625,0,0,0.0087890625,0,0)" xlink:href="#cJ"/><use transform="matrix(0.0087890625,0,0,0.0087890625,9.9228515625,0)" xlink:href="#cd"/><use transform="matrix(0.0087890625,0,0,0.0087890625,15.802734375,0)" xlink:href="#cu"/><use transform="matrix(0.0087890625,0,0,0.0087890625,20.1708984375,0)" xlink:href="#cb"/><use transform="matrix(0.0087890625,0,0,0.0087890625,24.5390625,0)" xlink:href="#cO"/><use transform="matrix(0.0087890625,0,0,0.0087890625,33.8203125,0)" xlink:href="#di"/><use transform="matrix(0.0087890625,0,0,0.0087890625,38.5576171875,0)" xlink:href="#cd"/><use transform="matrix(0.0087890625,0,0,0.0087890625,44.4375,0)" xlink:href="#cO"/></g><g id="aB"><use transform="matrix(0.0087890625,0,0,0.0087890625,0,0)" xlink:href="#bZ"/><use transform="matrix(0.0087890625,0,0,0.0087890625,9.5361328125,0)" xlink:href="#ce"/><use transform="matrix(0.0087890625,0,0,0.0087890625,15.626953125,0)" xlink:href="#ce"/><use transform="matrix(0.0087890625,0,0,0.0087890625,21.5419921875,0)" xlink:href="#ck"/><use transform="matrix(0.0087890625,0,0,0.0087890625,31.8076171875,0)" xlink:href="#ce"/><use transform="matrix(0.0087890625,0,0,0.0087890625,37.8984375,0)" xlink:href="#cO"/><use transform="matrix(0.0087890625,0,0,0.0087890625,47.1796875,0)" xlink:href="#di"/><use transform="matrix(0.0087890625,0,0,0.0087890625,51.9169921875,0)" xlink:href="#cd"/><use transform="matrix(0.0087890625,0,0,0.0087890625,57.796875,0)" xlink:href="#cO"/></g><g id="aC"><use transform="matrix(0.0087890625,0,0,0.0087890625,0,0)" xlink:href="#cd"/><use transform="matrix(0.0087890625,0,0,0.0087890625,5.8798828125,0)" xlink:href="#cC"/><use transform="matrix(0.0087890625,0,0,0.0087890625,14.396484375,0)" xlink:href="#ch"/><use transform="matrix(0.0087890625,0,0,0.0087890625,24.4951171875,0)" xlink:href="#bZ"/><use transform="matrix(0.0087890625,0,0,0.0087890625,34.03125,0)" xlink:href="#cO"/><use transform="matrix(0.0087890625,0,0,0.0087890625,43.3125,0)" xlink:href="#di"/><use transform="matrix(0.0087890625,0,0,0.0087890625,48.0498046875,0)" xlink:href="#cd"/><use transform="matrix(0.0087890625,0,0,0.0087890625,53.9296875,0)" xlink:href="#cO"/></g><g id="aD"><use transform="matrix(0.0087890625,0,0,0.0087890625,0,0)" xlink:href="#cR"/><use transform="matrix(0.0087890625,0,0,0.0087890625,13.5263671875,0)" xlink:href="#ca"/><use transform="matrix(0.0087890625,0,0,0.0087890625,23.3173828125,0)" xlink:href="#cO"/><use transform="matrix(0.0087890625,0,0,0.0087890625,32.5986328125,0)" xlink:href="#cf"/><use transform="matrix(0.0087890625,0,0,0.0087890625,48.375,0)" xlink:href="#cX"/><use transform="matrix(0.0087890625,0,0,0.0087890625,53.3408203125,0)" xlink:href="#cO"/><use transform="matrix(0.0087890625,0,0,0.0087890625,62.6220703125,0)" xlink:href="#ck"/><use transform="matrix(0.0087890625,0,0,0.0087890625,72.8876953125,0)" xlink:href="#cJ"/><use transform="matrix(0.0087890625,0,0,0.0087890625,82.810546875,0)" xlink:href="#ce"/><use transform="matrix(0.0087890625,0,0,0.0087890625,88.734375,0)" xlink:href="#cr"/><use transform="matrix(0.0087890625,0,0,0.0087890625,98.15625,0)" xlink:href="#bZ"/><use transform="matrix(0.0087890625,0,0,0.0087890625,107.6923828125,0)" xlink:href="#di"/><use transform="matrix(0.0087890625,0,0,0.0087890625,112.4296875,0)" xlink:href="#cd"/><use transform="matrix(0.0087890625,0,0,0.0087890625,118.3095703125,0)" xlink:href="#cO"/></g><path fill="#667eea" d="M30 0v-248h33v221h125V0H30" id="dj"/><path fill="#667eea" d="M141-36C126-15 110 5 73 4 37 3 15-17 15-53c-1-64 63-63 125-63 3-35-9-54-41-54-24 1-41 7-42 31l-33-3c5-37 33-52 76-52 45 0 72 20 72 64v82c-1 20 7 32 28 27v20c-31 9-61-2-59-35zM48-53c0 20 12 33 32 33 41-3 63-29 60-74-43 2-92-5-92 41" id="dk"/><path fill="#667eea" d="M9 0v-24l116-142H16v-24h144v24L44-24h123V0H9" id="dl"/><path fill="#667eea" d="M179-190L93 31C79 59 56 82 12 73V49c39 6 53-20 64-50L1-190h34L92-34l54-156h33" id="dm"/><g id="aE"><use transform="matrix(0.05,0,0,0.05,0,0)" xlink:href="#dj"/><use transform="matrix(0.05,0,0,0.05,10,0)" xlink:href="#dk"/><use transform="matrix(0.05,0,0,0.05,20,0)" xlink:href="#dl"/><use transform="matrix(0.05,0,0,0.05,29,0)" xlink:href="#dm"/></g><path fill="#667eea" d="M100-194c62-1 85 37 85 99 1 63-27 99-86 99S16-35 15-95c0-66 28-99 85-99zM99-20c44 1 53-31 53-75 0-43-8-75-51-75s-53 32-53 75 10 74 51 75" id="dn"/><path fill="#667eea" d="M85-194c31 0 48 13 60 33l-1-100h32l1 261h-30c-2-10 0-23-3-31C134-8 116 4 85 4 32 4 16-35 15-94c0-66 23-100 70-100zm9 24c-40 0-46 34-46 75 0 40 6 74 45 74 42 0 51-32 51-76 0-42-9-74-50-73" id="do"/><path fill="#667eea" d="M100-194c63 0 86 42 84 106H49c0 40 14 67 53 68 26 1 43-12 49-29l28 8c-11 28-37 45-77 45C44 4 14-33 15-96c1-61 26-98 85-98zm52 81c6-60-76-77-97-28-3 7-6 17-6 28h103" id="dp"/><g id="aF"><use transform="matrix(0.05,0,0,0.05,0,0)" xlink:href="#dj"/><use transform="matrix(0.05,0,0,0.05,10,0)" xlink:href="#dn"/><use transform="matrix(0.05,0,0,0.05,20,0)" xlink:href="#dk"/><use transform="matrix(0.05,0,0,0.05,30,0)" xlink:href="#do"/><use transform="matrix(0.05,0,0,0.05,40,0)" xlink:href="#dp"/><use transform="matrix(0.05,0,0,0.05,50,0)" xlink:href="#do"/></g><path fill="#667eea" d="M185-189c-5-48-123-54-124 2 14 75 158 14 163 119 3 78-121 87-175 55-17-10-28-26-33-46l33-7c5 56 141 63 141-1 0-78-155-14-162-118-5-82 145-84 179-34 5 7 8 16 11 25" id="dq"/><path fill="#667eea" d="M115-194c55 1 70 41 70 98S169 2 115 4C84 4 66-9 55-30l1 105H24l-1-265h31l2 30c10-21 28-34 59-34zm-8 174c40 0 45-34 45-75s-6-73-45-74c-42 0-51 32-51 76 0 43 10 73 51 73" id="dr"/><path fill="#667eea" d="M117-194c89-4 53 116 60 194h-32v-121c0-31-8-49-39-48C34-167 62-67 57 0H25l-1-190h30c1 10-1 24 2 32 11-22 29-35 61-36" id="ds"/><path fill="#667eea" d="M177-190C167-65 218 103 67 71c-23-6-38-20-44-43l32-5c15 47 100 32 89-28v-30C133-14 115 1 83 1 29 1 15-40 15-95c0-56 16-97 71-98 29-1 48 16 59 35 1-10 0-23 2-32h30zM94-22c36 0 50-32 50-73 0-42-14-75-50-75-39 0-46 34-46 75s6 73 46 73" id="dt"/><g id="aG"><use transform="matrix(0.05,0,0,0.05,0,0)" xlink:href="#dq"/><use transform="matrix(0.05,0,0,0.05,12,0)" xlink:href="#dr"/><use transform="matrix(0.05,0,0,0.05,22,0)" xlink:href="#dn"/><use transform="matrix(0.05,0,0,0.05,32,0)" xlink:href="#ds"/><use transform="matrix(0.05,0,0,0.05,42,0)" xlink:href="#dt"/><use transform="matrix(0.05,0,0,0.05,52,0)" xlink:href="#dp"/></g><path fill="#667eea" d="M197 0v-115H63V0H30v-248h33v105h134v-105h34V0h-34" id="du"/><path fill="#667eea" d="M194 0L95-120 63-95V0H30v-248h33v124l119-124h40L117-140 236 0h-42" id="dv"/><path fill="#667eea" d="M30-248c118-7 216 8 213 122C240-48 200 0 122 0H30v-248zM63-27c89 8 146-16 146-99s-60-101-146-95v194" id="dw"/><path fill="#667eea" d="M63-220v92h138v28H63V0H30v-248h175v28H63" id="dx"/><g id="aH"><use transform="matrix(0.05,0,0,0.05,0,0)" xlink:href="#du"/><use transform="matrix(0.05,0,0,0.05,12.950000000000001,0)" xlink:href="#dv"/><use transform="matrix(0.05,0,0,0.05,24.950000000000003,0)" xlink:href="#dw"/><use transform="matrix(0.05,0,0,0.05,37.900000000000006,0)" xlink:href="#dx"/></g></defs></g></svg>