<svg viewBox="40 0 1020 680" xmlns="http://www.w3.org/2000/svg"><defs><filter id="shadow" x="-4%" y="-4%" width="108%" height="108%"><feDropShadow dx="0" dy="1" stdDeviation="2" flood-opacity="0.08"/></filter><style> text { font-family: system-ui, -apple-system, sans-serif; } .dir { font-weight: 600; font-size: 13px; } .file { font-size: 12px; fill: #000; } .note { font-size: 11px; fill: #666; font-style: italic; } .section-label { font-size: 14px; font-weight: 700; fill: white; } </style></defs><rect x="40" y="44" width="500" height="380" rx="8" fill="#ecf0ea" filter="url(#shadow)"/><rect x="40" y="44" width="500" height="28" rx="8" fill="#1c7293"/><rect x="40" y="60" width="500" height="12" fill="#1c7293"/><text x="54" y="64" class="section-label">src/asm/ — AssemblyScript (compiles to .wasm)</text><text x="80" y="96" class="dir" fill="#00526d">serpent/</text><text x="100" y="114" class="file">index.ts</text><text x="280" y="114" class="note">asc entry → serpent.wasm</text><text x="100" y="130" class="file">serpent.ts</text><text x="280" y="130" class="note">block function + key schedule</text><text x="100" y="146" class="file">serpent_unrolled.ts</text><text x="280" y="146" class="note">S-boxes + round functions</text><text x="100" y="162" class="file">cbc.ts, ctr.ts, buffers.ts</text><text x="80" y="190" class="dir" fill="#00526d">chacha/</text><text x="100" y="208" class="file">index.ts</text><text x="280" y="208" class="note">asc entry → chacha.wasm</text><text x="100" y="224" class="file">chacha20.ts, poly1305.ts,</text><text x="100" y="240" class="file"> wipe.ts, buffers.ts</text><text x="80" y="266" class="dir" fill="#00526d">sha2/</text><text x="100" y="284" class="file">index.ts</text><text x="280" y="286" class="note">asc entry → sha2.wasm</text><text x="100" y="303" class="file">sha256.ts, sha512.ts,</text><text x="100" y="322" class="file">hmac.ts, hmac512.ts, buffers.ts</text><text x="80" y="346" class="dir" fill="#00526d">sha3/</text><text x="100" y="364" class="file">index.ts</text><text x="280" y="364" class="note">asc entry → sha3.wasm</text><text x="100" y="380" class="file">keccak.ts, buffers.ts</text><text x="65" y="405" class="note">Each module is fully independent. separate linear memories, no cross-module imports</text><rect x="560" y="44" width="500" height="380" rx="8" fill="#ecf0ea" filter="url(#shadow)"/><rect x="560" y="44" width="500" height="28" rx="8" fill="#1a936f"/><rect x="560" y="60" width="500" height="12" fill="#1a936f"/><text x="574" y="64" class="section-label">src/ts/ — TypeScript (public API)</text><text x="580" y="96" class="file">init.ts</text><text x="800" y="96" class="note">WASM loading + module cache</text><text x="580" y="112" class="file">loader.ts</text><text x="800" y="112" class="note">embedded / streaming / manual</text><text x="580" y="128" class="file">types.ts</text><text x="800" y="128" class="note">Hash, KeyedHash, Blockcipher, …</text><text x="580" y="144" class="file">utils.ts</text><text x="800" y="144" class="note">encoding, wipe, xor, concat, randomBytes</text><text x="580" y="160" class="file">fortuna.ts</text><text x="800" y="160" class="note">Fortuna CSPRNG (serpent + sha2)</text><text x="580" y="204" class="dir" fill="#276749">embedded/</text><text x="800" y="204" class="note">generated base64 files (gitignored)</text><text x="600" y="222" class="file">serpent.ts, chacha.ts, sha2.ts, sha3.ts</text><text x="580" y="250" class="dir" fill="#276749">serpent/</text><text x="800" y="250" class="note">Serpent, SerpentCtr, SerpentCbc</text><text x="580" y="270" class="dir" fill="#276749">chacha20/</text><text x="800" y="270" class="note">ChaCha20, Poly1305, AEAD variants</text><text x="600" y="288" class="file">index.ts, pool.ts, pool.worker.ts, types.ts</text><text x="580" y="310" class="dir" fill="#276749">sha2/</text><text x="800" y="310" class="note">SHA256, SHA512, SHA384, HMAC_*</text><text x="580" y="330" class="dir" fill="#276749">sha3/</text><text x="800" y="330" class="note">SHA3_*, SHAKE128, SHAKE256</text><text x="580" y="358" class="file">index.ts</text><text x="800" y="358" class="note">root barrel: dispatching init() + re-exports</text><text x="580" y="390" class="note">Each module wrapper imports getInstance from init.ts</text><text x="580" y="406" class="note">Each owns its own embedded thunk. zero cross-module imports</text><rect x="40" y="440" width="500" height="140" rx="8" fill="#ecf0ea" filter="url(#shadow)"/><rect x="40" y="440" width="500" height="28" rx="8" fill="#114b5f"/><rect x="40" y="456" width="500" height="12" fill="#114b5f"/><text x="54" y="460" class="section-label">test/</text><text x="80" y="492" class="dir" fill="#154e62">unit/</text><text x="190" y="492" class="note">Vitest — JS target, fast iteration (Node.js)</text><text x="80" y="520" class="dir" fill="#154e62">e2e/</text><text x="190" y="520" class="note">Playwright — WASM target (Chromium, Firefox, WebKit)</text><text x="80" y="548" class="dir" fill="#154e62">vectors/</text><text x="190" y="548" class="note">read-only test vector files + SHA256SUMS integrity check</text><rect x="560" y="440" width="500" height="210" rx="8" fill="#ecf0ea" filter="url(#shadow)"/><rect x="560" y="440" width="500" height="28" rx="8" fill="#48bb78"/><rect x="560" y="456" width="500" height="12" fill="#48bb78"/><text x="574" y="460" class="section-label">Build, Scripts, Config</text><text x="580" y="492" class="dir" fill="#276749">scripts/</text><text x="600" y="510" class="file">embed-wasm.ts</text><text x="800" y="510" class="note">reads build/*.wasm → src/ts/embedded/*.ts</text><text x="600" y="526" class="file">build-asm.js</text><text x="800" y="526" class="note">orchestrates AssemblyScript compilation</text><text x="580" y="554" class="file">package.json, asconfig.json (4 unique ASC entries),</text><text x="580" y="572" class="file">tsconfig.json, vitest.config.ts, playwright.config.ts</text><rect x="580" y="585" width="110" height="26" rx="5" fill="#f0fff4"/><text x="590" y="603" class="file">build/</text><text x="700" y="603" class="note">WASM output (gitignored)</text><rect x="580" y="615" width="110" height="26" rx="5" fill="#f0fff4"/><text x="590" y="633" class="file">dist/</text><text x="700" y="633" class="note">npm publish output (gitignored)</text><rect x="50" y="605" width="490" height="45" rx="8" fill="#ecf0ea" filter="url(#shadow)"/><rect x="40" y="604" width="75" height="46" rx="8" fill="#161925" filter="url(#shadow)"/><rect x="108" y="605" width="20" height="45" rx="0" fill="#ecf0ea" filter="url(#shadow)"/><text x="56" y="632" class="dir" fill="#fff">docs/</text><text x="125" y="632" class="note">project documentation (architecture, API, module references, vector corpus)</text></svg>
