<svg xmlns="http://www.w3.org/2000/svg" xmlns:xlink="http://www.w3.org/1999/xlink" xmlns:lucid="lucid" width="1336.82" height="1336.82"><g transform="translate(-1933.966723002921 -11.587827602902962)" lucid:page-tab-id="0_0"><path d="M3266.8 680c0 366.94-297.48 664.4-664.42 664.4-366.95 0-664.4-297.46-664.4-664.4s297.45-664.4 664.4-664.4c366.94 0 664.4 297.45 664.4 664.4z" stroke="#166483" stroke-width="8" fill="url(#a)"/><path d="M3032.3 680c0 237.43-192.5 429.9-429.92 429.9-237.43 0-429.9-192.47-429.9-429.9 0-237.43 192.47-429.9 429.9-429.9 237.43 0 429.9 192.47 429.9 429.9z" stroke="#136049" stroke-width="8" fill="url(#b)"/><path d="M2777.02 680c0 96.45-78.2 174.64-174.64 174.64-96.45 0-174.64-78.2-174.64-174.64 0-96.45 78.2-174.64 174.64-174.64 96.45 0 174.64 78.2 174.64 174.64z" stroke="#b4cbac" stroke-width="8" fill="url(#c)"/><path d="M2500.52 584.4h205.82v86.06h-205.82z" fill="none"/><use xlink:href="#d" transform="matrix(1,0,0,1,2505.523867077497,589.4137506757643) translate(0 56.72916666666667)"/><path d="M2226.74 584.4h168.96v86.06h-168.96z" fill="none"/><use xlink:href="#e" transform="matrix(1,0,0,1,2231.7398223008618,589.4137506757643) translate(0 56.72916666666667)"/><path d="M2832.15 584.4h154.34v86.06h-154.35z" fill="none"/><use xlink:href="#f" transform="matrix(1,0,0,1,2837.1528225566653,589.4137506757643) translate(0 56.72916666666667)"/><path d="M2541.8 866.78h132.22v86.05H2541.8z" fill="none"/><use xlink:href="#g" transform="matrix(1,0,0,1,2546.798689137679,871.7832328684685) translate(0 56.72916666666667)"/><path d="M2511.52 1130.25h192.78v86.05h-192.78z" fill="none"/><use xlink:href="#h" transform="matrix(1,0,0,1,2516.520781264558,1135.253045260108) translate(0 56.72916666666667)"/><path d="M1984.58 584.4h152.82v86.06h-152.83z" fill="none"/><use xlink:href="#i" transform="matrix(1,0,0,1,1989.5746319291832,589.4137506757643) translate(0 56.72916666666667)"/><path d="M2540.6 27.2h134.6v86.04h-134.6z" fill="none"/><use xlink:href="#j" transform="matrix(1,0,0,1,2545.6141252574002,32.19261098379697) translate(0 56.72916666666667)"/><path d="M3062.46 584.4h168.22v86.06h-168.22z" fill="none"/><use xlink:href="#k" transform="matrix(1,0,0,1,3067.4614649985206,589.4137506757643) translate(0 56.72916666666667)"/><path d="M2486.44 652.46h231.88V775.6h-231.88z" fill="none"/><use xlink:href="#l" transform="matrix(1,0,0,1,2491.4418755761035,657.4584427787918) translate(18.3046875 34.86458333333333)"/><use xlink:href="#m" transform="matrix(1,0,0,1,2491.4418755761035,657.4584427787918) translate(48.1875 66.11458333333334)"/><use xlink:href="#n" transform="matrix(1,0,0,1,2491.4418755761035,657.4584427787918) translate(45.71354166666666 97.36458333333334)"/><path d="M2794.03 652.46h210.52V775.6h-210.52z" fill="none"/><use xlink:href="#o" transform="matrix(1,0,0,1,2799.0331484645017,657.4584427787918) translate(16.80208333333333 34.86458333333333)"/><use xlink:href="#p" transform="matrix(1,0,0,1,2799.0331484645017,657.4584427787918) translate(64.875 34.86458333333333)"/><use xlink:href="#q" transform="matrix(1,0,0,1,2799.0331484645017,657.4584427787918) translate(28.29947916666667 66.11458333333334)"/><use xlink:href="#r" transform="matrix(1,0,0,1,2799.0331484645017,657.4584427787918) translate(62.46614583333333 97.36458333333334)"/><path d="M2234.54 652.46h119.76V775.6h-119.76z" fill="none"/><use xlink:href="#s" transform="matrix(1,0,0,1,2239.5403227802212,657.4584427787918) translate(9.544270833333329 34.86458333333333)"/><use xlink:href="#t" transform="matrix(1,0,0,1,2239.5403227802212,657.4584427787918) translate(31.40625 66.11458333333334)"/><use xlink:href="#u" transform="matrix(1,0,0,1,2239.5403227802212,657.4584427787918) translate(32.35677083333333 97.36458333333334)"/><path d="M2455.1 934.95h305.6v160.2h-305.6z" fill="none"/><use xlink:href="#v" transform="matrix(1,0,0,1,2460.114369521104,939.944633871208) translate(90.13541666666667 37.73958333333333)"/><use xlink:href="#w" transform="matrix(1,0,0,1,2460.114369521104,939.944633871208) translate(75.13541666666667 68.98958333333334)"/><use xlink:href="#x" transform="matrix(1,0,0,1,2460.114369521104,939.944633871208) translate(24.24348958333333 100.23958333333334)"/><use xlink:href="#y" transform="matrix(1,0,0,1,2460.114369521104,939.944633871208) translate(104.71875 131.48958333333334)"/><path d="M3054.87 652.46h183.4V775.6h-183.4z" fill="none"/><use xlink:href="#z" transform="matrix(1,0,0,1,3059.8663680924933,657.4584427787918) translate(33.36067708333333 34.86458333333333)"/><use xlink:href="#A" transform="matrix(1,0,0,1,3059.8663680924933,657.4584427787918) translate(14.727864583333329 66.11458333333334)"/><use xlink:href="#B" transform="matrix(1,0,0,1,3059.8663680924933,657.4584427787918) translate(36.04296875 97.36458333333334)"/><path d="M2480.8 96.7h242.04V219.8H2480.8z" fill="none"/><use xlink:href="#C" transform="matrix(1,0,0,1,2485.7987494351787,101.6919158558839) translate(23.518229166666657 34.86458333333333)"/><use xlink:href="#D" transform="matrix(1,0,0,1,2485.7987494351787,101.6919158558839) translate(114.07812499999999 34.86458333333333)"/><use xlink:href="#E" transform="matrix(1,0,0,1,2485.7987494351787,101.6919158558839) translate(25.55598958333333 66.11458333333334)"/><use xlink:href="#F" transform="matrix(1,0,0,1,2485.7987494351787,101.6919158558839) translate(19.520833333333314 97.36458333333334)"/><use xlink:href="#G" transform="matrix(1,0,0,1,2485.7987494351787,101.6919158558839) translate(121.55208333333333 97.36458333333334)"/><path d="M1968.94 652.46h168.46V775.6h-168.46z" fill="none"/><use xlink:href="#H" transform="matrix(1,0,0,1,1973.937918672631,657.4584427787918) translate(21.498697916666664 34.86458333333333)"/><use xlink:href="#z" transform="matrix(1,0,0,1,1973.937918672631,657.4584427787918) translate(25.86067708333333 66.11458333333334)"/><use xlink:href="#I" transform="matrix(1,0,0,1,1973.937918672631,657.4584427787918) translate(13.5234375 97.36458333333334)"/><path d="M2489.65 1199.26h239.46v123.13h-239.45z" fill="none"/><use xlink:href="#J" transform="matrix(1,0,0,1,2494.648581994598,1204.2600298642294) translate(19.108072916666657 34.86458333333333)"/><use xlink:href="#K" transform="matrix(1,0,0,1,2494.648581994598,1204.2600298642294) translate(85.16276041666667 34.86458333333333)"/><use xlink:href="#L" transform="matrix(1,0,0,1,2494.648581994598,1204.2600298642294) translate(25.162760416666657 66.11458333333334)"/><use xlink:href="#M" transform="matrix(1,0,0,1,2494.648581994598,1204.2600298642294) translate(121.45182291666666 66.11458333333334)"/><use xlink:href="#N" transform="matrix(1,0,0,1,2494.648581994598,1204.2600298642294) translate(25.01302083333333 97.36458333333334)"/><use xlink:href="#O" transform="matrix(1,0,0,1,2494.648581994598,1204.2600298642294) translate(48.190104166666664 97.36458333333334)"/><path d="M2752.54 1231.36l20.54-5.45 23.4-7.27 21.72-7.77 20.33-8.24 19.13-8.7 18.1-9.2 17.24-9.65 16.47-10.16 15.8-10.7 15.26-11.27 14.76-11.9 14.33-12.6 14-13.35 13.66-14.2 13.4-15.17 13.22-16.23 13.02-17.47 12.87-18.86 12.76-20.5 12.65-22.34 12.57-24.53 12.47-27.12 12.37-30.16 12.25-33.85 11.12-35.28" stroke="#18607c" stroke-width="10" stroke-linejoin="round" fill="none"/><path d="M2752.66 1231.33l-4.95 1.3" stroke="#18607c" stroke-width="10" fill="none"/><path d="M3140.88 812.06l3.67 14.55-14.43-4.1z" stroke="#18607c" stroke-width="10" fill="#18607c"/><path d="M2461.13 1225.16l-39.3-15.28-36.9-16.16-31.54-15.4-27.35-14.82-24.04-14.36-21.38-14.02-19.23-13.8-17.47-13.67-16-13.65-14.8-13.73-13.78-13.92-12.96-14.22-12.28-14.67-11.73-15.27-11.33-16.1-11.03-17.16-10.9-18.63-10.9-20.6-11.23-23.54-11.95-28.04-13.68-36.27-12.02-36.6" stroke="#18607c" stroke-width="10" stroke-linejoin="round" fill="none"/><path d="M2461 1225.1l4.8 1.87" stroke="#18607c" stroke-width="10" fill="none"/><path d="M2063.78 808.15l11.15 10.04-14.26 4.63z" stroke="#18607c" stroke-width="10" fill="#18607c"/><path d="M3142.1 557.64l-1.53-8.38-3.12-13.75-3.86-14.24-4.7-14.8-5.58-15.34-6.57-15.96-7.65-16.6-8.85-17.22-10.14-17.87-11.53-18.5-13.03-19.04-14.6-19.52-16.17-19.85-17.75-20-19.22-19.94-20.52-19.55-21.56-18.9-22.26-17.92-22.57-16.66-22.48-15.2-22-13.55-21.2-11.87-20.17-10.2-18.95-8.63-17.68-7.16-16.37-5.85-6.68-2.06" stroke="#18607c" stroke-width="10" stroke-linejoin="round" fill="none"/><path d="M3142.08 557.52l.92 5.04" stroke="#18607c" stroke-width="10" fill="none"/><path d="M2748.03 154.28l14.5-3.8-3.95 14.47z" stroke="#18607c" stroke-width="10" fill="#18607c"/><path d="M2438.73 975.07l-1.97-.67-6.87-2.65-7.06-3.08-7.23-3.52-7.4-4-7.55-4.5-7.7-5.02-7.8-5.58-7.87-6.13-7.85-6.67-7.76-7.18-7.57-7.6-7.27-7.96-6.87-8.16-6.36-8.24-5.76-8.15-5.13-7.93-4.44-7.58-3.8-7.12-3.18-6.6-2.6-6.1-2.13-5.54-.77-2.3" stroke="#115f47" stroke-width="10" stroke-linejoin="round" fill="none"/><path d="M2438.6 975.03l4.86 1.65" stroke="#115f47" stroke-width="10" fill="none"/><path d="M2302.5 825.2l9.76 11.4-14.74 2.75z" stroke="#115f47" stroke-width="10" fill="#115f47"/><path d="M2786.28 971.43l.45-.2 11.7-6.14 10.92-6.32 10.17-6.47 9.47-6.57 8.78-6.7 8.17-6.76 7.58-6.83 7-6.87 6.46-6.9 5.94-6.9 5.46-6.9 4.98-6.87 4.54-6.84 4.12-6.8 3.7-6.75 3.3-6.68 2.95-6.6 2.57-6.55 2.24-6.45 1.93-6.36 1.6-6.26 1.3-6.16.28-1.67" stroke="#115f47" stroke-width="10" stroke-linejoin="round" fill="none"/><path d="M2769.85 978.75l8.82-12.14 6.1 13.72z" stroke="#115f47" stroke-width="10" fill="#115f47"/><path d="M2912 824l.73-5.06" stroke="#115f47" stroke-width="10" fill="none"/><path d="M2500.22 293.23h196.43v86.04h-196.43z" fill="none"/><g><use xlink:href="#P" transform="matrix(1,0,0,1,2505.2161174954854,298.2255015980094) translate(0 56.72916666666667)"/></g><path d="M2457.84 370.1h289.08V493.2h-289.08z" fill="none"/><g><use xlink:href="#Q" transform="matrix(1,0,0,1,2462.8415235623897,375.08896058608764) translate(52.67578125 34.86458333333333)"/><use xlink:href="#R" transform="matrix(1,0,0,1,2462.8415235623897,375.08896058608764) translate(210.74869791666666 34.86458333333333)"/><use xlink:href="#S" transform="matrix(1,0,0,1,2462.8415235623897,375.08896058608764) translate(52.851562499999986 66.11458333333334)"/><use xlink:href="#T" transform="matrix(1,0,0,1,2462.8415235623897,375.08896058608764) translate(105.13020833333331 66.11458333333334)"/><use xlink:href="#U" transform="matrix(1,0,0,1,2462.8415235623897,375.08896058608764) translate(23.203125 97.36458333333334)"/><use xlink:href="#V" transform="matrix(1,0,0,1,2462.8415235623897,375.08896058608764) translate(96.18489583333334 97.36458333333334)"/><use xlink:href="#W" transform="matrix(1,0,0,1,2462.8415235623897,375.08896058608764) translate(191.8359375 97.36458333333334)"/></g><path d="M2304.57 579.44l.44-3.18 1.12-5.9 1.76-7.4 2.55-8.85 3.4-10 4.2-10.64 4.78-10.62 5.15-10.1 5.27-9.24 5.26-8.28 5.14-7.3 4.96-6.38 1.68-2.02 11.4-12.86 10.83-11.16 10.38-9.73 10-8.54 9.68-7.5 9.4-6.64 9.2-5.86 9-5.17 2.15-1.1" stroke="#115f47" stroke-width="10" stroke-linejoin="round" fill="none"/><path d="M2309.47 579.75l-.43 4.66h-10l.52-5.54z" stroke="#115f47" stroke-width=".05" fill="#115f47"/><path d="M2448.7 403.63l-8.78 12.16-6.13-13.7z" stroke="#115f47" stroke-width="10" fill="#115f47"/><defs><radialGradient gradientUnits="userSpaceOnUse" id="a" fx="2602.38" fy="680" cx="2602.38" cy="680" r="664.41"><stop offset="0%" stop-color="#1c7293"/><stop offset="100%" stop-color="#25687e"/></radialGradient><radialGradient gradientUnits="userSpaceOnUse" id="b" fx="2602.38" fy="680" cx="2602.38" cy="680" r="391.22"><stop offset="0%" stop-color="#1a936f"/><stop offset="100%" stop-color="#0d654b"/></radialGradient><radialGradient gradientUnits="userSpaceOnUse" id="c" fx="2602.38" fy="680" cx="2602.38" cy="680" r="174.64"><stop offset=".36%" stop-color="#e5f4df"/><stop offset="100%" stop-color="#c6dabf"/></radialGradient><path fill="#111" d="M658-217c127 0 227-49 227-165 0-57-21-98-60-130-79-64-370-142-463-196-162-95-248-210-248-361 0-280 246-403 537-407 213-3 383 84 467 216 45 69 68 147 68 234H886c0-139-96-211-240-211-129 0-232 55-232 169 0 47 24 87 72 119s117 62 210 90c171 51 295 115 373 191s117 171 117 284c-2 272-237 411-528 404C331 13 78-135 69-458h301c0 161 96 241 288 241" id="X"/><path fill="#111" d="M579 20C257 20 58-214 66-551c8-331 182-551 511-551 324 0 514 231 514 572 0 319-198 550-512 550zm-2-888c-169 0-222 141-222 338 0 181 61 317 224 317 170 0 223-137 223-338 0-178-64-317-225-317" id="Y"/><path fill="#111" d="M463 20c-241-1-359-147-359-393v-709h289v699c0 113 51 169 154 169 98 0 165-34 202-102v-766h290V0H767l-8-110C688-23 589 20 463 20" id="Z"/><path fill="#111" d="M719-811c-143-24-279 1-319 103V0H111v-1082h273l8 129c74-124 180-175 331-136" id="aa"/><path fill="#111" d="M355-556c-2 203 30 338 206 343 102 3 181-63 182-161h271C1001-128 821 17 566 20 242 24 66-212 66-554c0-320 184-548 498-548 262 0 451 167 450 423H743c-1-108-75-193-184-189-162 6-202 123-204 312" id="ab"/><path fill="#111" d="M1031-175C952-60 797 20 609 20 287 20 60-206 72-543c12-330 180-559 505-559 309 0 482 214 477 537v118H365c15 134 115 234 263 234 111 0 198-40 261-121zM770-644c5-139-62-226-194-224-130 1-191 97-208 224h402" id="ac"/><path fill="#111" d="M529-185c94 0 168-33 168-114 0-35-18-63-53-83s-91-39-168-55C219-491 90-600 90-765c0-208 203-337 432-337 246 0 451 124 453 349H686c-2-91-62-143-165-143-86 0-151 41-153 117 0 32 16 57 46 77 63 43 257 69 335 100 151 60 229 153 229 291C978-13 554 93 282-28 162-81 60-190 56-344h274c5 106 86 159 199 159" id="ad"/><g id="d"><use transform="matrix(0.026041666666666668,0,0,0.026041666666666668,0,0)" xlink:href="#X"/><use transform="matrix(0.026041666666666668,0,0,0.026041666666666668,32.786458333333336,0)" xlink:href="#Y"/><use transform="matrix(0.026041666666666668,0,0,0.026041666666666668,62.942708333333336,0)" xlink:href="#Z"/><use transform="matrix(0.026041666666666668,0,0,0.026041666666666668,92.78645833333334,0)" xlink:href="#aa"/><use transform="matrix(0.026041666666666668,0,0,0.026041666666666668,111.74479166666667,0)" xlink:href="#ab"/><use transform="matrix(0.026041666666666668,0,0,0.026041666666666668,139.55729166666669,0)" xlink:href="#ac"/><use transform="matrix(0.026041666666666668,0,0,0.026041666666666668,168.38541666666669,0)" xlink:href="#ad"/></g><path fill="#fff" d="M1226-1213H780V0H480v-1213H40v-243h1186v243" id="ae"/><path fill="#fff" d="M1031-175C952-60 797 20 609 20 287 20 60-206 72-543c12-330 180-559 505-559 309 0 482 214 477 537v118H365c15 134 115 234 263 234 111 0 198-40 261-121zM770-644c5-139-62-226-194-224-130 1-191 97-208 224h402" id="af"/><path fill="#fff" d="M529-185c94 0 168-33 168-114 0-35-18-63-53-83s-91-39-168-55C219-491 90-600 90-765c0-208 203-337 432-337 246 0 451 124 453 349H686c-2-91-62-143-165-143-86 0-151 41-153 117 0 32 16 57 46 77 63 43 257 69 335 100 151 60 229 153 229 291C978-13 554 93 282-28 162-81 60-190 56-344h274c5 106 86 159 199 159" id="ag"/><path fill="#fff" d="M457-330c2 83 25 111 111 112 32 0 60-2 85-7V-6c-57 17-115 26-175 26-203 0-310-102-310-307v-583H10v-212h158v-266h289v266h185v212H457v540" id="ah"/><g id="e"><use transform="matrix(0.026041666666666668,0,0,0.026041666666666668,0,0)" xlink:href="#ae"/><use transform="matrix(0.026041666666666668,0,0,0.026041666666666668,30.67708333333334,0)" xlink:href="#af"/><use transform="matrix(0.026041666666666668,0,0,0.026041666666666668,59.50520833333335,0)" xlink:href="#ag"/><use transform="matrix(0.026041666666666668,0,0,0.026041666666666668,86.92708333333334,0)" xlink:href="#ah"/><use transform="matrix(0.026041666666666668,0,0,0.026041666666666668,104.94791666666669,0)" xlink:href="#ag"/></g><path fill="#fff" d="M130 0v-1456h448c435 14 673 299 665 762-5 285-130 500-319 606C822-31 708 0 581 0H130zm809-685c9-311-79-526-361-528H430v972h145c252-2 356-181 364-444" id="ai"/><path fill="#fff" d="M579 20C257 20 58-214 66-551c8-331 182-551 511-551 324 0 514 231 514 572 0 319-198 550-512 550zm-2-888c-169 0-222 141-222 338 0 181 61 317 224 317 170 0 223-137 223-338 0-178-64-317-225-317" id="aj"/><path fill="#fff" d="M355-556c-2 203 30 338 206 343 102 3 181-63 182-161h271C1001-128 821 17 566 20 242 24 66-212 66-554c0-320 184-548 498-548 262 0 451 167 450 423H743c-1-108-75-193-184-189-162 6-202 123-204 312" id="ak"/><g id="f"><use transform="matrix(0.026041666666666668,0,0,0.026041666666666668,0,0)" xlink:href="#ai"/><use transform="matrix(0.026041666666666668,0,0,0.026041666666666668,34.661458333333336,0)" xlink:href="#aj"/><use transform="matrix(0.026041666666666668,0,0,0.026041666666666668,64.81770833333334,0)" xlink:href="#ak"/><use transform="matrix(0.026041666666666668,0,0,0.026041666666666668,92.63020833333334,0)" xlink:href="#ag"/></g><path fill="#fff" d="M1212-428C1211-131 1004 0 696 0H130v-1456h510c318-1 539 108 539 399 0 155-89 264-208 308 141 33 242 151 241 321zM687-241c132 2 225-65 225-190 0-133-69-203-207-203H430v393h257zm192-786c0-145-86-186-239-186H430v367h222c151-3 227-63 227-181" id="al"/><path fill="#fff" d="M463 20c-241-1-359-147-359-393v-709h289v699c0 113 51 169 154 169 98 0 165-34 202-102v-766h290V0H767l-8-110C688-23 589 20 463 20" id="am"/><path fill="#fff" d="M416 0H126v-1082h290V0zM271-1212c-92 0-162-61-162-150s68-149 162-149c93 0 162 60 162 149s-70 150-162 150" id="an"/><path fill="#fff" d="M416 0H126v-1536h290V0" id="ao"/><path fill="#fff" d="M488 20C204 20 66-234 66-549c0-305 140-551 424-553 105 0 192 39 261 118v-552h290V0H780l-14-115C694-25 601 20 488 20zM355-528c0 176 51 314 207 314 89 0 152-38 189-113v-427c-36-75-98-113-187-113-139 0-209 113-209 339" id="ap"/><g id="g"><use transform="matrix(0.026041666666666668,0,0,0.026041666666666668,0,0)" xlink:href="#al"/><use transform="matrix(0.026041666666666668,0,0,0.026041666666666668,34.036458333333336,0)" xlink:href="#am"/><use transform="matrix(0.026041666666666668,0,0,0.026041666666666668,63.880208333333336,0)" xlink:href="#an"/><use transform="matrix(0.026041666666666668,0,0,0.026041666666666668,78.02083333333334,0)" xlink:href="#ao"/><use transform="matrix(0.026041666666666668,0,0,0.026041666666666668,92.16145833333334,0)" xlink:href="#ap"/></g><path fill="#fff" d="M1245-974c0 302-233 466-552 461H430V0H130v-1456h568c323 5 547 167 547 482zm-303 2c1-143-93-241-237-241H430v457h268c151 1 244-71 244-216" id="aq"/><path fill="#fff" d="M663-1102c295 0 423 246 423 571 0 313-131 551-421 551-117 0-211-45-281-135L371 0H111v-1536h289v551c67-78 154-117 263-117zm-71 889c164 0 209-139 205-339-3-189-44-315-207-315-92 0-155 38-190 113v427c35 76 99 114 192 114" id="ar"/><path fill="#fff" d="M750-685c-1-124-48-182-173-182-85 0-146 33-184 98V0H104v-1536h289v572c77-92 173-138 289-138 235 0 357 136 357 409V0H750v-685" id="as"/><g id="h"><use transform="matrix(0.026041666666666668,0,0,0.026041666666666668,0,0)" xlink:href="#aq"/><use transform="matrix(0.026041666666666668,0,0,0.026041666666666668,34.40104166666667,0)" xlink:href="#am"/><use transform="matrix(0.026041666666666668,0,0,0.026041666666666668,64.24479166666667,0)" xlink:href="#ar"/><use transform="matrix(0.026041666666666668,0,0,0.026041666666666668,94.27083333333334,0)" xlink:href="#ao"/><use transform="matrix(0.026041666666666668,0,0,0.026041666666666668,108.41145833333334,0)" xlink:href="#an"/><use transform="matrix(0.026041666666666668,0,0,0.026041666666666668,122.55208333333334,0)" xlink:href="#ag"/><use transform="matrix(0.026041666666666668,0,0,0.026041666666666668,149.97395833333334,0)" xlink:href="#as"/></g><path fill="#fff" d="M1314 0h-300L430-958V0H130v-1456h300l585 960v-960h299V0" id="at"/><path fill="#fff" d="M522-1456L896-400l372-1056h394V0h-301c-7-379 15-728 30-1085L998 0H792L400-1084c15 357 37 705 30 1084H130v-1456h392" id="au"/><g id="i"><use transform="matrix(0.026041666666666668,0,0,0.026041666666666668,0,0)" xlink:href="#at"/><use transform="matrix(0.026041666666666668,0,0,0.026041666666666668,37.65625,0)" xlink:href="#aq"/><use transform="matrix(0.026041666666666668,0,0,0.026041666666666668,72.05729166666667,0)" xlink:href="#au"/></g><path fill="#fff" d="M1264-420l196-1036h299L1436 0h-302L897-974 660 0H358L35-1456h299L531-422l240-1034h254" id="av"/><path fill="#fff" d="M504-434L400-330V0H111v-1536h289v851c106-137 222-264 333-397h347L689-631 1114 0H782" id="aw"/><g id="j"><use transform="matrix(0.026041666666666668,0,0,0.026041666666666668,0,0)" xlink:href="#av"/><use transform="matrix(0.026041666666666668,0,0,0.026041666666666668,46.640625,0)" xlink:href="#an"/><use transform="matrix(0.026041666666666668,0,0,0.026041666666666668,60.78125,0)" xlink:href="#aw"/><use transform="matrix(0.026041666666666668,0,0,0.026041666666666668,89.27083333333334,0)" xlink:href="#an"/></g><path fill="#fff" d="M399-777c-11 316 60 556 342 556 113 0 193-24 241-72v-251H709v-221h573v581C1177-55 960 24 725 20 280 12 81-292 94-770c11-421 200-700 610-706 347-5 543 171 578 483H990c-25-157-105-241-277-241-102 0-180 38-233 115s-76 191-81 342" id="ax"/><g id="k"><use transform="matrix(0.026041666666666668,0,0,0.026041666666666668,0,0)" xlink:href="#ax"/><use transform="matrix(0.026041666666666668,0,0,0.026041666666666668,36.328125,0)" xlink:href="#an"/><use transform="matrix(0.026041666666666668,0,0,0.026041666666666668,50.46875,0)" xlink:href="#ah"/><use transform="matrix(0.026041666666666668,0,0,0.026041666666666668,68.48958333333334,0)" xlink:href="#as"/><use transform="matrix(0.026041666666666668,0,0,0.026041666666666668,98.33333333333334,0)" xlink:href="#am"/><use transform="matrix(0.026041666666666668,0,0,0.026041666666666668,128.17708333333334,0)" xlink:href="#ar"/></g><path fill="#44583c" d="M973-380H363L226 0H28l556-1456h168L1309 0h-197zM421-538h495l-248-681" id="ay"/><path fill="#44583c" d="M538-131c121 0 232-49 232-156 0-50-20-88-56-117-73-60-334-92-420-143-92-55-162-110-162-238 0-190 192-317 400-317 223 0 414 129 413 338H759c0-108-110-186-227-186-119 0-215 53-215 159 0 45 18 78 53 101 76 52 331 90 416 139 98 57 169 115 169 251C955-92 760 20 538 20c-176 0-314-68-386-174-38-55-57-115-57-179h185c6 129 116 202 258 202" id="az"/><path fill="#44583c" d="M599-131c141 0 220-65 285-146l113 88C906-50 770 20 589 20 281 21 93-214 93-545c0-223 93-397 233-485 74-48 154-72 240-72 300 2 449 218 445 537v77H278c0 197 129 357 321 357zm227-509c-3-180-88-310-260-310-170 0-264 140-282 310h542" id="aA"/><path fill="#44583c" d="M1240-945c-141 0-250 95-250 227V0H804v-709c0-157-77-236-231-236-121 0-204 52-249 155V0H139v-1082h175l5 120c79-93 186-140 321-140 151 0 254 58 309 174 69-98 181-174 345-174 237 0 362 126 362 377V0h-185v-714c-2-159-67-231-231-231" id="aB"/><path fill="#44583c" d="M634-1102c292 0 422 254 422 573 0 298-143 547-420 549-137 0-242-48-317-145L310 0H140v-1536h185v573c75-93 178-139 309-139zm-44 965c207 0 281-175 281-413 0-224-79-395-283-395-122 0-210 57-263 170v468c57 113 145 170 265 170" id="aC"/><path fill="#44583c" d="M341 0H156v-1536h185V0" id="aD"/><path fill="#44583c" d="M494-271l252-811h198L509 167C425 381 299 474 84 421V271c167 16 242-37 283-173l41-110L22-1082h202" id="aE"/><path fill="#44583c" d="M631-137c179 0 314-70 314-231 0-71-25-127-75-166s-141-77-272-115c-165-47-285-106-360-175s-112-154-112-255c0-245 231-397 495-397 206 0 369 89 449 218 43 68 65 142 65 223H942c0-184-129-283-321-283-172 0-299 76-301 236 0 59 26 109 76 150s135 78 256 113c205 59 345 116 436 256 35 53 50 119 50 193-2 256-231 398-507 390C333 12 90-129 80-422h193c0 187 160 285 358 285" id="aF"/><path fill="#44583c" d="M277-555c0 244 77 420 297 424 127 2 249-93 255-210h175C980-127 805 20 574 20 258 20 81-222 92-562c11-319 164-533 481-540 237-5 426 165 431 392H829c-7-133-115-242-256-240-209 4-296 166-296 395" id="aG"/><path fill="#44583c" d="M663-916c-163-27-288 18-338 148V0H140v-1082h180l3 125c61-97 147-145 258-145 36 0 63 5 82 14v172" id="aH"/><path fill="#44583c" d="M341 0H156v-1082h185V0zm-91-1264c-68 0-108-42-109-105 0-62 41-107 109-107s110 44 110 107-42 105-110 105" id="aI"/><path fill="#44583c" d="M632-1102c291 0 422 251 422 573 0 297-141 548-419 549-131 0-235-42-310-125v521H140v-1498h169l9 120c75-93 180-140 314-140zm-53 971c207 0 290-180 290-419 0-218-92-395-292-395-112 0-196 50-252 149v517c55 99 140 148 254 148" id="aJ"/><path fill="#44583c" d="M456 20C285 20 205-92 206-268v-671H9v-143h197v-262h185v262h202v143H391v671c-9 125 92 149 207 118V0c-49 13-96 20-142 20" id="aK"/><g id="l"><use transform="matrix(0.013020833333333334,0,0,0.013020833333333334,0,0)" xlink:href="#ay"/><use transform="matrix(0.013020833333333334,0,0,0.013020833333333334,17.395833333333336,0)" xlink:href="#az"/><use transform="matrix(0.013020833333333334,0,0,0.013020833333333334,31.145833333333336,0)" xlink:href="#az"/><use transform="matrix(0.013020833333333334,0,0,0.013020833333333334,44.895833333333336,0)" xlink:href="#aA"/><use transform="matrix(0.013020833333333334,0,0,0.013020833333333334,59.0234375,0)" xlink:href="#aB"/><use transform="matrix(0.013020833333333334,0,0,0.013020833333333334,82.39583333333334,0)" xlink:href="#aC"/><use transform="matrix(0.013020833333333334,0,0,0.013020833333333334,97.35677083333334,0)" xlink:href="#aD"/><use transform="matrix(0.013020833333333334,0,0,0.013020833333333334,103.82812500000001,0)" xlink:href="#aE"/><use transform="matrix(0.013020833333333334,0,0,0.013020833333333334,116.4453125,0)" xlink:href="#aF"/><use transform="matrix(0.013020833333333334,0,0,0.013020833333333334,132.265625,0)" xlink:href="#aG"/><use transform="matrix(0.013020833333333334,0,0,0.013020833333333334,146.22395833333334,0)" xlink:href="#aH"/><use transform="matrix(0.013020833333333334,0,0,0.013020833333333334,155.24739583333334,0)" xlink:href="#aI"/><use transform="matrix(0.013020833333333334,0,0,0.013020833333333334,161.71875,0)" xlink:href="#aJ"/><use transform="matrix(0.013020833333333334,0,0,0.013020833333333334,176.6796875,0)" xlink:href="#aK"/></g><path fill="#44583c" d="M1175-1298H707V0H516v-1298H49v-158h1126v158" id="aL"/><g id="m"><use transform="matrix(0.013020833333333334,0,0,0.013020833333333334,0,0)" xlink:href="#aL"/><use transform="matrix(0.013020833333333334,0,0,0.013020833333333334,14.973958333333334,0)" xlink:href="#aE"/><use transform="matrix(0.013020833333333334,0,0,0.013020833333333334,27.591145833333336,0)" xlink:href="#aJ"/><use transform="matrix(0.013020833333333334,0,0,0.013020833333333334,42.552083333333336,0)" xlink:href="#aA"/><use transform="matrix(0.013020833333333334,0,0,0.013020833333333334,56.6796875,0)" xlink:href="#aF"/><use transform="matrix(0.013020833333333334,0,0,0.013020833333333334,72.5,0)" xlink:href="#aG"/><use transform="matrix(0.013020833333333334,0,0,0.013020833333333334,86.45833333333333,0)" xlink:href="#aH"/><use transform="matrix(0.013020833333333334,0,0,0.013020833333333334,95.48177083333333,0)" xlink:href="#aI"/><use transform="matrix(0.013020833333333334,0,0,0.013020833333333334,101.953125,0)" xlink:href="#aJ"/><use transform="matrix(0.013020833333333334,0,0,0.013020833333333334,116.9140625,0)" xlink:href="#aK"/></g><path fill="#44583c" d="M730-137c145 0 253-29 323-105v-327H716v-156h528v534C1148-51 964 20 729 20c-394 0-598-279-607-678v-127c-5-410 194-690 585-691 310-1 499 171 537 447h-192c-36-193-151-289-344-289-285 0-393 220-393 528v119c-5 296 140 534 415 534" id="aM"/><path fill="#44583c" d="M589-945c-131 0-219 81-264 174V0H140v-1082h175l6 136c83-104 191-156 324-156 229 0 346 129 346 387V0H806v-716c-2-153-65-229-217-229" id="aN"/><path fill="#44583c" d="M561-1102c238-4 403 126 403 351v498c0 99 13 178 38 237V0H808c-11-21-19-59-26-114C696-25 593 20 474 20c-199 0-368-130-365-320 4-251 214-359 490-356h180v-85c-1-135-86-212-229-212-115 0-232 67-233 171H131c20-205 206-316 430-320zM294-326c0 117 90 185 207 185 122 0 239-75 278-162v-222H634c-227 0-340 66-340 199" id="aO"/><path fill="#44583c" d="M584 20C278 26 81-227 91-551c10-320 175-545 491-551 308-5 503 247 494 573-9 322-175 543-492 549zm-2-970c-208 0-305 185-305 421 0 216 106 398 307 398 211 0 307-186 307-420 0-214-109-399-309-399" id="aP"/><g id="n"><use transform="matrix(0.013020833333333334,0,0,0.013020833333333334,0,0)" xlink:href="#aM"/><use transform="matrix(0.013020833333333334,0,0,0.013020833333333334,18.1640625,0)" xlink:href="#aA"/><use transform="matrix(0.013020833333333334,0,0,0.013020833333333334,32.29166666666667,0)" xlink:href="#aN"/><use transform="matrix(0.013020833333333334,0,0,0.013020833333333334,47.00520833333334,0)" xlink:href="#aA"/><use transform="matrix(0.013020833333333334,0,0,0.013020833333333334,61.132812500000014,0)" xlink:href="#aH"/><use transform="matrix(0.013020833333333334,0,0,0.013020833333333334,69.63541666666669,0)" xlink:href="#aO"/><use transform="matrix(0.013020833333333334,0,0,0.013020833333333334,84.14062500000001,0)" xlink:href="#aK"/><use transform="matrix(0.013020833333333334,0,0,0.013020833333333334,92.59114583333334,0)" xlink:href="#aP"/><use transform="matrix(0.013020833333333334,0,0,0.013020833333333334,107.79947916666667,0)" xlink:href="#aH"/><use transform="matrix(0.013020833333333334,0,0,0.013020833333333334,116.82291666666667,0)" xlink:href="#az"/></g><path fill="#c6dabf" d="M973-380H363L226 0H28l556-1456h168L1309 0h-197zM421-538h495l-248-681" id="aQ"/><path fill="#c6dabf" d="M1216-1011c-1 297-202 441-512 441H361V0H169v-1456h537c297-6 510 164 510 445zm-192 2c1-178-126-288-307-289H361v571h345c196 1 318-92 318-282" id="aR"/><path fill="#c6dabf" d="M375 0H183v-1456h192V0" id="aS"/><g id="o"><use transform="matrix(0.013020833333333334,0,0,0.013020833333333334,0,0)" xlink:href="#aQ"/><use transform="matrix(0.013020833333333334,0,0,0.013020833333333334,17.395833333333336,0)" xlink:href="#aR"/><use transform="matrix(0.013020833333333334,0,0,0.013020833333333334,34.21875,0)" xlink:href="#aS"/></g><path fill="#c6dabf" d="M1161-1018c0 201-122 330-278 388l342 618V0h-206L703-589H361V0H168v-1456h482c310-2 511 139 511 438zm-193 0c0-187-120-280-313-280H361v552h295c179 3 313-101 312-272" id="aT"/><path fill="#c6dabf" d="M599-131c141 0 220-65 285-146l113 88C906-50 770 20 589 20 281 21 93-214 93-545c0-223 93-397 233-485 74-48 154-72 240-72 300 2 449 218 445 537v77H278c0 197 129 357 321 357zm227-509c-3-180-88-310-260-310-170 0-264 140-282 310h542" id="aU"/><path fill="#c6dabf" d="M704-1390c-164-38-297 28-288 194v114h231v143H416V0H231v-939H60v-143h171v-111c-12-274 208-416 483-347" id="aV"/><path fill="#c6dabf" d="M663-916c-163-27-288 18-338 148V0H140v-1082h180l3 125c61-97 147-145 258-145 36 0 63 5 82 14v172" id="aW"/><path fill="#c6dabf" d="M589-945c-131 0-219 81-264 174V0H140v-1082h175l6 136c83-104 191-156 324-156 229 0 346 129 346 387V0H806v-716c-2-153-65-229-217-229" id="aX"/><path fill="#c6dabf" d="M277-555c0 244 77 420 297 424 127 2 249-93 255-210h175C980-127 805 20 574 20 258 20 81-222 92-562c11-319 164-533 481-540 237-5 426 165 431 392H829c-7-133-115-242-256-240-209 4-296 166-296 395" id="aY"/><g id="p"><use transform="matrix(0.013020833333333334,0,0,0.013020833333333334,0,0)" xlink:href="#aT"/><use transform="matrix(0.013020833333333334,0,0,0.013020833333333334,16.419270833333336,0)" xlink:href="#aU"/><use transform="matrix(0.013020833333333334,0,0,0.013020833333333334,30.546875,0)" xlink:href="#aV"/><use transform="matrix(0.013020833333333334,0,0,0.013020833333333334,39.4921875,0)" xlink:href="#aU"/><use transform="matrix(0.013020833333333334,0,0,0.013020833333333334,53.61979166666667,0)" xlink:href="#aW"/><use transform="matrix(0.013020833333333334,0,0,0.013020833333333334,62.395833333333336,0)" xlink:href="#aU"/><use transform="matrix(0.013020833333333334,0,0,0.013020833333333334,76.5234375,0)" xlink:href="#aX"/><use transform="matrix(0.013020833333333334,0,0,0.013020833333333334,91.23697916666667,0)" xlink:href="#aY"/><use transform="matrix(0.013020833333333334,0,0,0.013020833333333334,105.1953125,0)" xlink:href="#aU"/></g><path fill="#c6dabf" d="M589-945c-131 0-219 81-264 174V0H140v-1536h185v585c82-101 189-151 320-151 229 0 346 129 346 387V0H806v-716c-2-153-65-229-217-229" id="aZ"/><path fill="#c6dabf" d="M341 0H156v-1082h185V0zm-91-1264c-68 0-108-42-109-105 0-62 41-107 109-107s110 44 110 107-42 105-110 105" id="ba"/><path fill="#c6dabf" d="M456 20C285 20 205-92 206-268v-671H9v-143h197v-262h185v262h202v143H391v671c-9 125 92 149 207 118V0c-49 13-96 20-142 20" id="bb"/><path fill="#c6dabf" d="M491 20c-241-1-355-148-355-398v-704h185v699c0 164 67 246 200 246 141 0 235-53 282-158v-787h185V0H812l-4-107C736-22 630 20 491 20" id="bc"/><g id="q"><use transform="matrix(0.013020833333333334,0,0,0.013020833333333334,0,0)" xlink:href="#aQ"/><use transform="matrix(0.013020833333333334,0,0,0.013020833333333334,17.395833333333336,0)" xlink:href="#aW"/><use transform="matrix(0.013020833333333334,0,0,0.013020833333333334,26.171875000000004,0)" xlink:href="#aY"/><use transform="matrix(0.013020833333333334,0,0,0.013020833333333334,40.130208333333336,0)" xlink:href="#aZ"/><use transform="matrix(0.013020833333333334,0,0,0.013020833333333334,54.817708333333336,0)" xlink:href="#ba"/><use transform="matrix(0.013020833333333334,0,0,0.013020833333333334,61.2890625,0)" xlink:href="#bb"/><use transform="matrix(0.013020833333333334,0,0,0.013020833333333334,70,0)" xlink:href="#aU"/><use transform="matrix(0.013020833333333334,0,0,0.013020833333333334,84.12760416666667,0)" xlink:href="#aY"/><use transform="matrix(0.013020833333333334,0,0,0.013020833333333334,98.0859375,0)" xlink:href="#bb"/><use transform="matrix(0.013020833333333334,0,0,0.013020833333333334,106.796875,0)" xlink:href="#bc"/><use transform="matrix(0.013020833333333334,0,0,0.013020833333333334,121.49739583333334,0)" xlink:href="#aW"/><use transform="matrix(0.013020833333333334,0,0,0.013020833333333334,130.2734375,0)" xlink:href="#aU"/></g><path fill="#c6dabf" d="M520 20C244 20 95-247 95-550c0-298 151-550 427-552 127 0 227 43 301 130v-564h185V0H838l-9-116C755-25 652 20 520 20zm48-965c-210 0-288 177-288 416 0 218 87 392 286 392 117 0 203-53 257-158v-497c-55-102-140-153-255-153" id="bd"/><path fill="#c6dabf" d="M538-131c121 0 232-49 232-156 0-50-20-88-56-117-73-60-334-92-420-143-92-55-162-110-162-238 0-190 192-317 400-317 223 0 414 129 413 338H759c0-108-110-186-227-186-119 0-215 53-215 159 0 45 18 78 53 101 76 52 331 90 416 139 98 57 169 115 169 251C955-92 760 20 538 20c-176 0-314-68-386-174-38-55-57-115-57-179h185c6 129 116 202 258 202" id="be"/><g id="r"><use transform="matrix(0.013020833333333334,0,0,0.013020833333333334,0,0)" xlink:href="#aQ"/><use transform="matrix(0.013020833333333334,0,0,0.013020833333333334,17.395833333333336,0)" xlink:href="#bc"/><use transform="matrix(0.013020833333333334,0,0,0.013020833333333334,32.09635416666667,0)" xlink:href="#bd"/><use transform="matrix(0.013020833333333334,0,0,0.013020833333333334,47.13541666666667,0)" xlink:href="#ba"/><use transform="matrix(0.013020833333333334,0,0,0.013020833333333334,53.606770833333336,0)" xlink:href="#bb"/><use transform="matrix(0.013020833333333334,0,0,0.013020833333333334,62.317708333333336,0)" xlink:href="#be"/></g><path fill="#c6dabf" d="M651-255l416-1201h210L737 0H567L28-1456h209" id="bf"/><path fill="#c6dabf" d="M584 20C278 26 81-227 91-551c10-320 175-545 491-551 308-5 503 247 494 573-9 322-175 543-492 549zm-2-970c-208 0-305 185-305 421 0 216 106 398 307 398 211 0 307-186 307-420 0-214-109-399-309-399" id="bg"/><g id="s"><use transform="matrix(0.013020833333333334,0,0,0.013020833333333334,0,0)" xlink:href="#bf"/><use transform="matrix(0.013020833333333334,0,0,0.013020833333333334,16.393229166666668,0)" xlink:href="#aU"/><use transform="matrix(0.013020833333333334,0,0,0.013020833333333334,30.520833333333336,0)" xlink:href="#aY"/><use transform="matrix(0.013020833333333334,0,0,0.013020833333333334,44.47916666666667,0)" xlink:href="#bb"/><use transform="matrix(0.013020833333333334,0,0,0.013020833333333334,52.92968750000001,0)" xlink:href="#bg"/><use transform="matrix(0.013020833333333334,0,0,0.013020833333333334,68.13802083333334,0)" xlink:href="#aW"/><use transform="matrix(0.013020833333333334,0,0,0.013020833333333334,77.16145833333334,0)" xlink:href="#be"/></g><path fill="#c6dabf" d="M665-137c214 0 337-121 336-332v-987h193v990c-3 300-218 486-529 486-309 0-526-181-525-484v-992h190v986c-1 210 123 333 335 333" id="bh"/><g id="t"><use transform="matrix(0.013020833333333334,0,0,0.013020833333333334,0,0)" xlink:href="#bh"/><use transform="matrix(0.013020833333333334,0,0,0.013020833333333334,17.291666666666668,0)" xlink:href="#aX"/><use transform="matrix(0.013020833333333334,0,0,0.013020833333333334,32.005208333333336,0)" xlink:href="#ba"/><use transform="matrix(0.013020833333333334,0,0,0.013020833333333334,38.4765625,0)" xlink:href="#bb"/></g><path fill="#c6dabf" d="M992-673H361v516h733V0H169v-1456h915v158H361v468h631v157" id="bi"/><path fill="#c6dabf" d="M569-1476c255 0 440 146 439 390 0 143-91 314-274 512L344-151h731V0H121v-133l504-560c75-85 125-155 155-207 105-184 6-424-211-424-183 0-293 113-291 297H93c-3-270 199-449 476-449" id="bj"/><g id="u"><use transform="matrix(0.013020833333333334,0,0,0.013020833333333334,0,0)" xlink:href="#bi"/><use transform="matrix(0.013020833333333334,0,0,0.013020833333333334,15.15625,0)" xlink:href="#bj"/><use transform="matrix(0.013020833333333334,0,0,0.013020833333333334,30.130208333333336,0)" xlink:href="#bi"/></g><path fill="#c6dabf" d="M634-1102c292 0 422 254 422 573 0 298-143 547-420 549-137 0-242-48-317-145L310 0H140v-1536h185v573c75-93 178-139 309-139zm-44 965c207 0 281-175 281-413 0-224-79-395-283-395-122 0-210 57-263 170v468c57 113 145 170 265 170" id="bk"/><path fill="#c6dabf" d="M341 0H156v-1536h185V0" id="bl"/><path fill="#c6dabf" d="M248 11c-71 0-114-43-114-108 0-67 42-112 114-112s116 45 116 112c-1 65-45 108-116 108zm1-883c-71 0-114-43-114-108 0-67 42-112 114-112s116 45 116 112c-1 65-45 108-116 108" id="bm"/><path fill="#c6dabf" d="M561-1102c238-4 403 126 403 351v498c0 99 13 178 38 237V0H808c-11-21-19-59-26-114C696-25 593 20 474 20c-199 0-368-130-365-320 4-251 214-359 490-356h180v-85c-1-135-86-212-229-212-115 0-232 67-233 171H131c20-205 206-316 430-320zM294-326c0 117 90 185 207 185 122 0 239-75 278-162v-222H634c-227 0-340 66-340 199" id="bn"/><path fill="#c6dabf" d="M1240-945c-141 0-250 95-250 227V0H804v-709c0-157-77-236-231-236-121 0-204 52-249 155V0H139v-1082h175l5 120c79-93 186-140 321-140 151 0 254 58 309 174 69-98 181-174 345-174 237 0 362 126 362 377V0h-185v-714c-2-159-67-231-231-231" id="bo"/><g id="v"><use transform="matrix(0.013020833333333334,0,0,0.013020833333333334,0,0)" xlink:href="#bk"/><use transform="matrix(0.013020833333333334,0,0,0.013020833333333334,14.9609375,0)" xlink:href="#bc"/><use transform="matrix(0.013020833333333334,0,0,0.013020833333333334,29.661458333333336,0)" xlink:href="#ba"/><use transform="matrix(0.013020833333333334,0,0,0.013020833333333334,36.1328125,0)" xlink:href="#bl"/><use transform="matrix(0.013020833333333334,0,0,0.013020833333333334,42.604166666666664,0)" xlink:href="#bd"/><use transform="matrix(0.013020833333333334,0,0,0.013020833333333334,57.64322916666667,0)" xlink:href="#bm"/><use transform="matrix(0.013020833333333334,0,0,0.013020833333333334,64.1015625,0)" xlink:href="#bn"/><use transform="matrix(0.013020833333333334,0,0,0.013020833333333334,78.60677083333333,0)" xlink:href="#be"/><use transform="matrix(0.013020833333333334,0,0,0.013020833333333334,92.35677083333333,0)" xlink:href="#bo"/></g><g id="w"><use transform="matrix(0.013020833333333334,0,0,0.013020833333333334,0,0)" xlink:href="#bk"/><use transform="matrix(0.013020833333333334,0,0,0.013020833333333334,14.9609375,0)" xlink:href="#bc"/><use transform="matrix(0.013020833333333334,0,0,0.013020833333333334,29.661458333333336,0)" xlink:href="#ba"/><use transform="matrix(0.013020833333333334,0,0,0.013020833333333334,36.1328125,0)" xlink:href="#bl"/><use transform="matrix(0.013020833333333334,0,0,0.013020833333333334,42.604166666666664,0)" xlink:href="#bd"/><use transform="matrix(0.013020833333333334,0,0,0.013020833333333334,57.64322916666667,0)" xlink:href="#bm"/><use transform="matrix(0.013020833333333334,0,0,0.013020833333333334,64.1015625,0)" xlink:href="#aU"/><use transform="matrix(0.013020833333333334,0,0,0.013020833333333334,78.22916666666667,0)" xlink:href="#bo"/><use transform="matrix(0.013020833333333334,0,0,0.013020833333333334,101.6015625,0)" xlink:href="#bk"/><use transform="matrix(0.013020833333333334,0,0,0.013020833333333334,116.5625,0)" xlink:href="#aU"/><use transform="matrix(0.013020833333333334,0,0,0.013020833333333334,130.69010416666666,0)" xlink:href="#bd"/></g><path fill="#c6dabf" d="M525-543H37v-151h488v151" id="bp"/><path fill="#c6dabf" d="M1098-255l208-827h185L1176 0h-150L763-820 507 0H357L43-1082h184l213 810 252-810h149" id="bq"/><path fill="#c6dabf" d="M442-501L326-380V0H141v-1536h185v929c135-169 291-317 436-475h225L566-630 1036 0H819" id="br"/><g id="x"><use transform="matrix(0.013020833333333334,0,0,0.013020833333333334,0,0)" xlink:href="#bk"/><use transform="matrix(0.013020833333333334,0,0,0.013020833333333334,14.9609375,0)" xlink:href="#bc"/><use transform="matrix(0.013020833333333334,0,0,0.013020833333333334,29.661458333333336,0)" xlink:href="#ba"/><use transform="matrix(0.013020833333333334,0,0,0.013020833333333334,36.1328125,0)" xlink:href="#bl"/><use transform="matrix(0.013020833333333334,0,0,0.013020833333333334,42.604166666666664,0)" xlink:href="#bd"/><use transform="matrix(0.013020833333333334,0,0,0.013020833333333334,57.64322916666667,0)" xlink:href="#bm"/><use transform="matrix(0.013020833333333334,0,0,0.013020833333333334,64.1015625,0)" xlink:href="#aU"/><use transform="matrix(0.013020833333333334,0,0,0.013020833333333334,78.22916666666667,0)" xlink:href="#bo"/><use transform="matrix(0.013020833333333334,0,0,0.013020833333333334,101.6015625,0)" xlink:href="#bk"/><use transform="matrix(0.013020833333333334,0,0,0.013020833333333334,116.5625,0)" xlink:href="#aU"/><use transform="matrix(0.013020833333333334,0,0,0.013020833333333334,130.69010416666666,0)" xlink:href="#bd"/><use transform="matrix(0.013020833333333334,0,0,0.013020833333333334,145.72916666666666,0)" xlink:href="#bp"/><use transform="matrix(0.013020833333333334,0,0,0.013020833333333334,153.0859375,0)" xlink:href="#bq"/><use transform="matrix(0.013020833333333334,0,0,0.013020833333333334,173.125,0)" xlink:href="#bg"/><use transform="matrix(0.013020833333333334,0,0,0.013020833333333334,188.33333333333334,0)" xlink:href="#aW"/><use transform="matrix(0.013020833333333334,0,0,0.013020833333333334,197.35677083333334,0)" xlink:href="#br"/><use transform="matrix(0.013020833333333334,0,0,0.013020833333333334,210.61197916666669,0)" xlink:href="#aU"/><use transform="matrix(0.013020833333333334,0,0,0.013020833333333334,224.73958333333334,0)" xlink:href="#aW"/><use transform="matrix(0.013020833333333334,0,0,0.013020833333333334,233.76302083333334,0)" xlink:href="#be"/></g><g id="y"><use transform="matrix(0.013020833333333334,0,0,0.013020833333333334,0,0)" xlink:href="#bk"/><use transform="matrix(0.013020833333333334,0,0,0.013020833333333334,14.9609375,0)" xlink:href="#bc"/><use transform="matrix(0.013020833333333334,0,0,0.013020833333333334,29.661458333333336,0)" xlink:href="#ba"/><use transform="matrix(0.013020833333333334,0,0,0.013020833333333334,36.1328125,0)" xlink:href="#bl"/><use transform="matrix(0.013020833333333334,0,0,0.013020833333333334,42.604166666666664,0)" xlink:href="#bd"/><use transform="matrix(0.013020833333333334,0,0,0.013020833333333334,57.64322916666667,0)" xlink:href="#bm"/><use transform="matrix(0.013020833333333334,0,0,0.013020833333333334,64.1015625,0)" xlink:href="#bb"/><use transform="matrix(0.013020833333333334,0,0,0.013020833333333334,72.8125,0)" xlink:href="#be"/></g><path fill="#93d6f1" d="M1161-1018c0 201-122 330-278 388l342 618V0h-206L703-589H361V0H168v-1456h482c310-2 511 139 511 438zm-193 0c0-187-120-280-313-280H361v552h295c179 3 313-101 312-272" id="bs"/><path fill="#93d6f1" d="M599-131c141 0 220-65 285-146l113 88C906-50 770 20 589 20 281 21 93-214 93-545c0-223 93-397 233-485 74-48 154-72 240-72 300 2 449 218 445 537v77H278c0 197 129 357 321 357zm227-509c-3-180-88-310-260-310-170 0-264 140-282 310h542" id="bt"/><path fill="#93d6f1" d="M341 0H156v-1536h185V0" id="bu"/><path fill="#93d6f1" d="M561-1102c238-4 403 126 403 351v498c0 99 13 178 38 237V0H808c-11-21-19-59-26-114C696-25 593 20 474 20c-199 0-368-130-365-320 4-251 214-359 490-356h180v-85c-1-135-86-212-229-212-115 0-232 67-233 171H131c20-205 206-316 430-320zM294-326c0 117 90 185 207 185 122 0 239-75 278-162v-222H634c-227 0-340 66-340 199" id="bv"/><path fill="#93d6f1" d="M538-131c121 0 232-49 232-156 0-50-20-88-56-117-73-60-334-92-420-143-92-55-162-110-162-238 0-190 192-317 400-317 223 0 414 129 413 338H759c0-108-110-186-227-186-119 0-215 53-215 159 0 45 18 78 53 101 76 52 331 90 416 139 98 57 169 115 169 251C955-92 760 20 538 20c-176 0-314-68-386-174-38-55-57-115-57-179h185c6 129 116 202 258 202" id="bw"/><g id="z"><use transform="matrix(0.013020833333333334,0,0,0.013020833333333334,0,0)" xlink:href="#bs"/><use transform="matrix(0.013020833333333334,0,0,0.013020833333333334,16.419270833333336,0)" xlink:href="#bt"/><use transform="matrix(0.013020833333333334,0,0,0.013020833333333334,30.546875,0)" xlink:href="#bu"/><use transform="matrix(0.013020833333333334,0,0,0.013020833333333334,37.01822916666667,0)" xlink:href="#bt"/><use transform="matrix(0.013020833333333334,0,0,0.013020833333333334,51.14583333333334,0)" xlink:href="#bv"/><use transform="matrix(0.013020833333333334,0,0,0.013020833333333334,65.65104166666667,0)" xlink:href="#bw"/><use transform="matrix(0.013020833333333334,0,0,0.013020833333333334,79.40104166666667,0)" xlink:href="#bt"/><use transform="matrix(0.013020833333333334,0,0,0.013020833333333334,93.52864583333334,0)" xlink:href="#bw"/></g><path fill="#93d6f1" d="M973-380H363L226 0H28l556-1456h168L1309 0h-197zM421-538h495l-248-681" id="bx"/><path fill="#93d6f1" d="M456 20C285 20 205-92 206-268v-671H9v-143h197v-262h185v262h202v143H391v671c-9 125 92 149 207 118V0c-49 13-96 20-142 20" id="by"/><path fill="#93d6f1" d="M341 0H156v-1082h185V0zm-91-1264c-68 0-108-42-109-105 0-62 41-107 109-107s110 44 110 107-42 105-110 105" id="bz"/><path fill="#93d6f1" d="M584 20C278 26 81-227 91-551c10-320 175-545 491-551 308-5 503 247 494 573-9 322-175 543-492 549zm-2-970c-208 0-305 185-305 421 0 216 106 398 307 398 211 0 307-186 307-420 0-214-109-399-309-399" id="bA"/><path fill="#93d6f1" d="M589-945c-131 0-219 81-264 174V0H140v-1082h175l6 136c83-104 191-156 324-156 229 0 346 129 346 387V0H806v-716c-2-153-65-229-217-229" id="bB"/><g id="A"><use transform="matrix(0.013020833333333334,0,0,0.013020833333333334,0,0)" xlink:href="#bx"/><use transform="matrix(0.013020833333333334,0,0,0.013020833333333334,17.174479166666668,0)" xlink:href="#by"/><use transform="matrix(0.013020833333333334,0,0,0.013020833333333334,25.885416666666668,0)" xlink:href="#by"/><use transform="matrix(0.013020833333333334,0,0,0.013020833333333334,34.59635416666667,0)" xlink:href="#bt"/><use transform="matrix(0.013020833333333334,0,0,0.013020833333333334,48.72395833333334,0)" xlink:href="#bw"/><use transform="matrix(0.013020833333333334,0,0,0.013020833333333334,62.47395833333335,0)" xlink:href="#by"/><use transform="matrix(0.013020833333333334,0,0,0.013020833333333334,71.18489583333334,0)" xlink:href="#bv"/><use transform="matrix(0.013020833333333334,0,0,0.013020833333333334,85.69010416666667,0)" xlink:href="#by"/><use transform="matrix(0.013020833333333334,0,0,0.013020833333333334,94.40104166666667,0)" xlink:href="#bz"/><use transform="matrix(0.013020833333333334,0,0,0.013020833333333334,100.87239583333334,0)" xlink:href="#bA"/><use transform="matrix(0.013020833333333334,0,0,0.013020833333333334,116.08072916666667,0)" xlink:href="#bB"/><use transform="matrix(0.013020833333333334,0,0,0.013020833333333334,130.79427083333334,0)" xlink:href="#bw"/></g><path fill="#93d6f1" d="M663-916c-163-27-288 18-338 148V0H140v-1082h180l3 125c61-97 147-145 258-145 36 0 63 5 82 14v172" id="bC"/><path fill="#93d6f1" d="M277-555c0 244 77 420 297 424 127 2 249-93 255-210h175C980-127 805 20 574 20 258 20 81-222 92-562c11-319 164-533 481-540 237-5 426 165 431 392H829c-7-133-115-242-256-240-209 4-296 166-296 395" id="bD"/><path fill="#93d6f1" d="M589-945c-131 0-219 81-264 174V0H140v-1536h185v585c82-101 189-151 320-151 229 0 346 129 346 387V0H806v-716c-2-153-65-229-217-229" id="bE"/><path fill="#93d6f1" d="M497-251l268-831h189L566 0H425L33-1082h189" id="bF"/><g id="B"><use transform="matrix(0.013020833333333334,0,0,0.013020833333333334,0,0)" xlink:href="#bx"/><use transform="matrix(0.013020833333333334,0,0,0.013020833333333334,17.395833333333336,0)" xlink:href="#bC"/><use transform="matrix(0.013020833333333334,0,0,0.013020833333333334,26.171875000000004,0)" xlink:href="#bD"/><use transform="matrix(0.013020833333333334,0,0,0.013020833333333334,40.130208333333336,0)" xlink:href="#bE"/><use transform="matrix(0.013020833333333334,0,0,0.013020833333333334,54.817708333333336,0)" xlink:href="#bz"/><use transform="matrix(0.013020833333333334,0,0,0.013020833333333334,61.2890625,0)" xlink:href="#bF"/><use transform="matrix(0.013020833333333334,0,0,0.013020833333333334,74.03645833333333,0)" xlink:href="#bt"/><use transform="matrix(0.013020833333333334,0,0,0.013020833333333334,88.1640625,0)" xlink:href="#bw"/></g><path fill="#93d6f1" d="M1216-1011c-1 297-202 441-512 441H361V0H169v-1456h537c297-6 510 164 510 445zm-192 2c1-178-126-288-307-289H361v571h345c196 1 318-92 318-282" id="bG"/><path fill="#93d6f1" d="M19 279c92 0 127-48 127-150v-1211h185V125c0 208-94 312-283 312-41 0-78-6-113-18V271c21 5 49 8 84 8zm216-1543c-68 0-107-42-108-105 0-61 42-107 108-107 68 0 110 44 110 107s-42 105-110 105" id="bH"/><g id="C"><use transform="matrix(0.013020833333333334,0,0,0.013020833333333334,0,0)" xlink:href="#bG"/><use transform="matrix(0.013020833333333334,0,0,0.013020833333333334,16.822916666666668,0)" xlink:href="#bC"/><use transform="matrix(0.013020833333333334,0,0,0.013020833333333334,25.5859375,0)" xlink:href="#bA"/><use transform="matrix(0.013020833333333334,0,0,0.013020833333333334,40.794270833333336,0)" xlink:href="#bH"/><use transform="matrix(0.013020833333333334,0,0,0.013020833333333334,47.161458333333336,0)" xlink:href="#bt"/><use transform="matrix(0.013020833333333334,0,0,0.013020833333333334,61.2890625,0)" xlink:href="#bD"/><use transform="matrix(0.013020833333333334,0,0,0.013020833333333334,75.24739583333333,0)" xlink:href="#by"/></g><path fill="#93d6f1" d="M483-459l28 192 41-173 288-1016h162l281 1016 40 176 31-196 226-996h193L1420 0h-175L945-1061l-23-111-23 111L588 0H413L61-1456h192" id="bI"/><path fill="#93d6f1" d="M634-1102c292 0 422 254 422 573 0 298-143 547-420 549-137 0-242-48-317-145L310 0H140v-1536h185v573c75-93 178-139 309-139zm-44 965c207 0 281-175 281-413 0-224-79-395-283-395-122 0-210 57-263 170v468c57 113 145 170 265 170" id="bJ"/><g id="D"><use transform="matrix(0.013020833333333334,0,0,0.013020833333333334,0,0)" xlink:href="#bI"/><use transform="matrix(0.013020833333333334,0,0,0.013020833333333334,23.255208333333336,0)" xlink:href="#bt"/><use transform="matrix(0.013020833333333334,0,0,0.013020833333333334,37.3828125,0)" xlink:href="#bJ"/><use transform="matrix(0.013020833333333334,0,0,0.013020833333333334,52.34375,0)" xlink:href="#bw"/><use transform="matrix(0.013020833333333334,0,0,0.013020833333333334,66.09375,0)" xlink:href="#bz"/><use transform="matrix(0.013020833333333334,0,0,0.013020833333333334,72.56510416666667,0)" xlink:href="#by"/><use transform="matrix(0.013020833333333334,0,0,0.013020833333333334,81.27604166666667,0)" xlink:href="#bt"/></g><path fill="#93d6f1" d="M1222-777c17 480-206 763-650 777H169v-1456h411c408 9 627 269 642 679zm-190 4c3-312-149-522-447-525H361v1141h202c308 0 473-209 469-531v-85" id="bK"/><path fill="#93d6f1" d="M491 20c-241-1-355-148-355-398v-704h185v699c0 164 67 246 200 246 141 0 235-53 282-158v-787h185V0H812l-4-107C736-22 630 20 491 20" id="bL"/><path fill="#93d6f1" d="M1240-945c-141 0-250 95-250 227V0H804v-709c0-157-77-236-231-236-121 0-204 52-249 155V0H139v-1082h175l5 120c79-93 186-140 321-140 151 0 254 58 309 174 69-98 181-174 345-174 237 0 362 126 362 377V0h-185v-714c-2-159-67-231-231-231" id="bM"/><g id="E"><use transform="matrix(0.013020833333333334,0,0,0.013020833333333334,0,0)" xlink:href="#bK"/><use transform="matrix(0.013020833333333334,0,0,0.013020833333333334,17.486979166666668,0)" xlink:href="#bA"/><use transform="matrix(0.013020833333333334,0,0,0.013020833333333334,32.6953125,0)" xlink:href="#bD"/><use transform="matrix(0.013020833333333334,0,0,0.013020833333333334,46.653645833333336,0)" xlink:href="#bL"/><use transform="matrix(0.013020833333333334,0,0,0.013020833333333334,61.35416666666667,0)" xlink:href="#bM"/><use transform="matrix(0.013020833333333334,0,0,0.013020833333333334,84.7265625,0)" xlink:href="#bt"/><use transform="matrix(0.013020833333333334,0,0,0.013020833333333334,98.85416666666667,0)" xlink:href="#bB"/><use transform="matrix(0.013020833333333334,0,0,0.013020833333333334,113.56770833333334,0)" xlink:href="#by"/><use transform="matrix(0.013020833333333334,0,0,0.013020833333333334,122.27864583333334,0)" xlink:href="#bv"/><use transform="matrix(0.013020833333333334,0,0,0.013020833333333334,136.78385416666669,0)" xlink:href="#by"/><use transform="matrix(0.013020833333333334,0,0,0.013020833333333334,145.49479166666669,0)" xlink:href="#bz"/><use transform="matrix(0.013020833333333334,0,0,0.013020833333333334,151.96614583333334,0)" xlink:href="#bA"/><use transform="matrix(0.013020833333333334,0,0,0.013020833333333334,167.17447916666669,0)" xlink:href="#bB"/></g><path fill="#93d6f1" d="M631-137c179 0 314-70 314-231 0-71-25-127-75-166s-141-77-272-115c-165-47-285-106-360-175s-112-154-112-255c0-245 231-397 495-397 206 0 369 89 449 218 43 68 65 142 65 223H942c0-184-129-283-321-283-172 0-299 76-301 236 0 59 26 109 76 150s135 78 256 113c205 59 345 116 436 256 35 53 50 119 50 193-2 256-231 398-507 390C333 12 90-129 80-422h193c0 187 160 285 358 285" id="bN"/><path fill="#93d6f1" d="M494-271l252-811h198L509 167C425 381 299 474 84 421V271c167 16 242-37 283-173l41-110L22-1082h202" id="bO"/><g id="F"><use transform="matrix(0.013020833333333334,0,0,0.013020833333333334,0,0)" xlink:href="#bN"/><use transform="matrix(0.013020833333333334,0,0,0.013020833333333334,15.8203125,0)" xlink:href="#bt"/><use transform="matrix(0.013020833333333334,0,0,0.013020833333333334,29.947916666666668,0)" xlink:href="#bD"/><use transform="matrix(0.013020833333333334,0,0,0.013020833333333334,43.90625,0)" xlink:href="#bL"/><use transform="matrix(0.013020833333333334,0,0,0.013020833333333334,58.606770833333336,0)" xlink:href="#bC"/><use transform="matrix(0.013020833333333334,0,0,0.013020833333333334,67.63020833333334,0)" xlink:href="#bz"/><use transform="matrix(0.013020833333333334,0,0,0.013020833333333334,74.10156250000001,0)" xlink:href="#by"/><use transform="matrix(0.013020833333333334,0,0,0.013020833333333334,82.81250000000001,0)" xlink:href="#bO"/></g><g id="G"><use transform="matrix(0.013020833333333334,0,0,0.013020833333333334,0,0)" xlink:href="#bG"/><use transform="matrix(0.013020833333333334,0,0,0.013020833333333334,16.653645833333336,0)" xlink:href="#bA"/><use transform="matrix(0.013020833333333334,0,0,0.013020833333333334,31.861979166666675,0)" xlink:href="#bw"/><use transform="matrix(0.013020833333333334,0,0,0.013020833333333334,45.61197916666667,0)" xlink:href="#by"/><use transform="matrix(0.013020833333333334,0,0,0.013020833333333334,54.32291666666667,0)" xlink:href="#bL"/><use transform="matrix(0.013020833333333334,0,0,0.013020833333333334,69.0234375,0)" xlink:href="#bC"/><use transform="matrix(0.013020833333333334,0,0,0.013020833333333334,77.79947916666667,0)" xlink:href="#bt"/></g><path fill="#93d6f1" d="M442-501L326-380V0H141v-1536h185v929c135-169 291-317 436-475h225L566-630 1036 0H819" id="bP"/><path fill="#93d6f1" d="M521 20C240 20 96-239 96-550c0-303 147-552 427-552 132 0 235 47 309 140l9-120h169V-26c4 277-183 454-459 452-165-1-334-81-400-187l96-111c79 98 176 147 291 147 180 1 288-109 286-290v-93C750-23 649 20 521 20zm48-965c-209 0-287 178-287 416 0 217 86 392 285 392 117 0 202-53 257-159v-494c-57-103-142-155-255-155" id="bQ"/><g id="H"><use transform="matrix(0.013020833333333334,0,0,0.013020833333333334,0,0)" xlink:href="#bG"/><use transform="matrix(0.013020833333333334,0,0,0.013020833333333334,16.6796875,0)" xlink:href="#bv"/><use transform="matrix(0.013020833333333334,0,0,0.013020833333333334,31.184895833333336,0)" xlink:href="#bD"/><use transform="matrix(0.013020833333333334,0,0,0.013020833333333334,45.14322916666667,0)" xlink:href="#bP"/><use transform="matrix(0.013020833333333334,0,0,0.013020833333333334,58.65885416666667,0)" xlink:href="#bv"/><use transform="matrix(0.013020833333333334,0,0,0.013020833333333334,73.1640625,0)" xlink:href="#bQ"/><use transform="matrix(0.013020833333333334,0,0,0.013020833333333334,88.125,0)" xlink:href="#bt"/><use transform="matrix(0.013020833333333334,0,0,0.013020833333333334,102.25260416666667,0)" xlink:href="#bw"/></g><path fill="#93d6f1" d="M520 20C244 20 95-247 95-550c0-298 151-550 427-552 127 0 227 43 301 130v-564h185V0H838l-9-116C755-25 652 20 520 20zm48-965c-210 0-288 177-288 416 0 218 87 392 286 392 117 0 203-53 257-158v-497c-55-102-140-153-255-153" id="bR"/><g id="I"><use transform="matrix(0.013020833333333334,0,0,0.013020833333333334,0,0)" xlink:href="#bG"/><use transform="matrix(0.013020833333333334,0,0,0.013020833333333334,16.822916666666668,0)" xlink:href="#bC"/><use transform="matrix(0.013020833333333334,0,0,0.013020833333333334,25.5859375,0)" xlink:href="#bA"/><use transform="matrix(0.013020833333333334,0,0,0.013020833333333334,40.598958333333336,0)" xlink:href="#bF"/><use transform="matrix(0.013020833333333334,0,0,0.013020833333333334,53.515625,0)" xlink:href="#bz"/><use transform="matrix(0.013020833333333334,0,0,0.013020833333333334,59.98697916666667,0)" xlink:href="#bR"/><use transform="matrix(0.013020833333333334,0,0,0.013020833333333334,75.02604166666666,0)" xlink:href="#bt"/><use transform="matrix(0.013020833333333334,0,0,0.013020833333333334,89.15364583333333,0)" xlink:href="#bB"/><use transform="matrix(0.013020833333333334,0,0,0.013020833333333334,103.8671875,0)" xlink:href="#bD"/><use transform="matrix(0.013020833333333334,0,0,0.013020833333333334,117.82552083333334,0)" xlink:href="#bt"/></g><path fill="#93d6f1" d="M688-137c238 0 323-102 359-325h193c-32 297-228 482-552 482-361 0-569-299-569-680 0-197 8-360 73-497 88-186 257-317 513-319 316-2 509 195 535 488h-193c-31-212-118-330-342-330-272 0-397 224-393 523v141c-3 282 115 517 376 517" id="bS"/><path fill="#93d6f1" d="M375 0H183v-1456h192V0" id="bT"/><g id="J"><use transform="matrix(0.013020833333333334,0,0,0.013020833333333334,0,0)" xlink:href="#bS"/><use transform="matrix(0.013020833333333334,0,0,0.013020833333333334,17.356770833333336,0)" xlink:href="#bT"/><use transform="matrix(0.013020833333333334,0,0,0.013020833333333334,24.609375000000004,0)" xlink:href="#bS"/><use transform="matrix(0.013020833333333334,0,0,0.013020833333333334,41.96614583333334,0)" xlink:href="#bK"/></g><path fill="#93d6f1" d="M704-1390c-164-38-297 28-288 194v114h231v143H416V0H231v-939H60v-143h171v-111c-12-274 208-416 483-347" id="bU"/><path fill="#93d6f1" d="M1098-255l208-827h185L1176 0h-150L763-820 507 0H357L43-1082h184l213 810 252-810h149" id="bV"/><g id="K"><use transform="matrix(0.013020833333333334,0,0,0.013020833333333334,0,0)" xlink:href="#bI"/><use transform="matrix(0.013020833333333334,0,0,0.013020833333333334,23.255208333333336,0)" xlink:href="#bA"/><use transform="matrix(0.013020833333333334,0,0,0.013020833333333334,38.46354166666667,0)" xlink:href="#bC"/><use transform="matrix(0.013020833333333334,0,0,0.013020833333333334,47.48697916666667,0)" xlink:href="#bP"/><use transform="matrix(0.013020833333333334,0,0,0.013020833333333334,61.00260416666667,0)" xlink:href="#bU"/><use transform="matrix(0.013020833333333334,0,0,0.013020833333333334,70.26041666666667,0)" xlink:href="#bu"/><use transform="matrix(0.013020833333333334,0,0,0.013020833333333334,76.73177083333334,0)" xlink:href="#bA"/><use transform="matrix(0.013020833333333334,0,0,0.013020833333333334,91.94010416666667,0)" xlink:href="#bV"/><use transform="matrix(0.013020833333333334,0,0,0.013020833333333334,111.97916666666667,0)" xlink:href="#bw"/></g><path fill="#93d6f1" d="M651-255l416-1201h210L737 0H567L28-1456h209" id="bW"/><g id="L"><use transform="matrix(0.013020833333333334,0,0,0.013020833333333334,0,0)" xlink:href="#bW"/><use transform="matrix(0.013020833333333334,0,0,0.013020833333333334,16.393229166666668,0)" xlink:href="#bt"/><use transform="matrix(0.013020833333333334,0,0,0.013020833333333334,30.520833333333336,0)" xlink:href="#bC"/><use transform="matrix(0.013020833333333334,0,0,0.013020833333333334,39.544270833333336,0)" xlink:href="#bw"/><use transform="matrix(0.013020833333333334,0,0,0.013020833333333334,53.294270833333336,0)" xlink:href="#bz"/><use transform="matrix(0.013020833333333334,0,0,0.013020833333333334,59.765625,0)" xlink:href="#bA"/><use transform="matrix(0.013020833333333334,0,0,0.013020833333333334,74.97395833333333,0)" xlink:href="#bB"/></g><path fill="#93d6f1" d="M1160-420C1159-145 963 0 674 0H169v-1456h476c294-1 476 112 476 388 0 153-99 253-216 302 146 38 255 167 255 346zM678-157c171 2 289-95 289-261 0-175-95-263-286-263H361v524h317zm250-912c-2-172-104-229-283-229H361v463h290c157 3 278-84 277-234" id="bX"/><path fill="#93d6f1" d="M632-1102c291 0 422 251 422 573 0 297-141 548-419 549-131 0-235-42-310-125v521H140v-1498h169l9 120c75-93 180-140 314-140zm-53 971c207 0 290-180 290-419 0-218-92-395-292-395-112 0-196 50-252 149v517c55 99 140 148 254 148" id="bY"/><g id="M"><use transform="matrix(0.013020833333333334,0,0,0.013020833333333334,0,0)" xlink:href="#bX"/><use transform="matrix(0.013020833333333334,0,0,0.013020833333333334,16.6015625,0)" xlink:href="#bL"/><use transform="matrix(0.013020833333333334,0,0,0.013020833333333334,31.302083333333336,0)" xlink:href="#bM"/><use transform="matrix(0.013020833333333334,0,0,0.013020833333333334,54.67447916666667,0)" xlink:href="#bY"/><use transform="matrix(0.013020833333333334,0,0,0.013020833333333334,69.63541666666667,0)" xlink:href="#bw"/></g><path fill="#93d6f1" d="M572 20C306 25 99-136 101-391c0-70 20-134 59-193s113-127 223-205c-65-79-108-142-130-190s-33-96-33-143c-3-220 144-354 364-354 187 0 349 127 346 308-3 212-172 290-307 398l324 387c45-87 68-183 68-289h167c0 170-41 311-123 423L1267 0h-222l-97-115C862-36 726 17 572 20zM286-391c0 162 118 260 286 260 98 0 188-37 269-112L486-668c-110 72-200 183-200 277zm297-933c-109 0-180 87-178 196 0 64 39 144 118 240 93-79 236-119 236-280 0-91-82-156-176-156" id="bZ"/><use transform="matrix(0.013020833333333334,0,0,0.013020833333333334,0,0)" xlink:href="#bZ" id="N"/><g id="O"><use transform="matrix(0.013020833333333334,0,0,0.013020833333333334,0,0)" xlink:href="#bK"/><use transform="matrix(0.013020833333333334,0,0,0.013020833333333334,17.486979166666668,0)" xlink:href="#bt"/><use transform="matrix(0.013020833333333334,0,0,0.013020833333333334,31.614583333333336,0)" xlink:href="#bY"/><use transform="matrix(0.013020833333333334,0,0,0.013020833333333334,46.575520833333336,0)" xlink:href="#bC"/><use transform="matrix(0.013020833333333334,0,0,0.013020833333333334,55.3515625,0)" xlink:href="#bt"/><use transform="matrix(0.013020833333333334,0,0,0.013020833333333334,69.47916666666667,0)" xlink:href="#bD"/><use transform="matrix(0.013020833333333334,0,0,0.013020833333333334,83.4375,0)" xlink:href="#bv"/><use transform="matrix(0.013020833333333334,0,0,0.013020833333333334,97.94270833333333,0)" xlink:href="#by"/><use transform="matrix(0.013020833333333334,0,0,0.013020833333333334,106.65364583333333,0)" xlink:href="#bz"/><use transform="matrix(0.013020833333333334,0,0,0.013020833333333334,113.125,0)" xlink:href="#bA"/><use transform="matrix(0.013020833333333334,0,0,0.013020833333333334,128.33333333333334,0)" xlink:href="#bB"/><use transform="matrix(0.013020833333333334,0,0,0.013020833333333334,143.046875,0)" xlink:href="#bw"/></g><path fill="#fff" d="M668-361l330-1095h334L825 0H512L7-1456h333" id="ca"/><path fill="#fff" d="M719-811c-143-24-279 1-319 103V0H111v-1082h273l8 129c74-124 180-175 331-136" id="cb"/><g id="P"><use transform="matrix(0.026041666666666668,0,0,0.026041666666666668,0,0)" xlink:href="#ca"/><use transform="matrix(0.026041666666666668,0,0,0.026041666666666668,33.723958333333336,0)" xlink:href="#af"/><use transform="matrix(0.026041666666666668,0,0,0.026041666666666668,62.552083333333336,0)" xlink:href="#ak"/><use transform="matrix(0.026041666666666668,0,0,0.026041666666666668,90.36458333333334,0)" xlink:href="#ah"/><use transform="matrix(0.026041666666666668,0,0,0.026041666666666668,107.6041666666667,0)" xlink:href="#aj"/><use transform="matrix(0.026041666666666668,0,0,0.026041666666666668,137.76041666666669,0)" xlink:href="#cb"/><use transform="matrix(0.026041666666666668,0,0,0.026041666666666668,157.21354166666669,0)" xlink:href="#ag"/></g><path fill="#c6dabf" d="M497-251l268-831h189L566 0H425L33-1082h189" id="cc"/><g id="Q"><use transform="matrix(0.013020833333333334,0,0,0.013020833333333334,0,0)" xlink:href="#aQ"/><use transform="matrix(0.013020833333333334,0,0,0.013020833333333334,17.395833333333336,0)" xlink:href="#bc"/><use transform="matrix(0.013020833333333334,0,0,0.013020833333333334,32.09635416666667,0)" xlink:href="#bb"/><use transform="matrix(0.013020833333333334,0,0,0.013020833333333334,40.80729166666667,0)" xlink:href="#aZ"/><use transform="matrix(0.013020833333333334,0,0,0.013020833333333334,55.49479166666667,0)" xlink:href="#bg"/><use transform="matrix(0.013020833333333334,0,0,0.013020833333333334,70.703125,0)" xlink:href="#aW"/><use transform="matrix(0.013020833333333334,0,0,0.013020833333333334,79.7265625,0)" xlink:href="#ba"/><use transform="matrix(0.013020833333333334,0,0,0.013020833333333334,86.19791666666667,0)" xlink:href="#bb"/><use transform="matrix(0.013020833333333334,0,0,0.013020833333333334,94.90885416666667,0)" xlink:href="#bn"/><use transform="matrix(0.013020833333333334,0,0,0.013020833333333334,109.4140625,0)" xlink:href="#bb"/><use transform="matrix(0.013020833333333334,0,0,0.013020833333333334,118.125,0)" xlink:href="#ba"/><use transform="matrix(0.013020833333333334,0,0,0.013020833333333334,124.59635416666667,0)" xlink:href="#cc"/><use transform="matrix(0.013020833333333334,0,0,0.013020833333333334,137.34375,0)" xlink:href="#aU"/></g><path fill="#c6dabf" d="M572 20C306 25 99-136 101-391c0-70 20-134 59-193s113-127 223-205c-65-79-108-142-130-190s-33-96-33-143c-3-220 144-354 364-354 187 0 349 127 346 308-3 212-172 290-307 398l324 387c45-87 68-183 68-289h167c0 170-41 311-123 423L1267 0h-222l-97-115C862-36 726 17 572 20zM286-391c0 162 118 260 286 260 98 0 188-37 269-112L486-668c-110 72-200 183-200 277zm297-933c-109 0-180 87-178 196 0 64 39 144 118 240 93-79 236-119 236-280 0-91-82-156-176-156" id="cd"/><use transform="matrix(0.013020833333333334,0,0,0.013020833333333334,0,0)" xlink:href="#cd" id="R"/><path fill="#c6dabf" d="M631-137c179 0 314-70 314-231 0-71-25-127-75-166s-141-77-272-115c-165-47-285-106-360-175s-112-154-112-255c0-245 231-397 495-397 206 0 369 89 449 218 43 68 65 142 65 223H942c0-184-129-283-321-283-172 0-299 76-301 236 0 59 26 109 76 150s135 78 256 113c205 59 345 116 436 256 35 53 50 119 50 193-2 256-231 398-507 390C333 12 90-129 80-422h193c0 187 160 285 358 285" id="ce"/><g id="S"><use transform="matrix(0.013020833333333334,0,0,0.013020833333333334,0,0)" xlink:href="#ce"/><use transform="matrix(0.013020833333333334,0,0,0.013020833333333334,15.8203125,0)" xlink:href="#aU"/><use transform="matrix(0.013020833333333334,0,0,0.013020833333333334,29.947916666666668,0)" xlink:href="#bl"/><use transform="matrix(0.013020833333333334,0,0,0.013020833333333334,36.419270833333336,0)" xlink:href="#aV"/></g><path fill="#c6dabf" d="M730-137c145 0 253-29 323-105v-327H716v-156h528v534C1148-51 964 20 729 20c-394 0-598-279-607-678v-127c-5-410 194-690 585-691 310-1 499 171 537 447h-192c-36-193-151-289-344-289-285 0-393 220-393 528v119c-5 296 140 534 415 534" id="cf"/><g id="T"><use transform="matrix(0.013020833333333334,0,0,0.013020833333333334,0,0)" xlink:href="#cf"/><use transform="matrix(0.013020833333333334,0,0,0.013020833333333334,18.1640625,0)" xlink:href="#aU"/><use transform="matrix(0.013020833333333334,0,0,0.013020833333333334,32.29166666666667,0)" xlink:href="#aX"/><use transform="matrix(0.013020833333333334,0,0,0.013020833333333334,47.00520833333334,0)" xlink:href="#aU"/><use transform="matrix(0.013020833333333334,0,0,0.013020833333333334,61.132812500000014,0)" xlink:href="#aW"/><use transform="matrix(0.013020833333333334,0,0,0.013020833333333334,69.63541666666669,0)" xlink:href="#bn"/><use transform="matrix(0.013020833333333334,0,0,0.013020833333333334,84.14062500000001,0)" xlink:href="#bb"/><use transform="matrix(0.013020833333333334,0,0,0.013020833333333334,92.85156250000001,0)" xlink:href="#aU"/><use transform="matrix(0.013020833333333334,0,0,0.013020833333333334,106.9791666666667,0)" xlink:href="#bd"/></g><path fill="#c6dabf" d="M539-677L361-492V0H169v-1456h192v720l647-720h232L667-813 1285 0h-230" id="cg"/><g id="U"><use transform="matrix(0.013020833333333334,0,0,0.013020833333333334,0,0)" xlink:href="#cg"/><use transform="matrix(0.013020833333333334,0,0,0.013020833333333334,16.419270833333332,0)" xlink:href="#aX"/><use transform="matrix(0.013020833333333334,0,0,0.013020833333333334,31.1328125,0)" xlink:href="#bg"/><use transform="matrix(0.013020833333333334,0,0,0.013020833333333334,46.341145833333336,0)" xlink:href="#bq"/></g><g id="V"><use transform="matrix(0.013020833333333334,0,0,0.013020833333333334,0,0)" xlink:href="#aQ"/><use transform="matrix(0.013020833333333334,0,0,0.013020833333333334,17.395833333333336,0)" xlink:href="#aX"/><use transform="matrix(0.013020833333333334,0,0,0.013020833333333334,32.109375,0)" xlink:href="#be"/><use transform="matrix(0.013020833333333334,0,0,0.013020833333333334,45.859375,0)" xlink:href="#bq"/><use transform="matrix(0.013020833333333334,0,0,0.013020833333333334,65.8984375,0)" xlink:href="#aU"/><use transform="matrix(0.013020833333333334,0,0,0.013020833333333334,80.02604166666667,0)" xlink:href="#aW"/></g><path fill="#c6dabf" d="M1175-1298H707V0H516v-1298H49v-158h1126v158" id="ch"/><g id="W"><use transform="matrix(0.013020833333333334,0,0,0.013020833333333334,0,0)" xlink:href="#ch"/><use transform="matrix(0.013020833333333334,0,0,0.013020833333333334,14.622395833333334,0)" xlink:href="#aU"/><use transform="matrix(0.013020833333333334,0,0,0.013020833333333334,28.75,0)" xlink:href="#be"/><use transform="matrix(0.013020833333333334,0,0,0.013020833333333334,42.5,0)" xlink:href="#bb"/><use transform="matrix(0.013020833333333334,0,0,0.013020833333333334,51.2109375,0)" xlink:href="#be"/></g></defs></g></svg>